<svg width="14" height="10" viewBox="0 0 14 10" fill="none" xmlns="http://www.w3.org/2000/svg">
<path d="M5.58047 9.73023C5.4492 9.7305 5.31918 9.70484 5.19785 9.65473C5.07653 9.60462 4.96629 9.53105 4.87347 9.43823L0.63147 5.19523C0.535897 5.10305 0.459639 4.99276 0.407145 4.87079C0.354652 4.74883 0.326974 4.61763 0.325728 4.48485C0.324481 4.35207 0.34969 4.22038 0.399884 4.09745C0.450078 3.97452 0.524252 3.86281 0.618077 3.76885C0.711902 3.6749 0.8235 3.60056 0.94636 3.5502C1.06922 3.49983 1.20088 3.47443 1.33366 3.47549C1.46644 3.47655 1.59768 3.50404 1.71972 3.55636C1.84176 3.60869 1.95216 3.68479 2.04447 3.78023L5.57947 7.31523L11.9445 0.95223C12.132 0.764589 12.3863 0.659121 12.6516 0.659027C12.9169 0.658933 13.1713 0.764222 13.359 0.95173C13.5466 1.13924 13.6521 1.39361 13.6522 1.65888C13.6523 1.92415 13.547 2.17859 13.3595 2.36623L6.28747 9.43823C6.19465 9.53105 6.08441 9.60462 5.96309 9.65473C5.84176 9.70484 5.71174 9.7305 5.58047 9.73023Z" fill="#2FAB73"/>
</svg>
