<svg width="64" height="61" viewBox="0 0 64 61" fill="none" xmlns="http://www.w3.org/2000/svg">
<g clip-path="url(#clip0)">
<path d="M31.288 44.9609C37.9633 44.9609 44.6646 44.9609 51.34 44.9609C51.6257 44.9609 51.9114 44.9609 52.1711 44.9096C52.8984 44.7812 53.262 44.0627 53.0023 43.3955C52.9244 43.1902 52.7685 42.9849 52.6646 42.7796C45.9374 32.1296 39.1841 21.4796 32.4568 10.8296C31.6776 9.62347 30.8205 9.62347 30.0413 10.8296C23.288 21.5053 16.5348 32.1552 9.80748 42.8309C9.49579 43.3185 9.21008 43.8061 9.57372 44.3706C9.91138 44.9096 10.4309 44.9352 11.0023 44.9352C17.1581 44.9352 23.34 44.9352 29.4958 44.9352C30.0932 44.9609 30.6906 44.9609 31.288 44.9609ZM31.2361 42.7026C25.288 42.7026 19.34 42.7026 13.3919 42.7026C13.1841 42.7026 12.9244 42.8052 12.7945 42.5999C12.6906 42.4203 12.9244 42.2663 13.0023 42.1123C18.9763 32.6685 24.9503 23.2503 30.9244 13.8065C31.262 13.2932 31.3659 13.3959 31.6516 13.8321C37.5737 23.2503 43.5218 32.6428 49.4438 42.061C49.5477 42.2406 49.8075 42.4203 49.6776 42.5999C49.5737 42.8052 49.288 42.7026 49.0802 42.7026C43.1322 42.7026 37.1841 42.7026 31.2361 42.7026Z" fill="url(#paint0_linear)"/>
<path d="M31.2361 58.6391C22.1971 58.4081 15.1322 54.6357 10.1711 47.1165C9.67762 46.3467 9.02826 46.09 8.40489 46.475C7.78151 46.8599 7.70359 47.5271 8.22307 48.3227C12.0413 54.2507 17.34 58.1771 24.1971 60.0505C37.0802 63.5919 51.0283 56.894 56.1711 44.7043C56.327 44.345 56.5348 44.0114 56.4309 43.6008C56.301 43.0875 56.0153 42.7796 55.4698 42.6769C54.9244 42.5743 54.5348 42.8052 54.275 43.2415C54.1971 43.3955 54.1452 43.5494 54.0672 43.7034C50.4049 51.7871 44.1451 56.663 35.34 58.3568C34.5867 58.5107 33.8335 58.5621 33.0802 58.6391C32.5088 58.6647 31.8594 58.6391 31.2361 58.6391Z" fill="url(#paint1_linear)"/>
<path d="M4.69061 44.8582C6.22308 44.8326 7.36594 44.1397 8.09321 42.8052C8.76854 41.5477 8.71659 40.2903 7.91139 39.1098C7.65165 38.6992 7.7036 38.4426 7.93737 38.0833C10.8205 33.541 13.6776 28.9987 16.5607 24.4565C16.6127 24.3538 16.6646 24.2768 16.7426 24.1742C17.2101 23.43 17.1322 22.7371 16.5348 22.3778C15.9114 22.0185 15.262 22.2238 14.7945 22.968C12.8205 26.0989 10.8465 29.2297 8.84646 32.3605C7.88542 33.8746 6.92438 35.3887 5.96334 36.9285C5.75555 37.2621 5.54776 37.3904 5.13217 37.3391C2.95035 37.0055 0.950353 38.6479 0.820483 40.8292C0.690613 43.0105 2.48282 44.8582 4.69061 44.8582ZM4.69061 42.5742C3.85944 42.5742 3.15815 41.907 3.13217 41.0858C3.13217 40.2903 3.8075 39.5717 4.63867 39.5461C5.49581 39.5204 6.22308 40.2389 6.22308 41.0602C6.22308 41.8814 5.52178 42.5742 4.69061 42.5742Z" fill="url(#paint2_linear)"/>
<path d="M58.3529 33.2331C57.6776 23.6609 53.3919 16.2188 45.0282 11.1889C44.6127 10.9323 44.1711 10.6756 43.7295 10.4703C43.0802 10.1624 42.4568 10.3677 42.1192 10.9323C41.8075 11.4455 42.0153 12.0871 42.6386 12.4464C42.9763 12.6517 43.314 12.8313 43.6516 13.0109C51.5737 17.7585 55.6776 24.7388 56.0153 33.8746C56.0412 34.7472 56.3789 35.2091 57.1062 35.2861C57.7815 35.3631 58.301 34.9525 58.3529 34.2852C58.3529 33.9773 58.3529 33.5924 58.3529 33.2331Z" fill="url(#paint3_linear)"/>
<path d="M5.36595 34.3879C6.0153 34.3879 6.48283 33.9003 6.50881 33.1561C6.7166 28.9218 7.93738 24.9697 10.1971 21.3513C12.4569 17.7585 15.4439 14.91 19.1841 12.857C19.4179 12.7287 19.6517 12.626 19.8595 12.472C20.4828 12.0871 20.6906 11.4712 20.3789 10.958C20.0413 10.3421 19.3919 10.1367 18.7166 10.496C17.0802 11.3686 15.4958 12.3181 14.0672 13.5242C8.0153 18.6054 4.7166 25.0467 4.19712 32.8482C4.14517 33.7977 4.58673 34.3879 5.36595 34.3879Z" fill="url(#paint4_linear)"/>
<path d="M19.7816 18.2461C20.2491 18.2204 20.5868 18.0408 20.8205 17.6559C24.1452 12.395 27.4958 7.10852 30.8205 1.84769C31.2361 1.18046 31.1062 0.513233 30.5348 0.153955C29.9634 -0.20532 29.2621 -0.0256824 28.8725 0.615883C25.5478 5.87672 22.2231 11.1632 18.8725 16.4241C18.6127 16.809 18.5608 17.2196 18.7945 17.6302C19.0283 18.0665 19.392 18.2204 19.7816 18.2461Z" fill="url(#paint5_linear)"/>
<path d="M45.7816 20.2735C45.7816 19.8885 45.6517 19.6319 45.4959 19.3753C42.5608 14.7304 39.5998 10.0854 36.6647 5.4405C36.2232 4.74761 35.5738 4.54231 34.9764 4.87593C34.379 5.2352 34.2491 5.90243 34.6907 6.59532C37.6517 11.2916 40.6388 16.0135 43.5998 20.7097C43.9115 21.1973 44.353 21.4026 44.9245 21.2743C45.4699 21.1203 45.7297 20.7354 45.7816 20.2735Z" fill="url(#paint6_linear)"/>
<path d="M59.7815 51.3765C61.0023 51.3765 62.249 51.3765 63.4698 51.3765C64.7165 51.3509 65.1841 50.5297 64.5347 49.4775C63.262 47.4502 61.9893 45.4485 60.7166 43.4468C60.275 42.7796 59.5997 42.5743 59.0023 42.9335C58.4308 43.2928 58.3269 43.96 58.7685 44.6786C59.5737 45.9874 60.4049 47.2962 61.236 48.5793C61.5217 48.9899 61.4438 49.1182 60.9503 49.1182C59.4698 49.0926 57.9633 49.1182 56.4828 49.1182C56.275 49.1182 56.0412 49.1182 55.8334 49.1439C55.1841 49.2209 54.7166 49.6828 54.7166 50.273C54.7166 50.8889 55.2101 51.3765 55.8854 51.4022C57.1841 51.3765 58.4828 51.3765 59.7815 51.3765Z" fill="url(#paint7_linear)"/>
<path d="M57.9634 39.4434C57.9634 39.1868 57.8595 38.9558 57.7296 38.7249C55.1322 34.6445 52.5608 30.5385 49.9634 26.4582C49.5478 25.7909 48.8465 25.5856 48.2491 25.9706C47.6777 26.3298 47.5738 26.9971 47.9894 27.6643C50.5868 31.7703 53.2101 35.8763 55.8075 39.9823C56.1452 40.4956 56.5868 40.7009 57.1842 40.5213C57.7036 40.316 57.9634 39.9567 57.9634 39.4434Z" fill="url(#paint8_linear)"/>
<path d="M39.8855 49.1439C38.1712 49.1439 36.4569 49.1439 34.7686 49.1439C33.8855 49.1439 33.392 49.5545 33.392 50.2474C33.366 50.9403 33.8595 51.4022 34.7166 51.4022C38.1452 51.4279 41.5478 51.4279 44.9764 51.4022C45.8075 51.4022 46.327 50.9403 46.327 50.2474C46.327 49.5545 45.8075 49.1182 44.9504 49.1182C43.2621 49.1182 41.5738 49.1439 39.8855 49.1439Z" fill="url(#paint9_linear)"/>
<path d="M26.301 49.1439C25.2881 49.1439 24.2751 49.1439 23.2621 49.1439C22.4569 49.1439 21.9634 49.5802 21.9634 50.273C21.9634 50.9403 22.4309 51.4022 23.2361 51.4279C25.314 51.4535 27.392 51.4535 29.4699 51.4279C30.2491 51.4279 30.7686 50.9146 30.7426 50.273C30.7166 49.6058 30.2231 49.1696 29.4179 49.1696C28.379 49.1182 27.34 49.1439 26.301 49.1439Z" fill="url(#paint10_linear)"/>
<path d="M26.0932 38.5966C27.1841 38.5966 28.301 38.5966 29.3919 38.5966C29.5737 38.5966 29.7295 38.5966 29.9114 38.5709C30.6646 38.4939 31.1062 38.032 31.0542 37.3648C31.0283 36.7232 30.5607 36.3126 29.8334 36.3126C28.2231 36.2869 26.5867 36.3126 24.9763 36.3126C24.7945 36.3126 24.5607 36.4152 24.4568 36.2099C24.3789 36.056 24.5867 35.902 24.6646 35.7737C24.8205 35.4914 25.0282 35.2348 25.1581 34.9525C25.4179 34.4136 25.236 33.7977 24.7166 33.5154C24.249 33.2331 23.5477 33.3101 23.262 33.7463C22.5347 34.7985 21.8334 35.8763 21.2101 37.0055C20.7685 37.801 21.3659 38.5966 22.4049 38.6222C23.6516 38.6222 24.8724 38.5966 26.0932 38.5966Z" fill="url(#paint11_linear)"/>
<path d="M39.314 38.5709C39.5737 38.5709 39.8335 38.5709 40.0932 38.5709C41.2621 38.5196 41.7296 37.647 41.1322 36.6719C40.301 35.3374 39.4698 34.0286 38.6387 32.6942C38.4828 32.4632 38.353 32.2066 38.1971 31.9756C37.8075 31.3854 37.1062 31.2057 36.5608 31.565C36.0153 31.8986 35.8335 32.5145 36.1971 33.1304C36.7426 34.0543 37.314 34.9525 37.9114 35.8507C38.1192 36.1586 38.0932 36.2869 37.7556 36.4409C37.2361 36.6719 37.0543 37.1338 37.1841 37.6727C37.288 38.186 37.6257 38.4939 38.1711 38.5452C38.5608 38.5709 38.9504 38.5452 39.34 38.5452C39.314 38.5452 39.314 38.5709 39.314 38.5709Z" fill="url(#paint12_linear)"/>
<path d="M31.2361 25.3803C31.4179 25.6369 31.5478 25.8679 31.7036 26.0732C32.0932 26.5608 32.7686 26.6891 33.2621 26.3555C33.7556 26.0475 33.9634 25.4316 33.6517 24.8927C33.1842 24.0715 32.7166 23.276 32.1712 22.5061C31.7036 21.8132 30.7426 21.8645 30.2751 22.5831C29.366 23.9689 28.4829 25.3546 27.6257 26.7661C27.2621 27.3563 27.4179 27.9979 27.9634 28.3315C28.5088 28.6908 29.2101 28.5368 29.5997 27.9466C30.1452 27.1254 30.6647 26.2785 31.2361 25.3803Z" fill="url(#paint13_linear)"/>
</g>
<defs>
<linearGradient id="paint0_linear" x1="46.9368" y1="44.5217" x2="33.042" y2="15.6495" gradientUnits="userSpaceOnUse">
<stop stop-color="#FFBDBD"/>
<stop offset="1" stop-color="#FF2372"/>
</linearGradient>
<linearGradient id="paint1_linear" x1="49.6204" y1="60.7654" x2="45.6086" y2="43.0578" gradientUnits="userSpaceOnUse">
<stop stop-color="#FFBDBD"/>
<stop offset="1" stop-color="#FF2372"/>
</linearGradient>
<linearGradient id="paint2_linear" x1="14.7603" y1="44.5743" x2="3.44347" y2="31.0599" gradientUnits="userSpaceOnUse">
<stop stop-color="#FFBDBD"/>
<stop offset="1" stop-color="#FF2372"/>
</linearGradient>
<linearGradient id="paint3_linear" x1="56.0475" y1="34.9823" x2="43.4272" y2="21.1863" gradientUnits="userSpaceOnUse">
<stop stop-color="#FFBDBD"/>
<stop offset="1" stop-color="#FF2372"/>
</linearGradient>
<linearGradient id="paint4_linear" x1="18.2235" y1="34.0862" x2="6.10101" y2="20.3794" gradientUnits="userSpaceOnUse">
<stop stop-color="#FFBDBD"/>
<stop offset="1" stop-color="#FF2372"/>
</linearGradient>
<linearGradient id="paint5_linear" x1="29.3159" y1="18.017" x2="20.1135" y2="7.59466" gradientUnits="userSpaceOnUse">
<stop stop-color="#FFBDBD"/>
<stop offset="1" stop-color="#FF2372"/>
</linearGradient>
<linearGradient id="paint6_linear" x1="44.1834" y1="21.1037" x2="35.8355" y2="11.584" gradientUnits="userSpaceOnUse">
<stop stop-color="#FFBDBD"/>
<stop offset="1" stop-color="#FF2372"/>
</linearGradient>
<linearGradient id="paint7_linear" x1="63.4036" y1="51.2938" x2="59.8409" y2="44.3488" gradientUnits="userSpaceOnUse">
<stop stop-color="#FFBDBD"/>
<stop offset="1" stop-color="#FF2372"/>
</linearGradient>
<linearGradient id="paint8_linear" x1="56.5238" y1="40.3995" x2="49.0832" y2="31.8351" gradientUnits="userSpaceOnUse">
<stop stop-color="#FFBDBD"/>
<stop offset="1" stop-color="#FF2372"/>
</linearGradient>
<linearGradient id="paint9_linear" x1="44.506" y1="51.3926" x2="44.2591" y2="49.0813" gradientUnits="userSpaceOnUse">
<stop stop-color="#FFBDBD"/>
<stop offset="1" stop-color="#FF2372"/>
</linearGradient>
<linearGradient id="paint10_linear" x1="29.5075" y1="51.4182" x2="29.1466" y2="49.131" gradientUnits="userSpaceOnUse">
<stop stop-color="#FFBDBD"/>
<stop offset="1" stop-color="#FF2372"/>
</linearGradient>
<linearGradient id="paint11_linear" x1="29.6513" y1="38.5561" x2="28.1114" y2="33.6916" gradientUnits="userSpaceOnUse">
<stop stop-color="#FFBDBD"/>
<stop offset="1" stop-color="#FF2372"/>
</linearGradient>
<linearGradient id="paint12_linear" x1="40.6342" y1="38.4808" x2="37.073" y2="34.0365" gradientUnits="userSpaceOnUse">
<stop stop-color="#FFBDBD"/>
<stop offset="1" stop-color="#FF2372"/>
</linearGradient>
<linearGradient id="paint13_linear" x1="32.9023" y1="28.442" x2="29.9583" y2="23.6404" gradientUnits="userSpaceOnUse">
<stop stop-color="#FFBDBD"/>
<stop offset="1" stop-color="#FF2372"/>
</linearGradient>
<clipPath id="clip0">
<rect width="64" height="61" fill="white" transform="matrix(1 0 0 -1 0 61)"/>
</clipPath>
</defs>
</svg>
