<svg width="78" height="39" viewBox="0 0 78 39" fill="none" xmlns="http://www.w3.org/2000/svg">
<path d="M19.793 38.986C20.2489 39.014 20.5054 38.6778 20.7903 38.3977C26.6317 32.6547 32.473 26.9117 38.3144 21.1686C38.9982 20.4963 38.9982 20.4963 39.6821 21.1967C45.495 26.9117 51.3363 32.6547 57.1492 38.3697C58.004 39.2101 58.289 39.2101 59.1438 38.3697C65.2131 32.4025 71.3109 26.4354 77.3802 20.4403C78.2066 19.6278 78.2066 19.3757 77.3802 18.5633C71.3109 12.5962 65.2416 6.60101 59.1438 0.633877C58.289 -0.206566 58.0325 -0.206566 57.1777 0.661892C51.3078 6.43292 45.4665 12.1759 39.6251 17.947C39.0837 18.4792 38.8558 18.3952 38.3714 17.9189C32.5585 12.1759 26.7456 6.46093 20.9043 0.717918C19.9355 -0.234581 19.736 -0.234581 18.7672 0.689903C12.7264 6.65703 6.68555 12.5962 0.644732 18.5353C-0.210101 19.3757 -0.210101 19.6278 0.616237 20.4683C6.68555 26.4354 12.7549 32.4306 18.8527 38.3977C19.1091 38.6778 19.3371 38.986 19.793 38.986ZM19.1661 36.3246C18.9382 36.1285 18.8242 36.0444 18.7102 35.9324C13.2963 30.6096 7.88232 25.2588 2.43988 19.964C2.04096 19.5718 2.15494 19.4037 2.49687 19.0956C7.91081 13.8008 13.3248 8.47799 18.7102 3.1552C18.8242 3.04314 18.9097 2.81902 19.1661 2.87505C19.1661 13.9689 19.1661 25.0627 19.1661 36.3246ZM20.5054 36.2125C20.5054 25.0907 20.5054 13.9689 20.5054 2.791C20.6763 2.93108 20.7903 3.01513 20.8758 3.09917C26.3182 8.44998 31.7607 13.8008 37.2031 19.1236C37.602 19.5158 37.431 19.6839 37.1176 19.992C31.7322 25.2588 26.3752 30.5536 20.9898 35.8203C20.8758 35.9604 20.7618 36.1565 20.5054 36.2125ZM57.4911 36.1845C57.2917 36.2125 57.2062 36.0444 57.1207 35.9604C51.6498 30.6096 46.2073 25.2308 40.7364 19.88C40.3375 19.4878 40.5654 19.3197 40.8219 19.0675C46.2073 13.7728 51.5928 8.47799 56.9782 3.18321C57.1207 3.04314 57.2062 2.81902 57.4626 2.87505C57.4911 13.9969 57.4911 25.0907 57.4911 36.1845Z" fill="url(#paint0_linear)"/>
<defs>
<linearGradient id="paint0_linear" x1="67.0199" y1="38.5111" x2="56.1254" y2="2.19722" gradientUnits="userSpaceOnUse">
<stop stop-color="#FFBDBD"/>
<stop offset="1" stop-color="#FF2372"/>
</linearGradient>
</defs>
</svg>
