<svg width="72" height="61" viewBox="0 0 72 61" fill="none" xmlns="http://www.w3.org/2000/svg">
<g clip-path="url(#clip0)">
<path d="M68.3804 5.13132C67.9898 6.36179 67.5992 7.51372 67.1566 8.87509C68.2502 8.32531 69.2137 7.82788 70.1511 7.35664C70.3074 7.2781 70.3334 7.12102 70.3595 6.96394C70.8803 5.39312 71.375 3.8223 71.9218 2.27767C72.052 1.88496 71.9479 1.75406 71.5833 1.64934C70.047 1.15192 68.5106 0.628311 66.9743 0.104706C66.766 0.026165 66.5576 -0.0261917 66.3493 0.0785294C65.4379 0.549772 64.5265 0.994837 63.485 1.51844C64.813 1.96351 65.9848 2.38239 67.1826 2.77509C67.0264 3.0369 66.792 3.06308 66.5837 3.1678C62.9121 5.0266 59.2405 6.85921 55.5689 8.71801C55.1522 8.92745 54.8137 8.95363 54.371 8.71801C48.9027 5.94291 43.4343 3.19398 37.9399 0.445049C37.7056 0.340328 37.4712 0.235607 37.2368 0.104706C37.0806 0.340328 37.1587 0.54977 37.1587 0.759212C37.1587 7.88024 37.1587 15.0013 37.1327 22.1223C37.1327 22.5935 37.2368 22.8554 37.6795 23.0648C43.6947 26.0755 49.7099 29.1124 55.7511 32.1232C56.4282 32.4635 56.4282 32.4635 56.4282 31.7043C56.4282 25.0021 56.4282 18.3 56.4282 11.5717C56.4282 11.1004 56.5584 10.8386 57.001 10.6292C60.5945 8.84891 64.162 7.04247 67.7555 5.23604C67.9378 5.23604 68.094 5.10514 68.3804 5.13132ZM39.8408 16.6244C39.8929 16.703 39.971 16.7554 39.9971 16.8077C40.2835 17.3837 40.5699 17.9858 40.8824 18.5618C41.0126 18.8236 40.8303 18.8498 40.6741 18.9283C40.1793 19.1901 39.6585 19.4257 39.1638 19.6875C38.9294 19.8184 38.7732 19.8184 38.669 19.5305C38.4347 19.0069 38.1482 18.4832 37.8878 17.9596C37.8358 17.8811 37.7576 17.724 37.8618 17.6717C38.4868 17.3313 39.1378 16.991 39.8408 16.6244ZM45.205 16.4412C45.2311 16.6244 45.1529 16.6768 45.0488 16.7292C44.5019 17.0172 43.9291 17.279 43.3822 17.5669C43.1479 17.6978 43.0698 17.5931 42.9916 17.4099C42.7312 16.7815 42.0282 16.127 42.2365 15.5772C42.3927 15.1322 43.2781 14.9489 43.851 14.6347C43.9812 14.5824 44.1374 14.3991 44.2415 14.5824C44.6061 15.2107 44.9186 15.8652 45.205 16.4412ZM47.6788 15.4202C47.4444 15.4725 47.3924 15.3678 47.3142 15.2631C47.0538 14.7133 46.7935 14.1897 46.507 13.6399C46.3768 13.3781 46.507 13.2996 46.7153 13.1948C47.2101 12.9592 47.7309 12.6974 48.1996 12.4356C48.434 12.3047 48.5642 12.3309 48.6944 12.5927C48.9287 13.1163 49.1891 13.5875 49.4495 14.1111C49.5016 14.242 49.6578 14.3991 49.4755 14.5038C48.8506 14.8442 48.2256 15.1322 47.6788 15.4202ZM52.6264 10.2103C52.8607 10.1579 52.9128 10.2626 52.9649 10.3935C53.2513 10.9957 53.7981 11.624 53.7461 12.2C53.72 12.6451 52.8086 12.7498 52.3139 13.0639C52.2358 13.1163 52.1576 13.1425 52.0795 13.1948C51.8712 13.3257 51.715 13.3519 51.5848 13.0639C51.3504 12.5403 51.064 12.0167 50.8036 11.4931C50.7515 11.3884 50.6473 11.2313 50.8036 11.1528C51.4546 10.8124 52.0795 10.4983 52.6264 10.2103Z" fill="url(#paint0_linear)"/>
<path d="M4.66111 2.80129C5.9631 2.35623 7.16093 1.96352 8.48896 1.51846C7.42133 0.994854 6.4839 0.497431 5.52043 0.0261879C5.36419 -0.0523529 5.18191 0.0261841 5.02567 0.0785446C3.48932 0.602152 1.95298 1.12576 0.416629 1.62318C-0.0260472 1.75408 -0.0260472 1.93734 0.104152 2.33005C0.624947 3.8485 1.1197 5.39314 1.61446 6.91159C1.69258 7.14721 1.7707 7.35666 2.0311 7.46138C2.91645 7.88026 3.8018 8.3515 4.86943 8.87511C4.4528 7.5661 4.0622 6.38799 3.6716 5.20987C3.90596 5.07897 4.03616 5.23606 4.1924 5.3146C7.81193 7.12103 11.4315 8.95365 15.051 10.7601C15.4416 10.9695 15.5457 11.2052 15.5457 11.624C15.5457 18.3262 15.5457 25.0545 15.5457 31.7567C15.5457 32.5682 15.5457 32.5682 16.2749 32.2017C22.264 29.191 28.2271 26.1803 34.2163 23.1957C34.711 22.9601 34.9193 22.6721 34.8412 22.1485C34.8152 22.0438 34.8152 21.9391 34.8412 21.8343C34.9975 20.9966 34.685 20.473 33.8517 20.2373C33.409 20.1064 33.357 19.8708 33.5913 19.4781C33.8257 19.0854 34.0079 18.6665 34.2163 18.2476C34.2944 18.0906 34.3204 17.8026 34.6589 17.9073C34.8673 17.9597 34.8412 17.7764 34.8412 17.6455C34.8412 17.4884 34.8412 17.3313 34.8412 17.2004C34.8412 11.8073 34.8412 6.38799 34.8412 0.994854C34.8412 0.130905 34.8412 0.130905 34.0861 0.497427C28.5917 3.27254 23.0973 6.02146 17.6029 8.79657C17.1863 9.00601 16.8738 9.00601 16.4832 8.79657C12.7855 6.91159 9.08788 5.07897 5.39023 3.22018C5.15587 3.0631 4.94755 2.95837 4.66111 2.80129ZM32.1331 16.8863C31.8467 17.4622 31.5342 18.1167 31.1957 18.7451C31.1175 18.9021 30.9613 18.7712 30.8571 18.7189C30.3363 18.4571 29.8155 18.1953 29.2948 17.9335C29.0604 17.8288 29.0604 17.724 29.1385 17.4884C29.9197 15.5511 30.0239 15.4987 31.8206 16.4936C31.8987 16.5459 31.9768 16.5721 32.055 16.6245C32.1331 16.6506 32.1591 16.7292 32.1331 16.8863ZM25.9096 13.509C26.5085 13.8232 27.1334 14.1112 27.7324 14.4515C27.9146 14.5562 27.7844 14.7133 27.7324 14.8442C27.498 15.3416 27.2376 15.8129 27.0033 16.3103C26.8731 16.5721 26.7689 16.6506 26.4564 16.5197C24.5816 15.7082 24.5295 15.5511 25.5711 13.797C25.6492 13.6661 25.6752 13.4828 25.9096 13.509ZM23.5139 12.488C23.2535 13.0378 22.9671 13.5614 22.7067 14.1112C22.5504 14.4515 22.3942 14.4777 22.0817 14.3206C20.2069 13.4043 20.2069 13.4305 21.2485 11.624C21.4047 11.3361 21.5349 11.3099 21.7953 11.467C22.264 11.7288 22.7588 11.9644 23.2275 12.2C23.3577 12.2524 23.54 12.2785 23.5139 12.488ZM19.2174 10.2888C19.1653 10.3936 19.1132 10.5245 19.0611 10.6292C18.1758 12.488 18.1758 12.488 16.4051 11.4408C16.1186 11.2837 16.0926 11.1528 16.2488 10.891C16.5092 10.4197 16.7436 9.92232 16.9779 9.42489C17.0821 9.16309 17.2383 9.11073 17.4727 9.26781C17.9674 9.52962 18.4882 9.76524 18.983 10.027C19.0872 10.0794 19.2174 10.1056 19.2174 10.2888Z" fill="url(#paint1_linear)"/>
<path d="M17.03 34.4794C17.3425 34.6365 17.6029 34.7674 17.8373 34.8983C23.3056 37.6472 28.7479 40.3961 34.2163 43.1189C34.5288 43.276 34.7892 43.4069 34.7892 43.8519C34.7631 47.8837 34.7892 51.9154 34.7631 55.9472C34.7631 56.0257 34.7371 56.1305 34.7371 56.2614C33.8517 55.3451 32.9924 54.4549 32.1331 53.5648C32.055 53.6172 31.9769 53.6695 31.8987 53.7219C31.8987 54.7953 31.8987 55.8687 31.9248 56.942C31.9248 57.0729 32.1071 57.23 32.2112 57.3609C33.3309 58.5129 34.4767 59.6386 35.5964 60.7905C35.8828 61.0785 36.0391 61.1309 36.3515 60.8167C37.4713 59.6648 38.617 58.539 39.7367 57.3871C39.919 57.2038 40.0492 57.0206 40.0492 56.7064C40.0232 55.7378 40.0492 54.7429 40.0492 53.6957C39.1378 54.6382 38.2524 55.5283 37.3411 56.4446C37.1067 56.1043 37.1588 55.8948 37.1588 55.7116C37.1588 51.8107 37.1588 47.9099 37.1327 44.009C37.1327 43.5378 37.289 43.3283 37.7056 43.1451C43.2 40.3961 48.6684 37.6472 54.1367 34.8983C54.3711 34.7935 54.5794 34.6626 54.8138 34.5317C54.7096 34.2961 54.5013 34.2699 54.345 34.1914C48.3819 31.1807 42.4188 28.1961 36.4557 25.2116C36.1432 25.0545 35.8568 24.9498 35.4922 25.1592C29.3989 28.2485 23.3056 31.2854 17.2123 34.3747C17.2383 34.3485 17.1863 34.4008 17.03 34.4794ZM35.961 39.8725C36.0651 39.8725 36.1693 39.8725 36.2734 39.8725C37.2109 39.8725 37.2109 39.8725 37.2109 40.7888C37.2109 41.9931 37.2109 41.9931 35.9349 41.9931C34.7892 41.9931 34.7892 41.9931 34.7892 40.9459C34.7892 39.8725 34.7892 39.8725 35.961 39.8725ZM35.961 35.5528C36.0651 35.5528 36.1693 35.5528 36.2734 35.5528C37.2109 35.5528 37.2109 35.5528 37.2109 36.4691C37.2109 37.6996 37.2109 37.6996 35.9349 37.6734C34.6329 37.6734 34.8152 37.8566 34.7892 36.6262C34.7631 35.5528 34.7892 35.5528 35.961 35.5528ZM35.961 31.2592C36.0911 31.2592 36.2213 31.2592 36.3515 31.2592C37.3411 31.2854 37.1848 31.1283 37.1848 32.1232C37.1848 33.3798 37.1848 33.406 35.7526 33.3798C34.6329 33.3798 34.7631 33.5107 34.7631 32.4373C34.7892 31.2592 34.7892 31.2592 35.961 31.2592ZM36.0391 26.9395C36.2213 26.9395 36.3776 26.9656 36.5599 26.9395C37.1067 26.8347 37.2369 27.0966 37.2109 27.6202C37.1848 29.0863 37.2109 29.0863 35.7006 29.0863C34.7892 29.0863 34.7892 29.0863 34.7892 28.1961C34.7892 26.9395 34.7892 26.9395 36.0391 26.9395Z" fill="url(#paint2_linear)"/>
</g>
<defs>
<linearGradient id="paint0_linear" x1="67.0707" y1="31.9362" x2="53.1306" y2="6.89114" gradientUnits="userSpaceOnUse">
<stop stop-color="#FFBDBD"/>
<stop offset="1" stop-color="#FF2372"/>
</linearGradient>
<linearGradient id="paint1_linear" x1="29.974" y1="32.0304" x2="15.9549" y2="6.93251" gradientUnits="userSpaceOnUse">
<stop stop-color="#FFBDBD"/>
<stop offset="1" stop-color="#FF2372"/>
</linearGradient>
<linearGradient id="paint2_linear" x1="49.4949" y1="60.5793" x2="33.7596" y2="33.0463" gradientUnits="userSpaceOnUse">
<stop stop-color="#FFBDBD"/>
<stop offset="1" stop-color="#FF2372"/>
</linearGradient>
<clipPath id="clip0">
<rect width="72" height="61" fill="white" transform="matrix(1 0 0 -1 0 61)"/>
</clipPath>
</defs>
</svg>
