<svg width="438" height="426" viewBox="0 0 438 426" fill="none" xmlns="http://www.w3.org/2000/svg">
<g clip-path="url(#clip0)">
<path d="M161.424 66.3647L107.755 161.198" stroke="white" stroke-width="1.56318" stroke-miterlimit="10"/>
<path d="M136.413 125.14C136.413 124.723 136.778 124.359 137.195 124.359H150.221C157.725 124.359 162.883 128.683 162.883 135.405C162.883 140.251 159.965 143.794 156.161 145.305C160.486 146.452 164.238 149.63 164.238 155.518C164.238 162.344 158.715 167.138 150.795 167.138H137.247C136.83 167.138 136.465 166.773 136.465 166.356V125.14H136.413ZM151.055 164.584C156.995 164.584 161.164 160.781 161.164 155.466C161.164 150.047 156.526 146.764 150.69 146.764H139.279V164.532H151.055V164.584ZM150.69 144.159C156.422 144.159 159.809 140.564 159.809 135.561C159.809 130.247 156.161 127.068 150.274 127.068H139.331V144.159H150.69Z" fill="url(#paint0_linear)" stroke="white" stroke-width="1.04212" stroke-miterlimit="10"/>
<path d="M168.198 143.69C167.937 143.221 167.99 142.7 168.563 142.7H169.917C170.23 142.7 170.543 142.908 170.699 143.273L181.172 163.907H181.277L190.812 143.273C191.02 142.908 191.281 142.7 191.594 142.7H192.948C193.521 142.7 193.574 143.169 193.313 143.69L174.138 185.01C174.034 185.323 173.669 185.479 173.356 185.479H171.95C171.481 185.479 171.272 185.166 171.533 184.645L179.765 166.929L168.198 143.69Z" fill="url(#paint1_linear)" stroke="white" stroke-width="1.04212" stroke-miterlimit="10"/>
<path d="M66.852 92.8346L63.413 101.432H49.6571V110.03H62.5272L59.0882 118.627H49.6571V127.224H66.852L63.413 135.874H49.6571H41.0596V118.627V110.082V92.8867H66.852V92.8346Z" fill="white"/>
<path d="M85.2454 111.072C86.548 111.541 88.007 112.27 89.4659 113.26C90.977 114.25 92.2796 115.553 93.4781 117.168C94.6765 118.783 95.2497 120.815 95.2497 123.212C95.2497 126.86 93.947 129.986 91.3417 132.591C88.7365 135.197 85.6101 136.499 81.9627 136.499C78.3153 136.499 75.1889 135.197 72.5836 132.591C69.9783 129.986 68.6757 126.86 68.6757 123.212H77.5337C77.5337 124.411 77.9505 125.453 78.8363 126.339C79.7221 127.225 80.7642 127.641 81.9627 127.641C83.2132 127.641 84.2553 127.225 85.089 126.339C85.9748 125.453 86.3917 124.411 86.3917 123.212C86.3917 121.649 85.7664 120.451 84.4638 119.617C83.2132 118.783 82.2232 118.314 81.5458 118.106C81.2332 118.002 80.3995 117.741 78.9926 117.324C77.5858 116.908 76.1268 116.23 74.6157 115.292C73.1047 114.354 71.6978 113.104 70.4994 111.489C69.2488 109.925 68.6757 107.893 68.6757 105.392C68.6757 101.745 69.9783 98.5662 72.5836 96.013C75.1889 93.4077 78.3153 92.1051 81.9627 92.1051C85.6101 92.1051 88.7365 93.4077 91.3417 96.013C93.947 98.6183 95.2497 101.745 95.2497 105.392H86.3917C86.3917 104.142 85.9748 103.099 85.089 102.266C84.2032 101.38 83.1611 100.963 81.9627 100.963C80.7642 100.963 79.7221 101.38 78.8363 102.266C77.9505 103.152 77.5337 104.194 77.5337 105.392C77.5337 107.268 78.2632 108.466 79.7742 109.04C81.2853 109.613 82.2753 109.977 82.7964 110.186C83.109 110.342 83.8906 110.655 85.2454 111.072Z" fill="white"/>
<path d="M132.036 92.8346L128.597 101.432H117.812V135.874H109.214V101.432H98.4281L101.867 92.8346H132.036Z" fill="white"/>
<path d="M20.634 111.645L0 92.8346V135.874H8.64959V112.322L34.442 135.874V124.307L20.634 111.645Z" fill="white"/>
<path d="M34.4421 116.334V92.8346H25.7925V108.31L34.4421 116.334Z" fill="white"/>
</g>
<g clip-path="url(#clip1)">
<path d="M401.505 281.482C401.505 281.059 401.875 280.689 402.298 280.689H403.672C404.095 280.689 404.465 281.059 404.465 281.482V323.295C404.465 323.771 404.042 324.088 403.619 324.088H402.298C401.875 324.088 401.505 323.718 401.505 323.295V281.482Z" fill="white"/>
<path d="M403.619 324.617H402.298C401.558 324.617 400.976 323.983 400.976 323.295V281.482C400.976 280.742 401.61 280.161 402.298 280.161H403.672C404.412 280.161 404.994 280.795 404.994 281.482V323.295C405.046 324.141 404.306 324.617 403.619 324.617ZM402.35 281.218C402.192 281.218 402.086 281.377 402.086 281.482V323.295C402.086 323.454 402.245 323.56 402.35 323.56H403.672C403.831 323.56 403.989 323.454 403.989 323.295V281.482C403.989 281.324 403.831 281.218 403.725 281.218H402.35Z" fill="url(#paint2_linear)"/>
<path d="M414.932 300.089C414.932 299.666 415.302 299.296 415.777 299.296H416.412C416.835 299.296 417.099 299.561 417.152 299.931L417.416 302.574C418.209 301.728 421.645 298.662 426.614 298.662C433.539 298.662 436.605 303.05 436.605 310.027V323.295C436.605 323.718 436.235 324.088 435.812 324.088H434.702C434.279 324.088 433.909 323.718 433.909 323.295V310.027C433.909 304.318 431.266 301.358 426.508 301.358C421.433 301.358 417.892 305.323 417.627 305.64V323.295C417.627 323.771 417.363 324.088 416.835 324.088H415.672C415.249 324.088 414.984 323.718 414.984 323.295V300.089H414.932Z" fill="white"/>
<path d="M435.759 324.617H434.649C433.909 324.617 433.327 323.983 433.327 323.295V310.027C433.327 304.688 430.948 301.887 426.455 301.887C422.015 301.887 418.737 305.164 418.103 305.851V323.348C418.103 324.194 417.574 324.67 416.782 324.67H415.619C414.931 324.67 414.403 324.088 414.403 323.348V300.142C414.403 299.402 415.037 298.821 415.777 298.821H416.412C417.099 298.821 417.574 299.244 417.68 299.878L417.839 301.517C419.266 300.301 422.332 298.186 426.614 298.186C433.486 298.186 437.133 302.31 437.133 310.08V323.348C437.08 324.035 436.446 324.617 435.759 324.617ZM426.455 300.829C431.53 300.829 434.384 304.107 434.384 310.027V323.295C434.384 323.454 434.543 323.56 434.649 323.56H435.759C435.917 323.56 436.023 323.401 436.023 323.295V310.027C436.023 302.838 432.851 299.191 426.561 299.191C421.328 299.191 417.892 302.785 417.786 302.944L416.993 303.79L416.623 299.931C416.623 299.825 416.57 299.772 416.412 299.772H415.777C415.566 299.772 415.46 299.931 415.46 300.037V323.243C415.46 323.295 415.46 323.507 415.619 323.507H416.782C416.993 323.507 417.046 323.454 417.046 323.243V305.375L417.152 305.217C417.204 305.27 420.905 300.829 426.455 300.829Z" fill="url(#paint3_linear)"/>
<path d="M424.041 231.01L369.581 327.195L370.961 327.977L425.421 231.791L424.041 231.01Z" fill="white"/>
<path d="M328.821 258.223L325.332 266.945H311.376V275.668H324.433L320.944 284.39H311.376V293.112H328.821L325.332 301.887H311.376H302.654V284.39V275.72V258.276H328.821V258.223Z" fill="white"/>
<path d="M347.481 276.725C348.802 277.201 350.282 277.941 351.762 278.945C353.295 279.949 354.617 281.271 355.833 282.91C357.049 284.548 357.63 286.61 357.63 289.041C357.63 292.742 356.308 295.913 353.665 298.556C351.022 301.199 347.851 302.521 344.15 302.521C340.45 302.521 337.279 301.199 334.635 298.556C331.992 295.913 330.671 292.742 330.671 289.041H339.657C339.657 290.257 340.08 291.314 340.979 292.213C341.877 293.112 342.935 293.535 344.15 293.535C345.419 293.535 346.476 293.112 347.322 292.213C348.221 291.314 348.644 290.257 348.644 289.041C348.644 287.456 348.009 286.24 346.688 285.394C345.419 284.548 344.415 284.072 343.728 283.861C343.41 283.755 342.565 283.491 341.137 283.068C339.71 282.645 338.23 281.958 336.697 281.007C335.164 280.055 333.737 278.786 332.521 277.148C331.252 275.562 330.671 273.5 330.671 270.963C330.671 267.263 331.992 264.038 334.635 261.448C337.279 258.805 340.45 257.483 344.15 257.483C347.851 257.483 351.022 258.805 353.665 261.448C356.308 264.091 357.63 267.263 357.63 270.963H348.644C348.644 269.694 348.221 268.637 347.322 267.791C346.423 266.893 345.366 266.47 344.15 266.47C342.935 266.47 341.877 266.893 340.979 267.791C340.08 268.69 339.657 269.747 339.657 270.963C339.657 272.866 340.397 274.082 341.93 274.663C343.463 275.245 344.468 275.615 344.996 275.826C345.313 275.985 346.106 276.302 347.481 276.725Z" fill="white"/>
<path d="M394.95 258.223L391.461 266.945H380.519V301.887H371.797V266.945H360.854L364.343 258.223H394.95Z" fill="white"/>
<path d="M281.933 277.306L261 258.223V301.887H269.775V277.993L295.941 301.887V290.151L281.933 277.306Z" fill="white"/>
<path d="M295.941 282.064V258.223H287.166V273.923L295.941 282.064Z" fill="white"/>
</g>
<g clip-path="url(#clip2)">
<path d="M315.084 194.223L311.352 185.171C307.461 184.059 304.603 183.9 304.206 188.109L308.017 197.081L315.084 194.223Z" fill="url(#paint4_linear)"/>
<path d="M306.747 207.88L306.826 193.984C307.858 191.285 309.843 189.697 313.178 189.458C314.846 189.617 316.037 189.855 318.26 191.682C320.087 193.27 319.689 197.24 319.213 199.384L315.799 208.992C313.575 216.059 310.876 216.059 308.573 215.821C305.953 215.344 305.873 212.247 306.747 207.88Z" fill="#222147"/>
<path d="M287.213 107.434C287.213 121.568 290.389 143.086 297.059 155.235C301.744 163.89 309.367 175.563 313.893 184.694C314.29 185.409 313.972 186.362 313.178 186.679L305.555 189.935C304.841 190.252 304.047 189.935 303.729 189.22C299.124 179.85 292.136 168.257 287.293 159.285C280.384 146.58 274.111 132.843 272.047 118.471C271.094 111.801 281.417 109.578 282.369 116.327L287.213 107.434Z" fill="#242349"/>
<path d="M313.734 184.694C309.208 175.563 301.585 163.89 296.9 155.235C290.231 143.086 287.054 121.568 287.054 107.434L282.846 115.136C283.719 128.555 286.896 145.151 292.374 155.315C297.059 163.97 304.682 175.642 309.208 184.774C309.605 185.488 312.94 186.759 312.94 186.759C313.814 186.362 314.131 185.409 313.734 184.694Z" fill="#222147"/>
<path d="M282.052 147.057C277.446 137.369 274.508 128 273 117.518C272.761 115.851 273.238 114.501 274.032 113.469C274.111 112.913 274.27 112.436 274.429 111.96C272.523 112.913 271.094 114.898 271.491 117.518C273.556 131.97 279.828 145.627 286.737 158.332C286.737 158.332 283.719 150.63 282.052 147.057Z" fill="#F8F8F9"/>
<path d="M349.784 144.992L340.096 146.183C337.952 149.677 337.079 152.377 341.049 153.806L350.657 152.535L349.784 144.992Z" fill="url(#paint5_linear)"/>
<path d="M324.771 157.3C317.625 157.3 310.32 155.156 304.444 147.295C293.248 132.287 286.101 108.784 286.101 107.593L303.332 104.019C303.332 104.258 303.253 129.032 312.464 141.26C318.022 148.645 325.407 147.851 336.126 145.707C338.985 145.151 341.684 144.595 344.225 144.357C344.861 144.277 345.416 144.833 345.496 145.468L345.893 153.171C345.893 153.806 345.496 154.362 344.861 154.362C342.875 154.6 340.493 154.997 338.111 155.473C334.062 156.426 329.456 157.3 324.771 157.3Z" fill="#222147"/>
<path d="M281.973 67.0171C281.576 67.0171 281.179 66.9377 280.861 66.8583C233.377 53.3596 210.429 7.9404 209.477 6.0347C208.444 3.97019 209.238 1.42925 211.303 0.396998C213.367 -0.555852 215.908 0.23819 216.941 2.3027C217.179 2.93793 239.412 46.372 283.084 58.7591C285.308 59.3943 286.578 61.697 285.943 63.9204C285.466 65.8261 283.799 67.0171 281.973 67.0171Z" fill="url(#paint6_linear)"/>
<path d="M360.503 159.523L349.625 152.615C348.037 150.312 347.56 147.771 348.434 144.992C350.419 144.357 350.419 144.357 352.801 143.404C354.786 142.61 357.803 144.674 359.233 146.024L365.267 152.853C369.794 157.697 368.682 159.761 367.491 161.429C365.982 163.334 363.521 162.064 360.503 159.523Z" fill="#222147"/>
<path d="M294.28 37.6376C305.556 41.9254 315.481 50.6599 324.374 58.6003C326.28 60.2678 327.312 61.3794 328.265 63.7616C331.203 71.702 335.094 80.1982 338.111 88.218C339.541 92.0294 333.903 94.888 332.315 90.759C328.98 81.8657 325.883 76.7838 322.707 69.0022C322.151 67.573 320.96 64.635 320.404 64.1586C311.828 56.5358 302.379 48.0395 291.501 43.8311C287.451 42.3224 290.231 36.1289 294.28 37.6376Z" fill="url(#paint7_linear)"/>
<path d="M295.153 83.692C295.392 86.2329 297.377 89.1709 299.68 90.2031C301.982 91.3148 303.65 90.1237 303.491 87.5828C303.253 85.0419 301.268 82.1039 298.965 81.0717C296.662 80.0394 294.915 81.2305 295.153 83.692Z" fill="white"/>
<path d="M296.742 116.168C295.868 117.359 299.6 111.722 298.409 112.516C295.948 114.263 282.131 125.459 279.114 125.697C275.461 126.094 277.288 122.362 274.35 120.139C271.571 117.995 270.618 114.263 270.141 110.848C269.982 109.895 269.824 108.863 270.141 107.99C270.459 107.037 271.253 106.243 272.047 105.528C278.161 100.049 289.913 86.8682 299.283 90.0443C310.161 93.6969 300.95 110.531 296.742 116.168Z" fill="#242349"/>
<path d="M283.084 38.5904L279.352 26.521L272.285 32.1587L275.461 43.1165C275.858 44.9428 283.958 42.7194 283.084 38.5904Z" fill="url(#paint8_linear)"/>
<path d="M320.086 53.2802C313.417 48.5159 303.491 40.0991 296.424 36.4465C291.501 32.8733 284.355 34.9378 279.034 38.8286C275.382 41.449 270.935 44.7045 267.6 47.0073L249.179 38.8286C244.732 35.6525 237.824 44.3869 242.985 48.5953L262.677 59.7913C263.074 60.0296 263.392 60.1884 263.789 60.3472C263.868 60.903 264.027 61.4588 264.107 61.9352C265.774 77.8955 269.188 92.2677 268.871 112.039L268.95 111.96C269.03 113.072 269.903 114.263 271.571 115.057C274.588 116.486 278.955 116.327 281.337 114.66C287.293 111.96 293.01 109.022 297.456 105.449C299.997 103.543 302.141 101.399 303.729 98.9376C304.682 98.223 305.158 97.4289 305.158 96.5555C306.747 95.7614 304.603 73.3695 301.744 54.3919L313.019 61.2206C314.846 62.4911 318.022 64.1586 318.975 63.1263L322.072 58.1238C323.501 56.9328 322.389 54.5507 320.086 53.2802Z" fill="url(#paint9_linear)"/>
<path d="M270.697 44.784C279.034 42.8783 285.069 47.6425 286.101 35.4143C284.831 34.779 282.925 34.5408 282.211 35.8113C280.94 38.0346 278.637 39.2257 274.905 40.0991C273.873 40.3373 272.92 40.5755 272.444 41.5284L270.697 44.784Z" fill="white"/>
<path d="M247.59 37.32C247.432 37.0023 240.523 37.0818 239.968 46.6103C239.968 47.0073 240.126 47.4043 240.365 47.6425L243.779 51.1363C244.414 51.7715 245.447 51.6127 245.923 50.8981L252.275 40.7343C252.752 40.0197 252.355 38.9875 251.561 38.6698L247.59 37.32Z" fill="white"/>
<path d="M316.037 64.238C316.196 64.5556 323.183 64.4762 323.739 54.7889C323.739 54.5507 323.66 54.233 323.501 54.0742L319.61 50.104C319.213 49.707 318.498 49.707 318.101 50.2628L311.034 61.3C310.717 61.7764 310.955 62.4911 311.511 62.7293L316.037 64.238Z" fill="white"/>
<path d="M289.039 17.2307C289.039 17.1513 289.039 17.0719 289.039 16.9925C289.039 16.8337 288.96 16.5955 288.96 16.4367C290.866 16.8337 293.883 16.1984 293.883 16.1984C290.786 14.928 287.61 12.2282 287.61 12.2282C284.116 5.00245 275.938 7.861 270.141 7.7816C267.124 7.70219 264.424 7.861 261.565 10.8784C259.025 13.4987 260.692 16.6749 264.662 16.6749C266.25 16.6749 265.853 21.0421 266.33 22.4714C267.124 25.0123 268.871 26.2034 269.665 28.6649C270.459 30.9676 274.27 34.4614 276.573 34.5408C280.702 34.6996 282.369 33.1115 282.369 33.1115C282.369 33.1115 289.039 29.9354 289.198 20.6451C290.31 20.4863 293.248 18.7394 293.248 18.7394C291.501 18.8982 289.992 18.1041 289.039 17.2307Z" fill="url(#paint10_linear)"/>
<path d="M270.379 30.0148C270.459 30.0148 270.538 30.0148 270.618 30.0148C271.888 29.6972 272.841 28.1091 272.841 26.2828C272.841 24.2183 271.65 22.4714 270.141 22.4714C268.95 22.4714 267.918 23.5036 267.6 25.0123C267.124 24.2977 266.647 23.5036 266.33 22.4714C265.853 21.0421 266.25 16.6749 264.662 16.6749C263.551 16.6749 262.598 16.4367 261.883 15.9602C260.613 20.9627 261.168 26.521 262.677 32.3969C263.312 36.7641 269.03 39.0669 273.397 36.5259C274.429 35.8907 275.461 35.1761 276.414 34.4614C274.508 34.3026 271.729 32.0793 270.379 30.0148Z" fill="url(#paint11_linear)"/>
<path d="M264.027 32.4763C262.598 26.8386 262.042 21.4391 263.154 16.5161L261.883 16.0396C260.613 21.0421 261.168 26.6004 262.677 32.4763C263.154 35.8113 266.647 37.9552 270.141 37.6376C267.124 37.32 264.424 35.3349 264.027 32.4763Z" fill="#F8F8F9"/>
<path d="M270.697 44.784L267.68 47.0073L269.188 47.8807L274.826 44.3075L270.697 44.784Z" fill="#F8F8F9"/>
<path d="M263.789 60.3472L267.6 90.6796C267.6 90.6796 268.791 106.719 268.871 112.039C268.871 112.039 269.347 114.342 271.65 115.057C271.65 115.057 270.538 113.548 270.538 108.863C270.459 104.734 269.03 83.9302 267.045 69.3992C266.647 66.3025 265.139 63.2057 263.789 60.3472Z" fill="#F8F8F9"/>
<path opacity="0.25" d="M301.982 54.3919L301.109 49.8658L313.258 57.8856L311.67 60.2678L301.982 54.3919Z" fill="#3F3E5F"/>
</g>
<g clip-path="url(#clip3)">
<path d="M103.175 238.485C102.738 235.598 103.7 232.448 105.537 230.436C105.712 230.261 105.975 229.998 106.237 229.998C106.5 229.998 106.675 230.173 106.85 230.348C108.249 231.748 109.387 233.498 110.874 234.723C112.361 235.948 114.549 236.473 116.036 235.248C113.411 233.235 111.487 229.911 110.787 226.324C113.324 229.211 116.211 232.273 119.798 232.536C121.635 232.623 123.473 232.011 125.222 231.311C129.597 229.648 133.884 228.074 138.258 226.411C139.658 225.886 145.17 221.337 147.62 219.85C147.707 219.762 147.795 219.675 147.882 219.587C147.97 219.587 147.97 219.5 148.057 219.5C157.594 211.713 170.192 217.75 170.105 227.286C170.105 227.986 169.317 228.424 168.705 228.074L164.505 225.886C164.505 225.886 163.543 226.761 162.143 228.074C162.318 228.861 162.23 229.648 162.055 230.436C161.356 233.848 159.081 236.473 156.894 238.835C155.581 240.322 154.706 242.509 153.394 243.997C152.869 244.609 152.344 245.222 151.732 245.746L151.557 246.359C151.557 246.359 151.469 246.271 151.294 246.184C146.657 251.083 141.583 255.37 135.809 258.17C128.459 261.67 119.711 261.407 112.974 256.77C110.612 255.195 108.599 253.096 106.5 250.996C105.362 249.858 104.312 248.721 103.612 247.146C102.913 245.659 102.738 243.734 103.525 242.247C104.662 243.559 105.975 244.609 107.549 245.222C105.362 243.997 103.612 241.459 103.175 238.485Z" fill="url(#paint12_linear)"/>
<path d="M197.489 335.423C198.801 333.061 188.215 363.332 170.105 354.234C156.719 347.497 166.08 320.55 166.08 320.55L197.489 335.423Z" fill="#222147"/>
<path d="M170.892 314.601L203.176 331.136C207.638 333.411 209.562 338.748 207.55 343.385L185.415 394.041L179.816 391.942C184.803 371.207 187.69 355.108 195.914 346.097L161.531 323.35L170.892 314.601Z" fill="url(#paint13_linear)"/>
<path d="M145.257 329.649L176.579 373.919L205.538 413.201L210.35 409.964L181.828 358.258L155.669 310.751L145.257 329.649Z" fill="url(#paint14_linear)"/>
<path d="M179.029 303.927C179.029 303.84 179.029 303.84 179.029 303.752C179.029 303.752 177.629 289.404 167.48 292.641C164.855 293.516 156.456 294.391 154.531 296.578C150.244 301.215 143.245 299.553 141.496 311.626C140.708 317.138 142.195 326.324 144.12 328.862L163.28 357.558C163.28 357.558 174.392 332.361 203.788 331.049L182.091 312.588C179.641 310.401 178.416 307.077 179.029 303.927Z" fill="#3F3E5F"/>
<path d="M202.126 409.264L201.863 413.639C201.776 414.864 202.388 416.089 203.438 416.789L215.774 425.275C216.474 425.713 217.349 425.887 218.136 425.538L219.624 424.925C220.849 424.4 221.286 422.913 220.499 421.863L213.149 411.627L209.562 407.69L201.601 407.777L202.126 409.264Z" fill="#222147"/>
<path d="M179.641 388.879L177.804 392.117C177.454 392.816 177.279 393.604 177.279 394.304C177.629 398.328 178.853 411.364 179.466 411.714L180.953 412.327C182.178 412.852 183.578 412.064 183.753 410.752L185.765 398.328L186.028 393.079L180.866 388.092L179.641 388.879Z" fill="#222147"/>
<path d="M112.012 323.787C114.111 323.787 115.861 322.125 115.861 320.025C116.299 302.615 122.335 287.479 134.409 273.918C135.809 272.343 135.721 269.894 134.059 268.494C132.484 267.094 130.034 267.181 128.635 268.844C115.511 283.629 108.599 300.865 108.075 319.938C107.987 322.037 109.737 323.875 111.837 323.875C112.012 323.787 112.012 323.787 112.012 323.787Z" fill="url(#paint15_linear)"/>
<path d="M198.276 284.854C199.151 284.854 200.026 284.767 200.901 284.592C212.974 281.88 218.399 260.795 219.011 258.432C219.536 256.333 218.224 254.233 216.212 253.795C214.112 253.271 212.012 254.583 211.575 256.595C210.087 262.719 205.1 275.755 199.239 277.068C196.002 277.768 192.327 274.268 189.79 271.118C188.477 269.456 186.028 269.194 184.365 270.506C182.703 271.818 182.441 274.268 183.753 275.93C188.477 281.88 193.377 284.854 198.276 284.854Z" fill="url(#paint16_linear)"/>
<path d="M166.693 280.742C166.08 281.092 165.38 281.442 164.68 281.53C163.018 281.792 161.268 280.742 159.606 279.78C159.431 279.692 159.256 279.605 159.168 279.43C158.906 279.08 158.993 278.73 159.081 278.38C159.693 276.368 160.656 276.368 162.056 275.23C162.668 274.706 163.28 274.093 163.893 273.568C164.855 272.693 165.993 272.081 167.13 271.468C168.442 270.681 173.429 268.144 174.392 271.818C174.829 273.393 174.654 274.443 173.867 275.493C172.904 276.718 172.379 277.33 171.155 278.205C169.755 279.167 168.18 279.955 166.693 280.742Z" fill="#F9B384"/>
<path d="M159.693 277.243C160.218 275.93 160.393 275.143 161.093 273.918C161.706 273.043 162.493 272.343 163.543 271.906C165.468 271.118 168.705 270.069 169.842 270.768C171.242 271.731 169.842 273.306 168.967 274.356C167.217 276.368 164.33 277.68 161.968 278.555C161.531 278.73 161.268 278.643 161.006 278.38C160.918 278.555 161.793 278.03 161.706 278.205C161.181 279.605 159.168 278.555 159.693 277.243Z" fill="#F9B384"/>
<path d="M160.218 276.543L157.856 278.992L162.318 284.154L164.943 281.53L160.218 276.543Z" fill="#E2E2E7"/>
<path d="M141.583 314.601C142.633 328.687 151.644 330.086 160.743 324.837C169.842 319.588 174.917 307.602 174.917 297.103C174.917 297.103 169.842 281.53 160.743 286.779C151.644 292.028 140.446 298.24 141.583 314.601Z" fill="#3F3E5F"/>
<path d="M142.72 308.826C143.07 294.653 153.394 288.966 161.968 284.067C164.505 282.58 166.693 282.755 168.53 283.717C168.267 283.804 168.092 283.979 167.83 284.067C159.343 288.966 149.02 294.653 148.67 308.739V308.826C147.882 314.338 149.37 323.525 151.294 326.062L167.217 350.034C165.38 352.834 164.505 354.846 164.505 354.846L145.345 326.149C143.42 323.612 141.933 314.338 142.72 308.826Z" fill="#363558"/>
<path d="M161.618 247.846C161.618 247.846 169.23 255.72 162.668 261.32C156.019 266.919 144.82 254.408 144.82 254.408C150.682 250.733 156.369 248.196 161.618 247.846Z" fill="#FBCAA9"/>
<path d="M117.611 281.792C123.473 271.993 129.859 262.457 139.571 256.77C140.008 256.508 140.446 256.333 140.971 256.333C149.982 250.208 156.719 249.159 162.93 248.021C165.993 247.496 171.329 245.571 174.742 246.096C176.404 245.921 177.891 246.446 178.679 247.934C182.791 256.683 187.428 264.907 193.202 272.606C196.176 276.543 188.04 282.492 185.065 278.555C181.391 273.568 180.166 270.331 177.104 264.907C177.104 265.082 177.541 267.181 177.454 267.356L178.679 270.593C178.679 270.593 174.742 293.691 174.479 296.315C174.479 296.315 163.018 304.802 148.232 296.053L142.108 277.943L138.871 272.781C138.346 272.431 137.034 272.606 136.159 272.781C131.959 277.33 128.547 282.755 125.222 288.266C122.598 292.728 114.986 286.167 117.611 281.792Z" fill="url(#paint17_linear)"/>
<path d="M158.119 252.396L161.793 238.397L152.957 241.197L149.982 252.658C149.37 254.495 155.494 259.57 158.119 252.396Z" fill="url(#paint18_linear)"/>
<path d="M159.431 248.546C157.419 248.546 155.231 246.884 153.744 244.609C153.744 244.609 155.756 250.733 158.556 250.996L159.431 248.546Z" fill="url(#paint19_linear)"/>
<path d="M149.195 238.31C149.457 236.823 150.682 236.21 151.994 236.91L164.505 225.886L168.967 228.161L170.63 239.185C171.242 243.384 168.355 247.234 164.155 247.934L161.443 248.371C157.594 248.984 153.919 246.446 152.869 242.772C152.344 242.859 151.819 242.859 151.207 242.509C149.894 241.722 149.02 239.797 149.195 238.31Z" fill="url(#paint20_linear)"/>
<path d="M203.876 330.961C203.876 330.961 185.765 331.924 173.779 343.56C173.779 343.56 178.941 330.086 199.939 327.637L203.876 330.961Z" fill="#F8F8F9"/>
<path d="M160.218 247.146L162.93 246.709C167.13 246.096 170.017 242.159 169.405 237.96L167.83 227.461L168.967 228.249L170.63 239.36C171.242 243.559 168.355 247.409 164.155 248.109L161.443 248.546C158.643 248.984 155.931 247.759 154.269 245.659C155.931 246.884 158.031 247.496 160.218 247.146Z" fill="#F8F8F9"/>
<path d="M184.628 314.601L199.938 327.637L196.264 328.249L184.628 314.601Z" fill="#F8F8F9"/>
<path opacity="0.25" d="M163.893 280.392C163.893 280.392 155.406 286.692 149.195 280.392C142.983 274.093 138.958 272.781 138.958 272.781L142.195 277.943L148.32 296.053C148.32 296.053 151.032 297.628 152.607 298.24C152.607 298.24 146.045 286.517 147.707 283.979C149.37 281.18 154.269 291.154 163.893 280.392Z" fill="#3F3E5F"/>
<path opacity="0.25" d="M178.941 275.755C178.941 275.755 177.454 280.042 173.604 280.567C169.667 281.092 167.567 278.03 167.567 278.03C167.567 278.03 173.254 282.492 178.679 273.568L178.941 275.755Z" fill="#3F3E5F"/>
<path d="M173.167 256.77C173.517 255.895 174.304 256.158 174.742 256.945C176.491 260.707 179.903 268.406 180.166 271.293C180.428 275.143 176.054 280.392 175.704 294.741L174.567 296.14C174.567 296.14 173.779 282.93 177.804 274.618C177.804 274.618 179.553 269.369 173.429 257.733C173.079 257.208 173.167 256.77 173.167 256.77Z" fill="#F8F8F9"/>
</g>
<defs>
<linearGradient id="paint0_linear" x1="158.738" y1="165.165" x2="135.642" y2="125.162" gradientUnits="userSpaceOnUse">
<stop stop-color="#4FC1EC"/>
<stop offset="0.5345" stop-color="#9D4693"/>
<stop offset="1" stop-color="#F3E617"/>
</linearGradient>
<linearGradient id="paint1_linear" x1="189.482" y1="176.305" x2="169.659" y2="141.972" gradientUnits="userSpaceOnUse">
<stop stop-color="#4FC1EC"/>
<stop offset="0.5345" stop-color="#9D4693"/>
<stop offset="1" stop-color="#F3E617"/>
</linearGradient>
<linearGradient id="paint2_linear" x1="400.995" y1="302.397" x2="405.029" y2="302.397" gradientUnits="userSpaceOnUse">
<stop stop-color="#4FC1EC"/>
<stop offset="0.5345" stop-color="#9D4693"/>
<stop offset="1" stop-color="#F3E617"/>
</linearGradient>
<linearGradient id="paint3_linear" x1="414.387" y1="311.388" x2="437.083" y2="311.388" gradientUnits="userSpaceOnUse">
<stop stop-color="#4FC1EC"/>
<stop offset="0.5345" stop-color="#9D4693"/>
<stop offset="1" stop-color="#F3E617"/>
</linearGradient>
<linearGradient id="paint4_linear" x1="304.267" y1="190.777" x2="315.089" y2="190.777" gradientUnits="userSpaceOnUse">
<stop stop-color="#F4731C"/>
<stop offset="0.1239" stop-color="#F47825"/>
<stop offset="0.3242" stop-color="#F5873D"/>
<stop offset="0.5759" stop-color="#F79F64"/>
<stop offset="0.8663" stop-color="#FAC099"/>
<stop offset="1" stop-color="#FBD1B4"/>
</linearGradient>
<linearGradient id="paint5_linear" x1="338.212" y1="149.404" x2="350.622" y2="149.404" gradientUnits="userSpaceOnUse">
<stop stop-color="#F4731C"/>
<stop offset="0.1239" stop-color="#F47825"/>
<stop offset="0.3242" stop-color="#F5873D"/>
<stop offset="0.5759" stop-color="#F79F64"/>
<stop offset="0.8663" stop-color="#FAC099"/>
<stop offset="1" stop-color="#FBD1B4"/>
</linearGradient>
<linearGradient id="paint6_linear" x1="209" y1="33.4966" x2="286.145" y2="33.4966" gradientUnits="userSpaceOnUse">
<stop stop-color="#FBD1B4"/>
<stop offset="0.1275" stop-color="#FBCAA9"/>
<stop offset="0.3483" stop-color="#F9B98D"/>
<stop offset="0.636" stop-color="#F79D5F"/>
<stop offset="0.9763" stop-color="#F47621"/>
<stop offset="1" stop-color="#F4731C"/>
</linearGradient>
<linearGradient id="paint7_linear" x1="289.526" y1="65.1148" x2="338.299" y2="65.1148" gradientUnits="userSpaceOnUse">
<stop stop-color="#F4731C"/>
<stop offset="0.1239" stop-color="#F47825"/>
<stop offset="0.3242" stop-color="#F5873D"/>
<stop offset="0.5759" stop-color="#F79F64"/>
<stop offset="0.8663" stop-color="#FAC099"/>
<stop offset="1" stop-color="#FBD1B4"/>
</linearGradient>
<linearGradient id="paint8_linear" x1="272.281" y1="35.1521" x2="283.171" y2="35.1521" gradientUnits="userSpaceOnUse">
<stop stop-color="#FBD1B4"/>
<stop offset="0.1275" stop-color="#FBCAA9"/>
<stop offset="0.3483" stop-color="#F9B98D"/>
<stop offset="0.636" stop-color="#F79D5F"/>
<stop offset="0.9763" stop-color="#F47621"/>
<stop offset="1" stop-color="#F4731C"/>
</linearGradient>
<linearGradient id="paint9_linear" x1="241.18" y1="75.3131" x2="322.821" y2="75.3131" gradientUnits="userSpaceOnUse">
<stop stop-color="#B8B8C4"/>
<stop offset="0.4511" stop-color="#9D9CAD"/>
<stop offset="0.871" stop-color="#88879C"/>
</linearGradient>
<linearGradient id="paint10_linear" x1="260.364" y1="20.8903" x2="293.832" y2="20.8903" gradientUnits="userSpaceOnUse">
<stop stop-color="#414061"/>
<stop offset="0.0369616" stop-color="#3E3D5E"/>
<stop offset="0.2693" stop-color="#2E2D51"/>
<stop offset="0.5356" stop-color="#252449"/>
<stop offset="0.9086" stop-color="#222147"/>
</linearGradient>
<linearGradient id="paint11_linear" x1="261.205" y1="26.8271" x2="276.36" y2="26.8271" gradientUnits="userSpaceOnUse">
<stop stop-color="#FBD1B4"/>
<stop offset="0.1275" stop-color="#FBCAA9"/>
<stop offset="0.3483" stop-color="#F9B98D"/>
<stop offset="0.636" stop-color="#F79D5F"/>
<stop offset="0.9763" stop-color="#F47621"/>
<stop offset="1" stop-color="#F4731C"/>
</linearGradient>
<linearGradient id="paint12_linear" x1="170.083" y1="238.274" x2="103.036" y2="238.274" gradientUnits="userSpaceOnUse">
<stop stop-color="#434263"/>
<stop offset="0.9086" stop-color="#222147"/>
</linearGradient>
<linearGradient id="paint13_linear" x1="208.324" y1="354.304" x2="161.596" y2="354.304" gradientUnits="userSpaceOnUse">
<stop stop-color="#FBD1B4"/>
<stop offset="0.0241833" stop-color="#FBCEB0"/>
<stop offset="0.4978" stop-color="#F79D61"/>
<stop offset="0.8343" stop-color="#F57F2F"/>
<stop offset="1" stop-color="#F4731C"/>
</linearGradient>
<linearGradient id="paint14_linear" x1="210.313" y1="361.962" x2="145.237" y2="361.962" gradientUnits="userSpaceOnUse">
<stop stop-color="#FBD1B4"/>
<stop offset="0.1239" stop-color="#FBCCAB"/>
<stop offset="0.3242" stop-color="#F9BD93"/>
<stop offset="0.5759" stop-color="#F8A56C"/>
<stop offset="0.8663" stop-color="#F58437"/>
<stop offset="1" stop-color="#F4731C"/>
</linearGradient>
<linearGradient id="paint15_linear" x1="135.451" y1="295.653" x2="108.178" y2="295.653" gradientUnits="userSpaceOnUse">
<stop stop-color="#F4731C"/>
<stop offset="0.1337" stop-color="#F58437"/>
<stop offset="0.4241" stop-color="#F8A56C"/>
<stop offset="0.6758" stop-color="#F9BD93"/>
<stop offset="0.8761" stop-color="#FBCCAB"/>
<stop offset="1" stop-color="#FBD1B4"/>
</linearGradient>
<linearGradient id="paint16_linear" x1="219.118" y1="269.271" x2="182.912" y2="269.271" gradientUnits="userSpaceOnUse">
<stop stop-color="#FBD1B4"/>
<stop offset="0.2448" stop-color="#FBCFB1"/>
<stop offset="0.4061" stop-color="#FACAA8"/>
<stop offset="0.5434" stop-color="#FAC199"/>
<stop offset="0.6673" stop-color="#F9B384"/>
<stop offset="0.7821" stop-color="#F8A269"/>
<stop offset="0.8902" stop-color="#F68E47"/>
<stop offset="0.9913" stop-color="#F47520"/>
<stop offset="1" stop-color="#F4731C"/>
</linearGradient>
<linearGradient id="paint17_linear" x1="193.871" y1="272.955" x2="117.103" y2="272.955" gradientUnits="userSpaceOnUse">
<stop stop-color="#B8B8C4"/>
<stop offset="0.4511" stop-color="#9D9CAD"/>
<stop offset="0.871" stop-color="#88879C"/>
</linearGradient>
<linearGradient id="paint18_linear" x1="161.793" y1="247.263" x2="149.994" y2="247.263" gradientUnits="userSpaceOnUse">
<stop stop-color="#FBD1B4"/>
<stop offset="0.2448" stop-color="#FBCFB1"/>
<stop offset="0.4061" stop-color="#FACAA8"/>
<stop offset="0.5434" stop-color="#FAC199"/>
<stop offset="0.6673" stop-color="#F9B384"/>
<stop offset="0.7821" stop-color="#F8A269"/>
<stop offset="0.8902" stop-color="#F68E47"/>
<stop offset="0.9913" stop-color="#F47520"/>
<stop offset="1" stop-color="#F4731C"/>
</linearGradient>
<linearGradient id="paint19_linear" x1="159.449" y1="247.812" x2="153.752" y2="247.812" gradientUnits="userSpaceOnUse">
<stop offset="0.1505" stop-color="#F47621"/>
<stop offset="1" stop-color="#FBCAA9"/>
</linearGradient>
<linearGradient id="paint20_linear" x1="170.726" y1="237.149" x2="149.19" y2="237.149" gradientUnits="userSpaceOnUse">
<stop stop-color="#FBD1B4"/>
<stop offset="0.2448" stop-color="#FBCFB1"/>
<stop offset="0.4061" stop-color="#FACAA8"/>
<stop offset="0.5434" stop-color="#FAC199"/>
<stop offset="0.6673" stop-color="#F9B384"/>
<stop offset="0.7821" stop-color="#F8A269"/>
<stop offset="0.8902" stop-color="#F68E47"/>
<stop offset="0.9913" stop-color="#F47520"/>
<stop offset="1" stop-color="#F4731C"/>
</linearGradient>
<clipPath id="clip0">
<rect width="193.99" height="120" fill="white" transform="translate(0 66)"/>
</clipPath>
<clipPath id="clip1">
<rect width="176.08" height="97" fill="white" transform="translate(261 231)"/>
</clipPath>
<clipPath id="clip2">
<rect width="159.523" height="215.9" fill="white" transform="translate(209)"/>
</clipPath>
<clipPath id="clip3">
<rect width="117.848" height="209.8" fill="white" transform="matrix(-1 0 0 1 220.849 216)"/>
</clipPath>
</defs>
</svg>
