<svg width="438" height="378" viewBox="0 0 438 378" fill="none" xmlns="http://www.w3.org/2000/svg">
<g clip-path="url(#clip0)">
<path d="M161.424 40.3647L107.755 135.198" stroke="#222147" stroke-width="1.56318" stroke-miterlimit="10"/>
<path d="M136.413 99.1403C136.413 98.7234 136.778 98.3587 137.195 98.3587H150.221C157.725 98.3587 162.883 102.683 162.883 109.405C162.883 114.251 159.965 117.794 156.162 119.305C160.486 120.452 164.238 123.63 164.238 129.518C164.238 136.344 158.715 141.138 150.795 141.138H137.247C136.83 141.138 136.466 140.773 136.466 140.356V99.1403H136.413ZM151.055 138.584C156.995 138.584 161.164 134.781 161.164 129.466C161.164 124.047 156.526 120.764 150.69 120.764H139.279V138.532H151.055V138.584ZM150.69 118.159C156.422 118.159 159.809 114.564 159.809 109.561C159.809 104.247 156.162 101.068 150.274 101.068H139.331V118.159H150.69Z" fill="url(#paint0_linear)" stroke="#222147" stroke-width="1.04212" stroke-miterlimit="10"/>
<path d="M168.198 117.69C167.938 117.221 167.99 116.7 168.563 116.7H169.918C170.23 116.7 170.543 116.908 170.699 117.273L181.172 137.907H181.277L190.812 117.273C191.02 116.908 191.281 116.7 191.594 116.7H192.948C193.522 116.7 193.574 117.169 193.313 117.69L174.138 159.01C174.034 159.323 173.669 159.479 173.357 159.479H171.95C171.481 159.479 171.272 159.166 171.533 158.645L179.766 140.929L168.198 117.69Z" fill="url(#paint1_linear)" stroke="#222147" stroke-width="1.04212" stroke-miterlimit="10"/>
<path d="M66.852 66.8346L63.413 75.432H49.657V84.0295H62.5272L59.0882 92.627H49.657V101.224H66.852L63.413 109.874H49.657H41.0595V92.627V84.0816V66.8867H66.852V66.8346Z" fill="#222147"/>
<path d="M85.2454 85.0717C86.548 85.5406 88.007 86.2701 89.4659 87.2601C90.977 88.2501 92.2796 89.5528 93.4781 91.168C94.6765 92.7833 95.2497 94.8155 95.2497 97.2123C95.2497 100.86 93.947 103.986 91.3417 106.591C88.7365 109.197 85.6101 110.499 81.9627 110.499C78.3153 110.499 75.1889 109.197 72.5836 106.591C69.9783 103.986 68.6757 100.86 68.6757 97.2123H77.5337C77.5337 98.4108 77.9505 99.4529 78.8363 100.339C79.7221 101.225 80.7642 101.641 81.9627 101.641C83.2132 101.641 84.2553 101.225 85.089 100.339C85.9748 99.4529 86.3917 98.4108 86.3917 97.2123C86.3917 95.6492 85.7664 94.4507 84.4638 93.617C83.2132 92.7833 82.2232 92.3144 81.5458 92.106C81.2332 92.0017 80.3995 91.7412 78.9926 91.3244C77.5858 90.9075 76.1268 90.2301 74.6157 89.2922C73.1047 88.3543 71.6978 87.1038 70.4994 85.4885C69.2488 83.9253 68.6757 81.8932 68.6757 79.3921C68.6757 75.7447 69.9783 72.5662 72.5836 70.013C75.1889 67.4077 78.3153 66.1051 81.9627 66.1051C85.6101 66.1051 88.7365 67.4077 91.3417 70.013C93.947 72.6183 95.2497 75.7447 95.2497 79.3921H86.3917C86.3917 78.1416 85.9748 77.0994 85.089 76.2657C84.2032 75.3799 83.1611 74.9631 81.9627 74.9631C80.7642 74.9631 79.7221 75.3799 78.8363 76.2657C77.9505 77.1515 77.5337 78.1937 77.5337 79.3921C77.5337 81.2679 78.2632 82.4664 79.7742 83.0395C81.2853 83.6127 82.2753 83.9774 82.7964 84.1859C83.109 84.3422 83.8906 84.6548 85.2454 85.0717Z" fill="#222147"/>
<path d="M132.036 66.8346L128.597 75.432H117.812V109.874H109.214V75.432H98.4281L101.867 66.8346H132.036Z" fill="#222147"/>
<path d="M20.634 85.6448L0 66.8346V109.874H8.64959V86.3222L34.442 109.874V98.3066L20.634 85.6448Z" fill="#222147"/>
<path d="M34.442 90.3343V66.8346H25.7924V82.31L34.442 90.3343Z" fill="#222147"/>
</g>
<g clip-path="url(#clip1)">
<path d="M401.505 255.482C401.505 255.059 401.875 254.689 402.298 254.689H403.672C404.095 254.689 404.465 255.059 404.465 255.482V297.295C404.465 297.771 404.042 298.088 403.619 298.088H402.298C401.875 298.088 401.505 297.718 401.505 297.295V255.482Z" fill="#071170"/>
<path d="M403.619 298.617H402.298C401.558 298.617 400.976 297.983 400.976 297.295V255.482C400.976 254.742 401.61 254.161 402.298 254.161H403.672C404.412 254.161 404.994 254.795 404.994 255.482V297.295C405.046 298.141 404.306 298.617 403.619 298.617ZM402.35 255.218C402.192 255.218 402.086 255.377 402.086 255.482V297.295C402.086 297.454 402.245 297.56 402.35 297.56H403.672C403.831 297.56 403.989 297.454 403.989 297.295V255.482C403.989 255.324 403.831 255.218 403.725 255.218H402.35Z" fill="url(#paint2_linear)"/>
<path d="M414.931 274.089C414.931 273.666 415.301 273.296 415.777 273.296H416.411C416.834 273.296 417.099 273.561 417.152 273.931L417.416 276.574C418.209 275.728 421.645 272.662 426.614 272.662C433.538 272.662 436.604 277.05 436.604 284.027V297.295C436.604 297.718 436.234 298.088 435.812 298.088H434.701C434.279 298.088 433.909 297.718 433.909 297.295V284.027C433.909 278.318 431.265 275.358 426.508 275.358C421.433 275.358 417.892 279.323 417.627 279.64V297.295C417.627 297.771 417.363 298.088 416.834 298.088H415.671C415.249 298.088 414.984 297.718 414.984 297.295V274.089H414.931Z" fill="#071170"/>
<path d="M435.759 298.617H434.649C433.908 298.617 433.327 297.983 433.327 297.295V284.027C433.327 278.688 430.948 275.887 426.455 275.887C422.015 275.887 418.737 279.164 418.103 279.851V297.348C418.103 298.194 417.574 298.67 416.782 298.67H415.619C414.931 298.67 414.403 298.088 414.403 297.348V274.142C414.403 273.402 415.037 272.821 415.777 272.821H416.411C417.099 272.821 417.574 273.244 417.68 273.878L417.839 275.517C419.266 274.301 422.332 272.186 426.614 272.186C433.486 272.186 437.133 276.31 437.133 284.08V297.348C437.08 298.035 436.446 298.617 435.759 298.617ZM426.455 274.829C431.53 274.829 434.384 278.107 434.384 284.027V297.295C434.384 297.454 434.543 297.56 434.649 297.56H435.759C435.917 297.56 436.023 297.401 436.023 297.295V284.027C436.023 276.838 432.851 273.191 426.561 273.191C421.328 273.191 417.892 276.785 417.786 276.944L416.993 277.79L416.623 273.931C416.623 273.825 416.57 273.772 416.411 273.772H415.777C415.566 273.772 415.46 273.931 415.46 274.037V297.243C415.46 297.295 415.46 297.507 415.619 297.507H416.782C416.993 297.507 417.046 297.454 417.046 297.243V279.375L417.152 279.217C417.204 279.27 420.905 274.829 426.455 274.829Z" fill="url(#paint3_linear)"/>
<path d="M424.041 205.01L369.581 301.195L370.961 301.977L425.421 205.791L424.041 205.01Z" fill="#222147"/>
<path d="M328.821 232.223L325.332 240.945H311.377V249.668H324.433L320.944 258.39H311.377V267.112H328.821L325.332 275.887H311.377H302.654V258.39V249.72V232.276H328.821V232.223Z" fill="#222147"/>
<path d="M347.481 250.725C348.802 251.201 350.282 251.941 351.762 252.945C353.295 253.949 354.617 255.271 355.833 256.91C357.049 258.548 357.63 260.61 357.63 263.041C357.63 266.742 356.308 269.913 353.665 272.556C351.022 275.199 347.851 276.521 344.15 276.521C340.45 276.521 337.279 275.199 334.635 272.556C331.992 269.913 330.671 266.742 330.671 263.041H339.657C339.657 264.257 340.08 265.314 340.979 266.213C341.877 267.112 342.935 267.535 344.15 267.535C345.419 267.535 346.476 267.112 347.322 266.213C348.221 265.314 348.644 264.257 348.644 263.041C348.644 261.456 348.009 260.24 346.688 259.394C345.419 258.548 344.415 258.072 343.728 257.861C343.41 257.755 342.565 257.491 341.137 257.068C339.71 256.645 338.23 255.958 336.697 255.007C335.164 254.055 333.737 252.786 332.521 251.148C331.252 249.562 330.671 247.5 330.671 244.963C330.671 241.263 331.992 238.038 334.635 235.448C337.279 232.805 340.45 231.483 344.15 231.483C347.851 231.483 351.022 232.805 353.665 235.448C356.308 238.091 357.63 241.263 357.63 244.963H348.644C348.644 243.694 348.221 242.637 347.322 241.791C346.423 240.893 345.366 240.47 344.15 240.47C342.935 240.47 341.877 240.893 340.979 241.791C340.08 242.69 339.657 243.747 339.657 244.963C339.657 246.866 340.397 248.082 341.93 248.663C343.463 249.245 344.468 249.615 344.996 249.826C345.313 249.985 346.106 250.302 347.481 250.725Z" fill="#222147"/>
<path d="M394.95 232.223L391.461 240.945H380.519V275.887H371.797V240.945H360.854L364.343 232.223H394.95Z" fill="#222147"/>
<path d="M281.933 251.306L261 232.223V275.887H269.775V251.993L295.941 275.887V264.151L281.933 251.306Z" fill="#222147"/>
<path d="M295.941 256.064V232.223H287.166V247.923L295.941 256.064Z" fill="#222147"/>
</g>
<g clip-path="url(#clip2)">
<path d="M108.175 190.485C107.738 187.598 108.7 184.448 110.537 182.436C110.712 182.261 110.975 181.998 111.237 181.998C111.5 181.998 111.675 182.173 111.85 182.348C113.249 183.748 114.387 185.498 115.874 186.723C117.361 187.948 119.549 188.473 121.036 187.248C118.411 185.235 116.487 181.911 115.787 178.324C118.324 181.211 121.211 184.273 124.798 184.536C126.635 184.623 128.473 184.011 130.222 183.311C134.597 181.648 138.884 180.074 143.258 178.411C144.658 177.886 150.17 173.337 152.62 171.85C152.707 171.762 152.795 171.675 152.882 171.587C152.97 171.587 152.97 171.5 153.057 171.5C162.594 163.713 175.192 169.75 175.105 179.286C175.105 179.986 174.317 180.424 173.705 180.074L169.505 177.886C169.505 177.886 168.543 178.761 167.143 180.074C167.318 180.861 167.231 181.648 167.056 182.436C166.356 185.848 164.081 188.473 161.894 190.835C160.581 192.322 159.706 194.509 158.394 195.997C157.869 196.609 157.344 197.222 156.732 197.746L156.557 198.359C156.557 198.359 156.469 198.271 156.294 198.184C151.657 203.083 146.583 207.37 140.809 210.17C133.46 213.67 124.711 213.407 117.974 208.77C115.612 207.195 113.599 205.096 111.5 202.996C110.362 201.858 109.312 200.721 108.613 199.146C107.913 197.659 107.738 195.734 108.525 194.247C109.662 195.559 110.975 196.609 112.55 197.222C110.362 195.997 108.613 193.459 108.175 190.485Z" fill="url(#paint4_linear)"/>
<path d="M202.489 287.423C203.801 285.061 193.215 315.332 175.105 306.234C161.719 299.497 171.08 272.55 171.08 272.55L202.489 287.423Z" fill="#222147"/>
<path d="M175.892 266.601L208.176 283.136C212.638 285.411 214.562 290.748 212.55 295.385L190.415 346.041L184.816 343.942C189.803 323.207 192.69 307.108 200.914 298.097L166.531 275.35L175.892 266.601Z" fill="url(#paint5_linear)"/>
<path d="M150.258 281.649L181.579 325.919L210.538 365.201L215.35 361.964L186.828 310.258L160.669 262.751L150.258 281.649Z" fill="url(#paint6_linear)"/>
<path d="M184.029 255.927C184.029 255.84 184.029 255.84 184.029 255.752C184.029 255.752 182.629 241.404 172.48 244.641C169.855 245.516 161.456 246.391 159.531 248.578C155.244 253.215 148.245 251.553 146.495 263.626C145.708 269.138 147.195 278.324 149.12 280.862L168.28 309.558C168.28 309.558 179.392 284.361 208.788 283.049L187.091 264.588C184.641 262.401 183.416 259.077 184.029 255.927Z" fill="#3F3E5F"/>
<path d="M207.126 361.264L206.863 365.639C206.776 366.864 207.388 368.089 208.438 368.789L220.774 377.275C221.474 377.713 222.349 377.887 223.136 377.538L224.624 376.925C225.849 376.4 226.286 374.913 225.499 373.863L218.149 363.627L214.562 359.69L206.601 359.777L207.126 361.264Z" fill="#222147"/>
<path d="M184.641 340.879L182.804 344.117C182.454 344.816 182.279 345.604 182.279 346.304C182.629 350.328 183.854 363.364 184.466 363.714L185.953 364.327C187.178 364.852 188.578 364.064 188.753 362.752L190.765 350.328L191.028 345.079L185.866 340.092L184.641 340.879Z" fill="#222147"/>
<path d="M117.012 275.787C119.111 275.787 120.861 274.125 120.861 272.025C121.299 254.615 127.335 239.479 139.409 225.918C140.809 224.343 140.721 221.894 139.059 220.494C137.484 219.094 135.034 219.181 133.635 220.844C120.511 235.629 113.599 252.865 113.075 271.938C112.987 274.037 114.737 275.875 116.837 275.875C117.012 275.787 117.012 275.787 117.012 275.787Z" fill="url(#paint7_linear)"/>
<path d="M203.276 236.854C204.151 236.854 205.026 236.767 205.901 236.592C217.974 233.88 223.399 212.795 224.011 210.432C224.536 208.333 223.224 206.233 221.212 205.795C219.112 205.271 217.012 206.583 216.575 208.595C215.087 214.719 210.1 227.755 204.239 229.068C201.001 229.768 197.327 226.268 194.79 223.118C193.477 221.456 191.028 221.194 189.365 222.506C187.703 223.818 187.441 226.268 188.753 227.93C193.477 233.88 198.377 236.854 203.276 236.854Z" fill="url(#paint8_linear)"/>
<path d="M171.693 232.742C171.08 233.092 170.38 233.442 169.68 233.53C168.018 233.792 166.268 232.742 164.606 231.78C164.431 231.692 164.256 231.605 164.168 231.43C163.906 231.08 163.993 230.73 164.081 230.38C164.693 228.368 165.656 228.368 167.056 227.23C167.668 226.706 168.28 226.093 168.893 225.568C169.855 224.693 170.993 224.081 172.13 223.468C173.442 222.681 178.429 220.144 179.392 223.818C179.829 225.393 179.654 226.443 178.867 227.493C177.904 228.718 177.379 229.33 176.154 230.205C174.755 231.167 173.18 231.955 171.693 232.742Z" fill="#F9B384"/>
<path d="M164.693 229.243C165.218 227.93 165.393 227.143 166.093 225.918C166.706 225.043 167.493 224.343 168.543 223.906C170.468 223.118 173.705 222.069 174.842 222.768C176.242 223.731 174.842 225.306 173.967 226.356C172.217 228.368 169.33 229.68 166.968 230.555C166.531 230.73 166.268 230.643 166.006 230.38C165.918 230.555 166.793 230.03 166.706 230.205C166.181 231.605 164.168 230.555 164.693 229.243Z" fill="#F9B384"/>
<path d="M165.218 228.543L162.856 230.992L167.318 236.154L169.943 233.53L165.218 228.543Z" fill="#E2E2E7"/>
<path d="M146.583 266.601C147.633 280.687 156.644 282.086 165.743 276.837C174.842 271.588 179.917 259.602 179.917 249.103C179.917 249.103 174.842 233.53 165.743 238.779C156.644 244.028 145.446 250.24 146.583 266.601Z" fill="#3F3E5F"/>
<path d="M147.72 260.826C148.07 246.653 158.394 240.966 166.968 236.067C169.505 234.58 171.692 234.755 173.53 235.717C173.267 235.804 173.092 235.979 172.83 236.067C164.343 240.966 154.02 246.653 153.67 260.739V260.826C152.882 266.338 154.37 275.525 156.294 278.062L172.217 302.034C170.38 304.834 169.505 306.846 169.505 306.846L150.345 278.149C148.42 275.612 146.933 266.338 147.72 260.826Z" fill="#363558"/>
<path d="M166.618 199.846C166.618 199.846 174.23 207.72 167.668 213.32C161.019 218.919 149.82 206.408 149.82 206.408C155.682 202.733 161.369 200.196 166.618 199.846Z" fill="#FBCAA9"/>
<path d="M122.611 233.792C128.473 223.993 134.859 214.457 144.571 208.77C145.008 208.508 145.446 208.333 145.971 208.333C154.982 202.208 161.719 201.159 167.93 200.021C170.993 199.496 176.329 197.571 179.742 198.096C181.404 197.921 182.891 198.446 183.679 199.934C187.791 208.683 192.428 216.907 198.202 224.606C201.176 228.543 193.04 234.492 190.065 230.555C186.391 225.568 185.166 222.331 182.104 216.907C182.104 217.082 182.541 219.181 182.454 219.356L183.679 222.593C183.679 222.593 179.742 245.691 179.479 248.315C179.479 248.315 168.018 256.802 153.232 248.053L147.108 229.943L143.871 224.781C143.346 224.431 142.034 224.606 141.159 224.781C136.959 229.33 133.547 234.755 130.222 240.266C127.598 244.728 119.986 238.167 122.611 233.792Z" fill="url(#paint9_linear)"/>
<path d="M163.119 204.396L166.793 190.397L157.957 193.197L154.982 204.658C154.37 206.495 160.494 211.57 163.119 204.396Z" fill="url(#paint10_linear)"/>
<path d="M164.431 200.546C162.419 200.546 160.231 198.884 158.744 196.609C158.744 196.609 160.756 202.733 163.556 202.996L164.431 200.546Z" fill="url(#paint11_linear)"/>
<path d="M154.195 190.31C154.457 188.823 155.682 188.21 156.994 188.91L169.505 177.886L173.967 180.161L175.63 191.185C176.242 195.384 173.355 199.234 169.155 199.934L166.443 200.371C162.594 200.984 158.919 198.446 157.869 194.772C157.344 194.859 156.819 194.859 156.207 194.509C154.894 193.722 154.02 191.797 154.195 190.31Z" fill="url(#paint12_linear)"/>
<path d="M208.876 282.961C208.876 282.961 190.765 283.924 178.779 295.56C178.779 295.56 183.941 282.086 204.939 279.637L208.876 282.961Z" fill="#F8F8F9"/>
<path d="M165.218 199.146L167.93 198.709C172.13 198.096 175.017 194.159 174.405 189.96L172.83 179.461L173.967 180.249L175.63 191.36C176.242 195.559 173.355 199.409 169.155 200.109L166.443 200.546C163.643 200.984 160.931 199.759 159.269 197.659C160.931 198.884 163.031 199.496 165.218 199.146Z" fill="#F8F8F9"/>
<path d="M189.628 266.601L204.939 279.637L201.264 280.249L189.628 266.601Z" fill="#F8F8F9"/>
<path opacity="0.25" d="M168.893 232.392C168.893 232.392 160.406 238.692 154.195 232.392C147.983 226.093 143.958 224.781 143.958 224.781L147.195 229.943L153.32 248.053C153.32 248.053 156.032 249.628 157.607 250.24C157.607 250.24 151.045 238.517 152.707 235.979C154.37 233.18 159.269 243.154 168.893 232.392Z" fill="#3F3E5F"/>
<path opacity="0.25" d="M183.941 227.755C183.941 227.755 182.454 232.042 178.604 232.567C174.667 233.092 172.567 230.03 172.567 230.03C172.567 230.03 178.254 234.492 183.679 225.568L183.941 227.755Z" fill="#3F3E5F"/>
<path d="M178.167 208.77C178.517 207.895 179.304 208.158 179.742 208.945C181.491 212.707 184.903 220.406 185.166 223.293C185.428 227.143 181.054 232.392 180.704 246.741L179.567 248.14C179.567 248.14 178.779 234.93 182.804 226.618C182.804 226.618 184.553 221.369 178.429 209.733C178.079 209.208 178.167 208.77 178.167 208.77Z" fill="#F8F8F9"/>
</g>
<g clip-path="url(#clip3)">
<path d="M284.084 194.223L280.352 185.171C276.461 184.059 273.603 183.9 273.206 188.109L277.017 197.081L284.084 194.223Z" fill="url(#paint13_linear)"/>
<path d="M275.747 207.88L275.826 193.984C276.858 191.285 278.843 189.697 282.178 189.458C283.846 189.617 285.037 189.855 287.26 191.682C289.086 193.27 288.689 197.24 288.213 199.384L284.799 208.992C282.575 216.059 279.876 216.059 277.573 215.821C274.953 215.344 274.873 212.247 275.747 207.88Z" fill="#222147"/>
<path d="M256.213 107.434C256.213 121.568 259.389 143.086 266.059 155.235C270.744 163.89 278.367 175.563 282.893 184.694C283.29 185.409 282.972 186.362 282.178 186.679L274.556 189.935C273.841 190.252 273.047 189.935 272.729 189.22C268.124 179.85 261.136 168.257 256.293 159.285C249.384 146.58 243.111 132.843 241.047 118.471C240.094 111.801 250.417 109.578 251.369 116.327L256.213 107.434Z" fill="#242349"/>
<path d="M282.734 184.694C278.208 175.563 270.585 163.89 265.9 155.235C259.23 143.086 256.054 121.568 256.054 107.434L251.846 115.136C252.719 128.555 255.896 145.151 261.374 155.315C266.059 163.97 273.682 175.642 278.208 184.774C278.605 185.488 281.94 186.759 281.94 186.759C282.814 186.362 283.131 185.409 282.734 184.694Z" fill="#222147"/>
<path d="M251.052 147.057C246.446 137.369 243.508 128 242 117.518C241.761 115.851 242.238 114.501 243.032 113.469C243.111 112.913 243.27 112.436 243.429 111.96C241.523 112.913 240.094 114.898 240.491 117.518C242.556 131.97 248.828 145.627 255.737 158.332C255.737 158.332 252.719 150.63 251.052 147.057Z" fill="#F8F8F9"/>
<path d="M318.784 144.992L309.096 146.183C306.952 149.677 306.079 152.377 310.049 153.806L319.657 152.535L318.784 144.992Z" fill="url(#paint14_linear)"/>
<path d="M293.771 157.3C286.625 157.3 279.32 155.156 273.444 147.295C262.248 132.287 255.101 108.784 255.101 107.593L272.332 104.019C272.332 104.258 272.253 129.032 281.464 141.26C287.022 148.645 294.406 147.851 305.126 145.707C307.985 145.151 310.684 144.595 313.225 144.357C313.861 144.277 314.416 144.833 314.496 145.468L314.893 153.171C314.893 153.806 314.496 154.362 313.861 154.362C311.875 154.6 309.493 154.997 307.111 155.473C303.062 156.426 298.456 157.3 293.771 157.3Z" fill="#222147"/>
<path d="M250.973 67.0171C250.576 67.0171 250.178 66.9377 249.861 66.8583C202.377 53.3596 179.429 7.9404 178.477 6.0347C177.444 3.97019 178.238 1.42925 180.303 0.396998C182.367 -0.555852 184.908 0.23819 185.94 2.3027C186.179 2.93793 208.412 46.372 252.084 58.7591C254.308 59.3943 255.578 61.697 254.943 63.9204C254.466 65.8261 252.799 67.0171 250.973 67.0171Z" fill="url(#paint15_linear)"/>
<path d="M329.503 159.523L318.625 152.615C317.037 150.312 316.56 147.771 317.434 144.992C319.419 144.357 319.419 144.357 321.801 143.404C323.786 142.61 326.803 144.674 328.233 146.024L334.267 152.853C338.793 157.697 337.682 159.761 336.491 161.429C334.982 163.334 332.521 162.064 329.503 159.523Z" fill="#222147"/>
<path d="M263.28 37.6376C274.555 41.9254 284.481 50.6599 293.374 58.6003C295.28 60.2678 296.312 61.3794 297.265 63.7616C300.203 71.702 304.094 80.1982 307.111 88.218C308.54 92.0294 302.903 94.888 301.315 90.759C297.98 81.8657 294.883 76.7838 291.707 69.0022C291.151 67.573 289.96 64.635 289.404 64.1586C280.828 56.5358 271.379 48.0395 260.501 43.8311C256.451 42.3224 259.23 36.1289 263.28 37.6376Z" fill="url(#paint16_linear)"/>
<path d="M264.153 83.692C264.392 86.2329 266.377 89.1709 268.68 90.2031C270.982 91.3148 272.65 90.1237 272.491 87.5828C272.253 85.0419 270.268 82.1039 267.965 81.0717C265.662 80.0394 263.915 81.2305 264.153 83.692Z" fill="white"/>
<path d="M265.742 116.168C264.868 117.359 268.6 111.722 267.409 112.516C264.948 114.263 251.131 125.459 248.114 125.697C244.461 126.094 246.288 122.362 243.35 120.139C240.57 117.995 239.618 114.263 239.141 110.848C238.982 109.895 238.824 108.863 239.141 107.99C239.459 107.037 240.253 106.243 241.047 105.528C247.161 100.049 258.913 86.8682 268.283 90.0443C279.161 93.6969 269.95 110.531 265.742 116.168Z" fill="#242349"/>
<path d="M252.084 38.5904L248.352 26.521L241.285 32.1587L244.461 43.1165C244.858 44.9428 252.957 42.7194 252.084 38.5904Z" fill="url(#paint17_linear)"/>
<path d="M289.086 53.2802C282.416 48.5159 272.491 40.0991 265.424 36.4465C260.501 32.8733 253.355 34.9378 248.034 38.8286C244.382 41.449 239.935 44.7045 236.6 47.0073L218.178 38.8286C213.732 35.6525 206.824 44.3869 211.985 48.5953L231.677 59.7913C232.074 60.0296 232.392 60.1884 232.789 60.3472C232.868 60.903 233.027 61.4588 233.106 61.9352C234.774 77.8955 238.188 92.2677 237.871 112.039L237.95 111.96C238.03 113.072 238.903 114.263 240.57 115.057C243.588 116.486 247.955 116.327 250.337 114.66C256.292 111.96 262.01 109.022 266.456 105.449C268.997 103.543 271.141 101.399 272.729 98.9376C273.682 98.223 274.158 97.4289 274.158 96.5555C275.746 95.7614 273.603 73.3695 270.744 54.3919L282.019 61.2206C283.846 62.4911 287.022 64.1586 287.975 63.1263L291.072 58.1238C292.501 56.9328 291.389 54.5507 289.086 53.2802Z" fill="url(#paint18_linear)"/>
<path d="M239.697 44.784C248.034 42.8783 254.069 47.6425 255.101 35.4143C253.831 34.779 251.925 34.5408 251.211 35.8113C249.94 38.0346 247.637 39.2257 243.905 40.0991C242.873 40.3373 241.92 40.5755 241.444 41.5284L239.697 44.784Z" fill="white"/>
<path d="M216.59 37.32C216.432 37.0023 209.523 37.0818 208.968 46.6103C208.968 47.0073 209.126 47.4043 209.365 47.6425L212.779 51.1363C213.414 51.7715 214.446 51.6127 214.923 50.8981L221.275 40.7343C221.752 40.0197 221.355 38.9875 220.561 38.6698L216.59 37.32Z" fill="white"/>
<path d="M285.037 64.238C285.196 64.5556 292.183 64.4762 292.739 54.7889C292.739 54.5507 292.66 54.233 292.501 54.0742L288.61 50.104C288.213 49.707 287.498 49.707 287.101 50.2628L280.034 61.3C279.717 61.7764 279.955 62.4911 280.511 62.7293L285.037 64.238Z" fill="white"/>
<path d="M258.039 17.2307C258.039 17.1513 258.039 17.0719 258.039 16.9925C258.039 16.8337 257.96 16.5955 257.96 16.4367C259.866 16.8337 262.883 16.1984 262.883 16.1984C259.786 14.928 256.61 12.2282 256.61 12.2282C253.116 5.00245 244.938 7.861 239.141 7.7816C236.124 7.70219 233.424 7.861 230.566 10.8784C228.025 13.4987 229.692 16.6749 233.662 16.6749C235.25 16.6749 234.853 21.0421 235.33 22.4714C236.124 25.0123 237.871 26.2034 238.665 28.6649C239.459 30.9676 243.27 34.4614 245.573 34.5408C249.702 34.6996 251.369 33.1115 251.369 33.1115C251.369 33.1115 258.039 29.9354 258.198 20.6451C259.31 20.4863 262.248 18.7394 262.248 18.7394C260.501 18.8982 258.992 18.1041 258.039 17.2307Z" fill="url(#paint19_linear)"/>
<path d="M239.379 30.0148C239.459 30.0148 239.538 30.0148 239.618 30.0148C240.888 29.6972 241.841 28.1091 241.841 26.2828C241.841 24.2183 240.65 22.4714 239.141 22.4714C237.95 22.4714 236.918 23.5036 236.6 25.0123C236.124 24.2977 235.647 23.5036 235.33 22.4714C234.853 21.0421 235.25 16.6749 233.662 16.6749C232.551 16.6749 231.598 16.4367 230.883 15.9602C229.613 20.9627 230.168 26.521 231.677 32.3969C232.312 36.7641 238.03 39.0669 242.397 36.5259C243.429 35.8907 244.461 35.1761 245.414 34.4614C243.508 34.3026 240.729 32.0793 239.379 30.0148Z" fill="url(#paint20_linear)"/>
<path d="M233.027 32.4763C231.598 26.8386 231.042 21.4391 232.154 16.5161L230.883 16.0396C229.613 21.0421 230.168 26.6004 231.677 32.4763C232.154 35.8113 235.647 37.9552 239.141 37.6376C236.124 37.32 233.424 35.3349 233.027 32.4763Z" fill="#F8F8F9"/>
<path d="M239.697 44.784L236.68 47.0073L238.188 47.8807L243.826 44.3075L239.697 44.784Z" fill="#F8F8F9"/>
<path d="M232.789 60.3472L236.6 90.6796C236.6 90.6796 237.791 106.719 237.871 112.039C237.871 112.039 238.347 114.342 240.65 115.057C240.65 115.057 239.538 113.548 239.538 108.863C239.459 104.734 238.03 83.9302 236.044 69.3992C235.647 66.3025 234.139 63.2057 232.789 60.3472Z" fill="#F8F8F9"/>
<path opacity="0.25" d="M270.982 54.3919L270.109 49.8658L282.258 57.8856L280.67 60.2678L270.982 54.3919Z" fill="#3F3E5F"/>
</g>
<defs>
<linearGradient id="paint0_linear" x1="158.738" y1="139.165" x2="135.642" y2="99.1622" gradientUnits="userSpaceOnUse">
<stop stop-color="#4FC1EC"/>
<stop offset="0.5345" stop-color="#9D4693"/>
<stop offset="1" stop-color="#F3E617"/>
</linearGradient>
<linearGradient id="paint1_linear" x1="189.482" y1="150.305" x2="169.66" y2="115.972" gradientUnits="userSpaceOnUse">
<stop stop-color="#4FC1EC"/>
<stop offset="0.5345" stop-color="#9D4693"/>
<stop offset="1" stop-color="#F3E617"/>
</linearGradient>
<linearGradient id="paint2_linear" x1="400.995" y1="276.397" x2="405.029" y2="276.397" gradientUnits="userSpaceOnUse">
<stop stop-color="#4FC1EC"/>
<stop offset="0.5345" stop-color="#9D4693"/>
<stop offset="1" stop-color="#F3E617"/>
</linearGradient>
<linearGradient id="paint3_linear" x1="414.387" y1="285.388" x2="437.083" y2="285.388" gradientUnits="userSpaceOnUse">
<stop stop-color="#4FC1EC"/>
<stop offset="0.5345" stop-color="#9D4693"/>
<stop offset="1" stop-color="#F3E617"/>
</linearGradient>
<linearGradient id="paint4_linear" x1="175.083" y1="190.274" x2="108.036" y2="190.274" gradientUnits="userSpaceOnUse">
<stop stop-color="#434263"/>
<stop offset="0.9086" stop-color="#222147"/>
</linearGradient>
<linearGradient id="paint5_linear" x1="213.324" y1="306.304" x2="166.596" y2="306.304" gradientUnits="userSpaceOnUse">
<stop stop-color="#FBD1B4"/>
<stop offset="0.0241833" stop-color="#FBCEB0"/>
<stop offset="0.4978" stop-color="#F79D61"/>
<stop offset="0.8343" stop-color="#F57F2F"/>
<stop offset="1" stop-color="#F4731C"/>
</linearGradient>
<linearGradient id="paint6_linear" x1="215.313" y1="313.962" x2="150.237" y2="313.962" gradientUnits="userSpaceOnUse">
<stop stop-color="#FBD1B4"/>
<stop offset="0.1239" stop-color="#FBCCAB"/>
<stop offset="0.3242" stop-color="#F9BD93"/>
<stop offset="0.5759" stop-color="#F8A56C"/>
<stop offset="0.8663" stop-color="#F58437"/>
<stop offset="1" stop-color="#F4731C"/>
</linearGradient>
<linearGradient id="paint7_linear" x1="140.451" y1="247.653" x2="113.178" y2="247.653" gradientUnits="userSpaceOnUse">
<stop stop-color="#F4731C"/>
<stop offset="0.1337" stop-color="#F58437"/>
<stop offset="0.4241" stop-color="#F8A56C"/>
<stop offset="0.6758" stop-color="#F9BD93"/>
<stop offset="0.8761" stop-color="#FBCCAB"/>
<stop offset="1" stop-color="#FBD1B4"/>
</linearGradient>
<linearGradient id="paint8_linear" x1="224.118" y1="221.271" x2="187.912" y2="221.271" gradientUnits="userSpaceOnUse">
<stop stop-color="#FBD1B4"/>
<stop offset="0.2448" stop-color="#FBCFB1"/>
<stop offset="0.4061" stop-color="#FACAA8"/>
<stop offset="0.5434" stop-color="#FAC199"/>
<stop offset="0.6673" stop-color="#F9B384"/>
<stop offset="0.7821" stop-color="#F8A269"/>
<stop offset="0.8902" stop-color="#F68E47"/>
<stop offset="0.9913" stop-color="#F47520"/>
<stop offset="1" stop-color="#F4731C"/>
</linearGradient>
<linearGradient id="paint9_linear" x1="198.871" y1="224.955" x2="122.103" y2="224.955" gradientUnits="userSpaceOnUse">
<stop stop-color="#B8B8C4"/>
<stop offset="0.4511" stop-color="#9D9CAD"/>
<stop offset="0.871" stop-color="#88879C"/>
</linearGradient>
<linearGradient id="paint10_linear" x1="166.793" y1="199.263" x2="154.994" y2="199.263" gradientUnits="userSpaceOnUse">
<stop stop-color="#FBD1B4"/>
<stop offset="0.2448" stop-color="#FBCFB1"/>
<stop offset="0.4061" stop-color="#FACAA8"/>
<stop offset="0.5434" stop-color="#FAC199"/>
<stop offset="0.6673" stop-color="#F9B384"/>
<stop offset="0.7821" stop-color="#F8A269"/>
<stop offset="0.8902" stop-color="#F68E47"/>
<stop offset="0.9913" stop-color="#F47520"/>
<stop offset="1" stop-color="#F4731C"/>
</linearGradient>
<linearGradient id="paint11_linear" x1="164.449" y1="199.812" x2="158.752" y2="199.812" gradientUnits="userSpaceOnUse">
<stop offset="0.1505" stop-color="#F47621"/>
<stop offset="1" stop-color="#FBCAA9"/>
</linearGradient>
<linearGradient id="paint12_linear" x1="175.726" y1="189.149" x2="154.19" y2="189.149" gradientUnits="userSpaceOnUse">
<stop stop-color="#FBD1B4"/>
<stop offset="0.2448" stop-color="#FBCFB1"/>
<stop offset="0.4061" stop-color="#FACAA8"/>
<stop offset="0.5434" stop-color="#FAC199"/>
<stop offset="0.6673" stop-color="#F9B384"/>
<stop offset="0.7821" stop-color="#F8A269"/>
<stop offset="0.8902" stop-color="#F68E47"/>
<stop offset="0.9913" stop-color="#F47520"/>
<stop offset="1" stop-color="#F4731C"/>
</linearGradient>
<linearGradient id="paint13_linear" x1="273.267" y1="190.777" x2="284.089" y2="190.777" gradientUnits="userSpaceOnUse">
<stop stop-color="#F4731C"/>
<stop offset="0.1239" stop-color="#F47825"/>
<stop offset="0.3242" stop-color="#F5873D"/>
<stop offset="0.5759" stop-color="#F79F64"/>
<stop offset="0.8663" stop-color="#FAC099"/>
<stop offset="1" stop-color="#FBD1B4"/>
</linearGradient>
<linearGradient id="paint14_linear" x1="307.212" y1="149.404" x2="319.622" y2="149.404" gradientUnits="userSpaceOnUse">
<stop stop-color="#F4731C"/>
<stop offset="0.1239" stop-color="#F47825"/>
<stop offset="0.3242" stop-color="#F5873D"/>
<stop offset="0.5759" stop-color="#F79F64"/>
<stop offset="0.8663" stop-color="#FAC099"/>
<stop offset="1" stop-color="#FBD1B4"/>
</linearGradient>
<linearGradient id="paint15_linear" x1="178" y1="33.4966" x2="255.145" y2="33.4966" gradientUnits="userSpaceOnUse">
<stop stop-color="#FBD1B4"/>
<stop offset="0.1275" stop-color="#FBCAA9"/>
<stop offset="0.3483" stop-color="#F9B98D"/>
<stop offset="0.636" stop-color="#F79D5F"/>
<stop offset="0.9763" stop-color="#F47621"/>
<stop offset="1" stop-color="#F4731C"/>
</linearGradient>
<linearGradient id="paint16_linear" x1="258.526" y1="65.1148" x2="307.299" y2="65.1148" gradientUnits="userSpaceOnUse">
<stop stop-color="#F4731C"/>
<stop offset="0.1239" stop-color="#F47825"/>
<stop offset="0.3242" stop-color="#F5873D"/>
<stop offset="0.5759" stop-color="#F79F64"/>
<stop offset="0.8663" stop-color="#FAC099"/>
<stop offset="1" stop-color="#FBD1B4"/>
</linearGradient>
<linearGradient id="paint17_linear" x1="241.28" y1="35.1521" x2="252.171" y2="35.1521" gradientUnits="userSpaceOnUse">
<stop stop-color="#FBD1B4"/>
<stop offset="0.1275" stop-color="#FBCAA9"/>
<stop offset="0.3483" stop-color="#F9B98D"/>
<stop offset="0.636" stop-color="#F79D5F"/>
<stop offset="0.9763" stop-color="#F47621"/>
<stop offset="1" stop-color="#F4731C"/>
</linearGradient>
<linearGradient id="paint18_linear" x1="210.18" y1="75.3131" x2="291.821" y2="75.3131" gradientUnits="userSpaceOnUse">
<stop stop-color="#B8B8C4"/>
<stop offset="0.4511" stop-color="#9D9CAD"/>
<stop offset="0.871" stop-color="#88879C"/>
</linearGradient>
<linearGradient id="paint19_linear" x1="229.364" y1="20.8903" x2="262.832" y2="20.8903" gradientUnits="userSpaceOnUse">
<stop stop-color="#414061"/>
<stop offset="0.0369616" stop-color="#3E3D5E"/>
<stop offset="0.2693" stop-color="#2E2D51"/>
<stop offset="0.5356" stop-color="#252449"/>
<stop offset="0.9086" stop-color="#222147"/>
</linearGradient>
<linearGradient id="paint20_linear" x1="230.205" y1="26.8271" x2="245.36" y2="26.8271" gradientUnits="userSpaceOnUse">
<stop stop-color="#FBD1B4"/>
<stop offset="0.1275" stop-color="#FBCAA9"/>
<stop offset="0.3483" stop-color="#F9B98D"/>
<stop offset="0.636" stop-color="#F79D5F"/>
<stop offset="0.9763" stop-color="#F47621"/>
<stop offset="1" stop-color="#F4731C"/>
</linearGradient>
<clipPath id="clip0">
<rect width="193.99" height="120" fill="white" transform="translate(0 40)"/>
</clipPath>
<clipPath id="clip1">
<rect width="176.08" height="97" fill="white" transform="translate(261 205)"/>
</clipPath>
<clipPath id="clip2">
<rect width="117.848" height="209.8" fill="white" transform="matrix(-1 0 0 1 225.849 168)"/>
</clipPath>
<clipPath id="clip3">
<rect width="159.523" height="215.9" fill="white" transform="translate(178)"/>
</clipPath>
</defs>
</svg>
