<svg width="748" height="459" viewBox="0 0 748 459" fill="none" xmlns="http://www.w3.org/2000/svg">
<path d="M397.308 381.291C392.261 374.88 386.177 360.133 402.219 352.439C422.273 342.822 598.865 360.419 643.678 286.754C688.492 213.088 852.193 77.0119 643.678 58.1863C435.164 39.3607 95.0752 -60.497 53.1269 58.1863C11.1785 176.87 24.0699 170.935 38.5984 202.857C53.1269 234.779 347.789 197.332 297.655 174.414" stroke="#FF4651" stroke-width="1.22776"/>
<path d="M164.239 96.8607C175.63 121.961 209.339 174.25 253.047 182.599C258.026 183.077 270.849 186.487 282.309 196.309C296.632 208.587 318.118 220.864 323.234 213.702C328.349 206.54 333.056 198.765 307.887 182.599C285.15 167.996 296.632 177.483 278.421 158.658C300.657 159.272 347.748 164.919 358.225 182.599C371.321 204.699 370.912 201.629 374.39 209.201C377.869 216.772 379.711 236.62 394.853 237.439C409.995 238.257 394.853 221.683 394.853 213.702C394.853 210.084 392.96 203.269 390.51 196.309L405.289 213.702C408.154 223.388 417.607 240.795 432.504 232.937C432.982 231.3 432.668 226.144 427.593 218.613C427.002 217.736 426.48 216.849 426.01 215.953C421.448 207.245 421.895 197.696 412.246 187.306C401.606 175.846 401.196 157.225 374.39 150.268C372.095 149.672 370.066 149.023 368.252 148.33C348.88 140.933 354.106 128.637 323.234 124.894C289.47 120.802 266.552 125.508 226.65 87.4478L164.239 96.8607Z" fill="white"/>
<path d="M374.39 150.268C401.196 157.225 401.606 175.846 412.246 187.306C421.895 197.696 421.448 207.245 426.01 215.953C433.84 221.069 439.871 211.861 440.28 210.838C440.689 209.814 436.188 207.154 434.346 204.289C432.504 201.425 426.161 189.556 420.431 182.599C414.702 175.642 402.424 159.886 397.104 153.747C392.848 148.836 376.096 148.089 368.252 148.33C370.066 149.023 372.095 149.672 374.39 150.268Z" fill="white"/>
<path d="M278.421 158.658C296.632 177.483 285.15 167.996 307.887 182.599C333.056 198.765 328.349 206.54 323.234 213.702C318.118 220.864 296.632 208.587 282.309 196.309C270.849 186.487 258.026 183.077 253.047 182.599C209.339 174.25 175.63 121.961 164.239 96.8607L226.65 87.4478C266.552 125.508 289.47 120.802 323.234 124.894C354.106 128.637 348.88 140.933 368.252 148.33M278.421 158.658C263.851 143.597 251.069 140.241 246.499 140.446M278.421 158.658C300.657 159.272 347.748 164.919 358.225 182.599C371.321 204.699 370.912 201.629 374.39 209.201C377.869 216.772 379.711 236.62 394.853 237.439C409.995 238.257 394.853 221.683 394.853 213.702C394.853 210.084 392.96 203.269 390.51 196.309M353.928 150.268C370.912 160.09 377.46 169.503 381.552 175.846C383.789 179.314 387.555 187.917 390.51 196.309M390.51 196.309L405.289 213.702C408.154 223.388 417.607 240.795 432.504 232.937C432.982 231.3 432.668 226.144 427.593 218.613C427.002 217.736 426.48 216.849 426.01 215.953M368.252 148.33C370.066 149.023 372.095 149.672 374.39 150.268C401.196 157.225 401.606 175.846 412.246 187.306C421.895 197.696 421.448 207.245 426.01 215.953M368.252 148.33C376.096 148.089 392.848 148.836 397.104 153.747C402.424 159.886 414.702 175.642 420.431 182.599C426.161 189.556 432.504 201.425 434.346 204.289C436.188 207.154 440.689 209.814 440.28 210.838C439.871 211.861 433.84 221.069 426.01 215.953" stroke="#4807FF" stroke-width="1.22776"/>
<path d="M312.684 399.477C305.533 396.976 291.185 389.469 286.901 383.311C279.962 373.337 266.181 347.839 256.74 331.132C244.995 324.584 242.702 330.313 243.315 334.815C243.929 339.317 259.686 369.192 272.372 378.81C285.059 388.427 285.673 392.724 292.835 394.975C298.565 396.776 309.014 400.227 312.684 399.477Z" fill="white"/>
<path d="M359.543 420.349C341.945 412.368 305.931 384.948 302.657 375.74C301.135 371.458 298.594 367.353 296.209 362.849C294.266 361.962 287.678 354.746 276.874 332.973C263.369 305.758 242.497 309.237 248.022 316.603C249.644 318.766 252.817 324.19 256.74 331.132C266.181 347.839 279.962 373.337 286.901 383.311C291.185 389.469 305.533 396.976 312.684 399.477C321.929 402.71 324.256 400.598 330.486 407.867C339.326 418.18 353.541 420.485 359.543 420.349Z" fill="white"/>
<path d="M415.816 430.375C432.349 435.45 449.988 450.906 456.741 458C474.134 454.862 508.552 447.687 507.079 444.085C505.237 439.584 491.527 420.349 476.18 399.477C460.833 378.605 429.321 362.849 418.68 360.189C408.04 357.528 389.009 340.749 368.956 332.973C348.903 325.198 346.652 331.336 352.177 346.069C356.597 357.856 381.302 370.761 393.102 375.74C380.661 375.74 371.821 380.788 368.956 383.311C365.682 376.927 338.262 367.009 324.961 362.849C326.939 366.259 329.586 370.87 324.348 362.03C319.109 353.19 307.705 334.474 302.657 326.221C293.654 299.21 276.056 304.939 279.739 309.237C283.422 313.534 289.356 331.541 290.38 344.842C290.927 351.957 293.465 357.667 296.209 362.849C298.594 367.353 301.135 371.458 302.657 375.74C305.931 384.948 341.945 412.368 359.543 420.349C377.141 428.329 395.148 424.032 415.816 430.375Z" fill="white"/>
<path d="M359.543 420.349C377.141 428.329 395.148 424.032 415.816 430.375C432.349 435.45 449.988 450.906 456.741 458C474.134 454.862 508.552 447.687 507.079 444.085C505.237 439.584 491.527 420.349 476.18 399.477C460.833 378.605 429.321 362.849 418.68 360.189C408.04 357.528 389.009 340.749 368.956 332.973C348.903 325.198 346.652 331.336 352.177 346.069C356.597 357.856 381.302 370.761 393.102 375.74M359.543 420.349C341.945 412.368 305.931 384.948 302.657 375.74C301.135 371.458 298.594 367.353 296.209 362.849M359.543 420.349C353.541 420.485 339.326 418.18 330.486 407.867C324.256 400.598 321.929 402.71 312.684 399.477M368.956 383.311C365.682 376.927 338.262 367.009 324.961 362.849C326.939 366.259 329.586 370.87 324.348 362.03C319.109 353.19 307.705 334.474 302.657 326.221C293.654 299.21 276.056 304.939 279.739 309.237C283.422 313.534 289.356 331.541 290.38 344.842C290.927 351.957 293.465 357.667 296.209 362.849M368.956 383.311C372.23 389.696 373.594 393.747 373.867 394.975M368.956 383.311C371.821 380.788 380.661 375.74 393.102 375.74M393.102 375.74C400.796 386.053 415.952 397.772 422.568 402.342M296.209 362.849C294.266 361.962 287.678 354.746 276.874 332.973C263.369 305.758 242.497 309.237 248.022 316.603C249.644 318.766 252.817 324.19 256.74 331.132M312.684 399.477C305.533 396.976 291.185 389.469 286.901 383.311C279.962 373.337 266.181 347.839 256.74 331.132M312.684 399.477C309.014 400.227 298.565 396.776 292.835 394.975C285.673 392.724 285.059 388.427 272.372 378.81C259.686 369.192 243.929 339.317 243.315 334.815C242.702 330.313 244.995 324.584 256.74 331.132" stroke="#4807FF" stroke-width="1.22776"/>
<path d="M399.15 382.314C405.221 380.132 415.479 370.446 410.405 357.35C404.061 340.98 414.292 296.985 520.084 231.3C625.876 165.615 703.634 219.432 672.531 153.747C641.428 88.0617 125.565 -16.0931 59.8796 82.5368C-5.80544 181.167 -12.9674 176.665 20.796 194.877C54.5593 213.088 176.517 236.007 232.38 206.745C288.243 177.483 285.992 168.275 297.86 174.619" stroke="#FF4651" stroke-width="1.22776"/>
<path d="M167 252.988C181.406 249.877 183.643 234.367 182.961 227C191.146 241.528 181.863 249.113 178.477 251.964C174.589 255.238 167.75 254.625 167 252.988Z" fill="url(#paint0_linear)"/>
<path d="M311.17 270.183C314.35 271.667 317.583 273.098 320.763 274.529C321.452 274.847 321.611 275.112 321.081 275.748C319.491 277.868 317.954 280.041 316.417 282.161C314.032 285.447 314.244 287.726 317.106 290.535C321.823 295.252 326.593 299.916 331.31 304.58C333.643 306.912 336.24 307.124 338.89 305.163C341.169 303.52 343.395 301.93 345.621 300.234C346.363 299.651 346.681 299.651 347.105 300.605C348.536 303.838 349.967 307.018 351.451 310.198C352.776 313.007 355.691 313.537 357.917 311.364C359.931 309.35 361.892 307.336 363.906 305.375C368.093 301.294 369.736 296.312 368.729 290.694C368.093 287.037 369.047 284.069 371.326 281.26C379.912 270.607 384.735 258.469 385 244.424C384.894 242.993 384.841 241.244 384.682 239.548C384.523 237.852 383.516 236.739 381.873 236.58C378.216 236.209 374.559 236.156 370.902 236.633C358.871 238.117 348.377 243.046 339.102 250.731C338.519 251.208 337.883 251.579 337.194 251.95C334.703 253.275 332.053 252.798 329.402 252.586C324.261 252.215 319.703 253.593 316.046 257.356C313.979 259.476 311.912 261.597 309.845 263.717C307.619 266.208 308.096 268.805 311.17 270.183ZM357.546 255.13C362.369 255.183 366.291 259.158 366.238 264.088C366.185 268.805 362.157 272.727 357.334 272.674C352.511 272.621 348.642 268.699 348.695 263.876C348.748 258.893 352.617 255.13 357.546 255.13Z" fill="url(#paint1_linear)"/>
<path d="M321.346 303.944C321.346 301.559 319.226 299.81 316.894 300.287C316.099 300.446 315.41 300.764 314.827 301.347C312.124 304.05 309.421 306.7 306.771 309.403C305.128 311.099 305.128 313.378 306.665 314.968C308.096 316.399 310.481 316.346 312.124 314.703C314.721 312.106 317.318 309.509 319.915 306.912C320.71 306.117 321.293 305.163 321.346 303.944Z" fill="url(#paint2_linear)"/>
<path d="M306.347 303.202C308.043 301.559 309.739 299.863 311.382 298.167C312.177 297.372 312.654 296.365 312.707 295.146C312.495 293.768 311.965 292.496 310.481 291.913C308.944 291.277 307.407 291.542 306.188 292.708C304.386 294.457 302.637 296.259 300.941 298.114C299.404 299.757 299.457 302.036 300.941 303.467C302.319 304.739 304.863 304.686 306.347 303.202Z" fill="url(#paint3_linear)"/>
<path d="M323.625 320.533C325.322 318.89 327.018 317.194 328.661 315.498C329.456 314.703 329.986 313.749 329.986 312.318C329.88 311.099 329.297 309.88 327.972 309.244C326.488 308.555 324.951 308.661 323.784 309.774C321.823 311.576 319.915 313.484 318.113 315.498C316.682 317.088 316.947 319.42 318.484 320.851C319.756 322.07 322.141 321.964 323.625 320.533Z" fill="url(#paint4_linear)"/>
<defs>
<linearGradient id="paint0_linear" x1="186.245" y1="240.66" x2="182.774" y2="233.139" gradientUnits="userSpaceOnUse">
<stop stop-color="white"/>
<stop offset="1" stop-color="white" stop-opacity="0"/>
</linearGradient>
<linearGradient id="paint1_linear" x1="374.226" y1="237.247" x2="340.036" y2="294.32" gradientUnits="userSpaceOnUse">
<stop stop-color="#FFBDBD"/>
<stop offset="1" stop-color="#FF2372"/>
</linearGradient>
<linearGradient id="paint2_linear" x1="319.119" y1="300.406" x2="312.06" y2="312.199" gradientUnits="userSpaceOnUse">
<stop stop-color="#FFBDBD"/>
<stop offset="1" stop-color="#FF2372"/>
</linearGradient>
<linearGradient id="paint3_linear" x1="310.892" y1="291.737" x2="305.184" y2="301.326" gradientUnits="userSpaceOnUse">
<stop stop-color="#FFBDBD"/>
<stop offset="1" stop-color="#FF2372"/>
</linearGradient>
<linearGradient id="paint4_linear" x1="328.182" y1="308.974" x2="322.4" y2="318.559" gradientUnits="userSpaceOnUse">
<stop stop-color="#FFBDBD"/>
<stop offset="1" stop-color="#FF2372"/>
</linearGradient>
</defs>
</svg>
