<svg width="415" height="466" viewBox="0 0 415 466" fill="none" xmlns="http://www.w3.org/2000/svg">
<path fill-rule="evenodd" clip-rule="evenodd" d="M151.516 112.011C153.361 108.005 155.523 104.894 156.951 103.253C156.979 107.123 156.383 110.594 155.459 113.611C158.301 114.981 161.254 116.901 164.075 119.549C161.901 119.483 158.149 118.957 153.956 117.591C152.023 121.854 149.579 124.797 147.977 126.167C148.086 122.58 148.841 119.142 149.901 116.041C146.904 114.713 143.868 112.932 141.161 110.575C143.254 110.33 147.074 110.535 151.516 112.011Z" fill="url(#paint0_linear)"/>
<path fill-rule="evenodd" clip-rule="evenodd" d="M136.931 71.8831C138.159 69.2168 139.597 67.1457 140.548 66.0536C140.567 68.6294 140.17 70.9399 139.555 72.9479C141.446 73.8603 143.412 75.138 145.29 76.9008C143.843 76.857 141.346 76.5065 138.554 75.5975C137.268 78.4349 135.641 80.394 134.575 81.3061C134.647 78.9182 135.15 76.6297 135.855 74.5653C133.861 73.6815 131.839 72.4962 130.038 70.9276C131.431 70.7642 133.974 70.9007 136.931 71.8831Z" fill="url(#paint1_linear)"/>
<path fill-rule="evenodd" clip-rule="evenodd" d="M97.4549 31.9947C99.3001 27.9889 101.461 24.8772 102.89 23.2366C102.918 27.1064 102.321 30.5776 101.398 33.5944C104.239 34.9651 107.192 36.8845 110.014 39.533C107.839 39.4672 104.088 38.9406 99.8944 37.5749C97.9613 41.8375 95.5178 44.7807 93.9158 46.1509C94.0243 42.5636 94.7792 39.1256 95.8394 36.0243C92.8427 34.6964 89.8063 32.9157 87.0993 30.5591C89.1931 30.3137 93.013 30.5188 97.4549 31.9947Z" fill="url(#paint2_linear)"/>
<path fill-rule="evenodd" clip-rule="evenodd" d="M91.1998 121.802C93.9144 115.908 97.0942 111.33 99.1954 108.917C99.2367 114.61 98.3592 119.717 97.0005 124.155C101.181 126.172 105.526 128.996 109.677 132.892C106.478 132.796 100.958 132.021 94.7888 130.011C91.9448 136.283 88.3498 140.613 85.9929 142.629C86.1525 137.351 87.2631 132.293 88.823 127.73C84.4143 125.777 79.9472 123.157 75.9646 119.69C79.045 119.329 84.6649 119.63 91.1998 121.802Z" fill="url(#paint3_linear)"/>
<circle cx="107.531" cy="81.4675" r="2.37835" transform="rotate(21.3865 107.531 81.4675)" fill="#2F235A"/>
<circle cx="166.42" cy="51.563" r="2.37835" transform="rotate(21.3865 166.42 51.563)" fill="#FE9076"/>
<circle cx="53.3782" cy="64.555" r="2.37835" transform="rotate(21.3865 53.3782 64.555)" fill="#FFA400"/>
<circle cx="104.45" cy="160.319" r="2.37835" transform="rotate(21.3865 104.45 160.319)" fill="#23BB86"/>
<path d="M164.614 40.1955C162.3 31.3582 153.948 11.1468 139.052 1.00005" stroke="#FE9076" stroke-width="0.736823" stroke-linecap="round"/>
<path d="M46.3587 54.9603C40.6011 47.8678 24.6467 32.9109 6.88963 29.8231" stroke="#FFA400" stroke-width="0.736823" stroke-linecap="round"/>
<path d="M94.3296 163.775C89.2273 165.636 76.3827 171.566 65.8234 180.397" stroke="#23BB86" stroke-width="0.736823" stroke-linecap="round"/>
<path fill-rule="evenodd" clip-rule="evenodd" d="M269.377 112.011C267.532 108.005 265.371 104.894 263.943 103.253C263.915 107.123 264.511 110.594 265.435 113.611C262.593 114.981 259.64 116.901 256.819 119.549C258.993 119.483 262.745 118.957 266.938 117.591C268.871 121.854 271.314 124.797 272.916 126.167C272.808 122.58 272.053 119.142 270.993 116.041C273.99 114.713 277.026 112.932 279.733 110.575C277.639 110.33 273.819 110.535 269.377 112.011Z" fill="url(#paint4_linear)"/>
<path fill-rule="evenodd" clip-rule="evenodd" d="M283.963 71.8831C282.735 69.2168 281.296 67.1457 280.346 66.0536C280.327 68.6294 280.724 70.9399 281.339 72.9479C279.447 73.8603 277.482 75.138 275.604 76.9008C277.051 76.857 279.548 76.5065 282.339 75.5975C283.626 78.4349 285.252 80.394 286.319 81.3061C286.247 78.9182 285.744 76.6297 285.038 74.5653C287.033 73.6815 289.054 72.4962 290.856 70.9276C289.462 70.7642 286.92 70.9007 283.963 71.8831Z" fill="url(#paint5_linear)"/>
<path fill-rule="evenodd" clip-rule="evenodd" d="M323.439 31.9947C321.594 27.9889 319.432 24.8772 318.004 23.2366C317.976 27.1064 318.572 30.5776 319.496 33.5944C316.654 34.9651 313.701 36.8845 310.88 39.533C313.054 39.4672 316.806 38.9406 320.999 37.5749C322.932 41.8375 325.376 44.7807 326.978 46.1509C326.869 42.5636 326.114 39.1256 325.054 36.0243C328.051 34.6964 331.087 32.9157 333.794 30.5591C331.701 30.3137 327.881 30.5188 323.439 31.9947Z" fill="url(#paint6_linear)"/>
<path fill-rule="evenodd" clip-rule="evenodd" d="M329.694 121.802C326.979 115.908 323.799 111.33 321.698 108.917C321.657 114.61 322.534 119.717 323.893 124.155C319.712 126.172 315.368 128.996 311.217 132.892C314.415 132.796 319.935 132.021 326.105 130.011C328.949 136.283 332.544 140.613 334.901 142.629C334.741 137.351 333.631 132.293 332.071 127.73C336.479 125.777 340.946 123.157 344.929 119.69C341.849 119.329 336.229 119.63 329.694 121.802Z" fill="url(#paint7_linear)"/>
<circle r="2.37835" transform="matrix(-0.931142 0.364658 0.364658 0.931142 313.362 81.4675)" fill="#2F235A"/>
<circle r="2.37835" transform="matrix(-0.931142 0.364658 0.364658 0.931142 254.474 51.563)" fill="#FE9076"/>
<circle r="2.37835" transform="matrix(-0.931142 0.364658 0.364658 0.931142 367.515 64.555)" fill="#FFA400"/>
<circle r="2.37835" transform="matrix(-0.931142 0.364658 0.364658 0.931142 316.444 160.319)" fill="#23BB86"/>
<path d="M256.28 40.1955C258.594 31.3582 266.946 11.1468 281.842 1.00005" stroke="#FE9076" stroke-width="0.736823" stroke-linecap="round"/>
<path d="M374.535 54.9603C380.292 47.8678 396.247 32.9109 414.004 29.8231" stroke="#FFA400" stroke-width="0.736823" stroke-linecap="round"/>
<path d="M326.564 163.775C331.666 165.636 344.511 171.566 355.07 180.397" stroke="#23BB86" stroke-width="0.736823" stroke-linecap="round"/>
<rect x="80.6897" y="291.124" width="252.438" height="174.501" fill="url(#paint8_linear)"/>
<mask id="mask0" mask-type="alpha" maskUnits="userSpaceOnUse" x="80" y="291" width="254" height="175">
<rect x="80.6897" y="291.124" width="252.438" height="174.501" fill="#C4C4C4"/>
</mask>
<g mask="url(#mask0)">
<path d="M92.6343 286.681L264.528 286.681L225.676 354.142L53.7824 354.142L92.6343 286.681Z" fill="black" fill-opacity="0.07"/>
<rect x="252.358" y="291.125" width="252.438" height="174.501" fill="url(#paint9_linear)"/>
</g>
<path d="M80.4663 291.124L252.36 291.124L219.155 346.535L47.2618 346.535L80.4663 291.124Z" fill="url(#paint10_linear)"/>
<mask id="mask1" mask-type="alpha" maskUnits="userSpaceOnUse" x="252" y="291" width="82" height="175">
<rect x="252.36" y="291.124" width="80.7684" height="174.501" fill="#C4C4C4"/>
</mask>
<g mask="url(#mask1)">
<path d="M323.295 290.835L242.4 290.835L280.411 354.63L361.306 354.63L323.295 290.835Z" fill="black" fill-opacity="0.07"/>
</g>
<path d="M333.255 291.124L252.36 291.124L285.564 346.535L366.459 346.535L333.255 291.124Z" fill="url(#paint11_linear)"/>
<circle cx="211.012" cy="183.23" r="4.63574" fill="#FFA800" fill-opacity="0.23"/>
<circle cx="288.108" cy="144.178" r="4.63574" fill="#FFA800" fill-opacity="0.23"/>
<circle cx="292.743" cy="68.9773" r="4.63574" fill="#FFA800" fill-opacity="0.23"/>
<circle cx="136.282" cy="76.2199" r="4.63574" fill="#FFA800" fill-opacity="0.23"/>
<circle cx="230.678" cy="256.974" r="4.63574" fill="#FFA800" fill-opacity="0.23"/>
<circle cx="114.35" cy="173.958" r="4.63574" fill="#FFA800" fill-opacity="0.23"/>
<g clip-path="url(#clip0)">
<path opacity="0.42" d="M206.213 251.192L165.665 227.813C162.238 225.837 162.238 220.872 165.665 218.847L206.454 195.42C210.557 193.058 215.577 193.106 219.632 195.468L260.324 219.04C263.752 221.016 263.752 225.981 260.324 227.958L220.115 251.192C215.819 253.699 210.509 253.699 206.213 251.192Z" fill="#3A395B"/>
<path opacity="0.68" d="M208.626 237.116L182.367 221.98C180.147 220.679 180.147 217.449 182.367 216.196L208.819 201.012C211.474 199.469 214.708 199.517 217.363 201.012L243.768 216.292C245.988 217.594 245.988 220.775 243.768 222.077L217.701 237.116C214.853 238.707 211.426 238.707 208.626 237.116Z" fill="#383759"/>
<path opacity="0.32" d="M262.255 217.69H340.261C347.405 217.69 353.197 223.475 353.197 230.609C353.197 238.032 359.231 244.01 366.617 244.01H395.676" stroke="white" stroke-width="2" stroke-miterlimit="10" stroke-linecap="round" stroke-linejoin="round"/>
<path opacity="0.32" d="M205.923 245.456L165.376 222.077C161.948 220.1 161.948 215.135 165.376 213.111L206.165 189.684C210.268 187.322 215.288 187.37 219.342 189.732L260.035 213.304C263.462 215.28 263.462 220.245 260.035 222.221L219.825 245.407C215.529 247.914 210.219 247.914 205.923 245.456Z" stroke="white" stroke-width="2" stroke-miterlimit="10" stroke-linecap="round" stroke-linejoin="round"/>
<path opacity="0.32" d="M0.482712 187.707H62.8003C73.613 187.707 82.3982 196.481 82.3982 207.278C82.3982 213.014 87.0322 217.642 92.7765 217.642H162.817" stroke="white" stroke-width="2" stroke-miterlimit="10" stroke-linecap="round" stroke-linejoin="round"/>
<path opacity="0.32" d="M208.626 233.356L183.188 218.654C181.015 217.401 181.015 214.268 183.188 213.014L208.819 198.312C211.378 196.818 214.564 196.866 217.122 198.312L242.706 213.111C244.878 214.364 244.878 217.497 242.706 218.702L217.46 233.26C214.66 234.899 211.33 234.899 208.626 233.356Z" stroke="white" stroke-width="2" stroke-miterlimit="10" stroke-linecap="round" stroke-linejoin="round"/>
<path d="M314.339 249.649L312.071 244.154C309.705 243.479 307.968 243.383 307.726 245.938L310.043 251.385L314.339 249.649Z" fill="url(#paint12_linear)"/>
<path d="M309.271 257.94L309.319 249.505C309.947 247.866 311.154 246.902 313.181 246.757C314.195 246.854 314.919 246.998 316.27 248.107C317.38 249.071 317.139 251.481 316.849 252.783L314.774 258.615C313.422 262.905 311.781 262.905 310.381 262.761C308.788 262.423 308.74 260.592 309.271 257.94Z" fill="#222147"/>
<path d="M297.396 196.963C297.396 205.543 299.327 218.606 303.382 225.981C306.23 231.236 310.864 238.321 313.615 243.865C313.857 244.299 313.664 244.877 313.181 245.07L308.547 247.046C308.112 247.239 307.63 247.046 307.437 246.613C304.637 240.924 300.389 233.887 297.445 228.44C293.245 220.727 289.432 212.388 288.177 203.663C287.597 199.614 293.873 198.264 294.452 202.361L297.396 196.963Z" fill="#242349"/>
<path d="M313.519 243.865C310.767 238.321 306.133 231.235 303.285 225.981C299.231 218.606 297.3 205.543 297.3 196.963L294.741 201.638C295.272 209.785 297.203 219.859 300.534 226.029C303.382 231.284 308.016 238.37 310.767 243.913C311.009 244.347 313.036 245.118 313.036 245.118C313.567 244.829 313.76 244.299 313.519 243.865Z" fill="#222147"/>
<path d="M294.21 220.968C291.411 215.087 289.625 209.399 288.708 203.036C288.563 202.024 288.852 201.205 289.335 200.578C289.383 200.24 289.48 199.951 289.576 199.662C288.418 200.24 287.549 201.446 287.79 203.036C289.045 211.809 292.859 220.1 297.058 227.813C297.107 227.861 295.272 223.137 294.21 220.968Z" fill="#F8F8F9"/>
<path d="M335.434 219.763L329.545 220.486C328.241 222.607 327.71 224.246 330.124 225.114L335.965 224.342L335.434 219.763Z" fill="url(#paint13_linear)"/>
<path d="M320.228 227.235C315.884 227.235 311.443 225.933 307.871 221.161C301.065 212.05 296.721 197.782 296.721 197.059L307.195 194.89C307.195 195.034 307.147 210.074 312.747 217.497C316.125 221.98 320.615 221.498 327.131 220.197C328.869 219.859 330.51 219.522 332.055 219.377C332.441 219.329 332.779 219.667 332.827 220.052L333.069 224.728C333.069 225.114 332.827 225.451 332.441 225.451C331.234 225.596 329.786 225.837 328.338 226.126C325.876 226.656 323.076 227.235 320.228 227.235Z" fill="#222147"/>
<path d="M294.211 172.379C293.969 172.379 293.728 172.33 293.535 172.282C264.717 164.087 250.718 136.563 250.139 135.358C249.512 134.105 250.043 132.562 251.298 131.935C252.553 131.309 254.097 131.839 254.725 133.092C254.918 133.43 268.386 159.846 294.983 167.365C296.334 167.751 297.107 169.149 296.721 170.499C296.334 171.655 295.321 172.379 294.211 172.379Z" fill="url(#paint14_linear)"/>
<path d="M341.902 228.536L335.289 224.342C334.323 222.944 334.034 221.402 334.565 219.715C335.772 219.329 335.772 219.329 337.22 218.751C338.426 218.269 340.261 219.522 341.13 220.341L344.798 224.487C347.55 227.427 346.874 228.681 346.15 229.693C345.281 230.898 343.784 230.079 341.902 228.536Z" fill="#222147"/>
<path d="M301.692 154.591C308.547 157.194 314.581 162.497 319.987 167.317C321.146 168.329 321.773 169.004 322.352 170.45C324.138 175.271 326.504 180.429 328.338 185.297C329.207 187.611 325.78 189.346 324.814 186.84C322.787 181.441 320.904 178.356 318.973 173.632C318.635 172.764 317.911 170.981 317.574 170.691C312.36 166.064 306.616 160.906 300.003 158.351C297.541 157.387 299.231 153.627 301.692 154.591Z" fill="url(#paint15_linear)"/>
<path d="M302.223 182.55C302.368 184.092 303.575 185.876 304.975 186.502C306.375 187.129 307.388 186.454 307.292 184.912C307.147 183.369 305.94 181.586 304.54 180.959C303.141 180.332 302.079 181.007 302.223 182.55Z" fill="white"/>
<path d="M303.189 202.217C302.658 202.94 304.927 199.517 304.203 199.999C302.706 201.06 294.307 207.857 292.473 208.001C290.252 208.242 291.362 205.977 289.576 204.627C287.887 203.325 287.308 201.06 287.018 198.987C286.922 198.409 286.825 197.782 287.018 197.252C287.211 196.673 287.694 196.191 288.177 195.757C291.893 192.431 299.038 184.43 304.734 186.358C311.347 188.575 305.747 198.842 303.189 202.217Z" fill="#242349"/>
<path d="M294.886 155.122L292.617 147.795L288.321 151.217L290.252 157.869C290.445 159.026 295.417 157.628 294.886 155.122Z" fill="url(#paint16_linear)"/>
<path d="M317.381 164.088C313.326 161.195 307.292 156.086 302.996 153.868C300.003 151.699 295.659 152.952 292.424 155.314C290.204 156.905 287.501 158.881 285.474 160.279L274.275 155.363C271.572 153.434 267.372 158.737 270.51 161.292L282.481 168.088C282.722 168.233 282.915 168.329 283.156 168.426C283.205 168.763 283.301 169.101 283.35 169.39C284.363 179.079 286.439 187.804 286.246 199.807L286.294 199.758C286.342 200.433 286.873 201.156 287.887 201.638C289.721 202.506 292.376 202.41 293.824 201.397C297.445 199.758 300.92 197.975 303.623 195.806C305.168 194.649 306.471 193.347 307.437 191.853C308.016 191.419 308.306 190.937 308.306 190.407C309.271 189.925 307.968 176.331 306.23 164.811L313.084 168.956C314.195 169.727 316.125 170.74 316.705 170.113L318.587 167.076C319.456 166.305 318.78 164.859 317.381 164.088Z" fill="url(#paint17_linear)"/>
<path d="M287.356 158.93C292.376 157.725 296.093 160.665 296.721 153.242C295.948 152.856 294.79 152.711 294.355 153.483C293.583 154.832 292.183 155.555 289.914 156.086C289.287 156.23 288.708 156.375 288.418 156.953L287.356 158.93Z" fill="white"/>
<path d="M273.309 154.399C273.213 154.206 269.013 154.254 268.675 160.038C268.675 160.279 268.772 160.52 268.917 160.665L270.992 162.786C271.378 163.172 272.006 163.075 272.296 162.641L276.157 156.471C276.447 156.037 276.205 155.411 275.723 155.218L273.309 154.399Z" fill="white"/>
<path d="M314.919 170.74C315.015 170.932 319.263 170.884 319.601 165.003C319.601 164.859 319.553 164.666 319.456 164.569L317.091 162.159C316.849 161.918 316.415 161.918 316.174 162.256L311.878 168.956C311.684 169.245 311.829 169.679 312.167 169.824L314.919 170.74Z" fill="white"/>
<path d="M298.507 142.203C298.507 142.155 298.507 142.107 298.507 142.058C298.507 141.962 298.458 141.817 298.458 141.721C299.617 141.962 301.451 141.576 301.451 141.576C299.569 140.805 297.638 139.166 297.638 139.166C295.514 134.78 290.542 136.515 287.018 136.467C285.184 136.418 283.543 136.515 281.805 138.347C280.26 139.986 281.226 141.914 283.687 141.914C284.653 141.914 284.411 144.565 284.701 145.433C285.184 146.975 286.246 147.698 286.729 149.192C287.211 150.59 289.528 152.711 290.928 152.76C293.438 152.856 294.452 151.892 294.452 151.892C294.452 151.892 298.507 149.964 298.603 144.324C299.279 144.227 301.065 143.167 301.065 143.167C300.003 143.215 299.086 142.685 298.507 142.203Z" fill="url(#paint18_linear)"/>
<path d="M287.163 149.964C287.211 149.964 287.259 149.964 287.308 149.964C288.08 149.771 288.659 148.807 288.659 147.698C288.659 146.445 287.935 145.384 287.018 145.384C286.294 145.384 285.667 146.011 285.473 146.927C285.184 146.493 284.894 146.011 284.701 145.384C284.411 144.517 284.653 141.865 283.687 141.865C283.012 141.865 282.432 141.721 281.998 141.432C281.226 144.468 281.564 147.843 282.481 151.41C282.867 154.061 286.342 155.459 288.997 153.916C289.625 153.531 290.252 153.097 290.831 152.663C289.673 152.519 287.983 151.217 287.163 149.964Z" fill="url(#paint19_linear)"/>
<path d="M283.301 151.41C282.432 147.987 282.094 144.71 282.77 141.721L281.998 141.432C281.226 144.468 281.564 147.843 282.481 151.41C282.77 153.434 284.894 154.736 287.018 154.543C285.184 154.398 283.543 153.193 283.301 151.41Z" fill="#F8F8F9"/>
<path d="M287.356 158.93L285.522 160.231L286.439 160.81L289.866 158.592L287.356 158.93Z" fill="#F8F8F9"/>
<path d="M283.156 168.329L285.473 186.743C285.473 186.743 286.198 196.48 286.246 199.71C286.246 199.71 286.535 201.108 287.935 201.542C287.935 201.542 287.259 200.626 287.259 197.782C287.211 195.275 286.342 182.646 285.136 173.825C284.846 171.993 283.977 170.065 283.156 168.329Z" fill="#F8F8F9"/>
<path opacity="0.25" d="M306.375 164.762L305.844 161.966L313.229 166.835L312.264 168.329L306.375 164.762Z" fill="#3F3E5F"/>
<path d="M363.527 17.9815C363.769 16.3908 363.238 14.6555 362.224 13.5468C362.127 13.4504 361.983 13.3058 361.838 13.3058C361.693 13.3058 361.597 13.4022 361.5 13.4986C360.728 14.2698 360.1 15.2339 359.28 15.9088C358.459 16.5836 357.252 16.8729 356.432 16.198C357.88 15.0893 358.942 13.2576 359.328 11.2812C357.928 12.8719 356.335 14.5591 354.356 14.7037C353.342 14.7519 352.329 14.4145 351.363 14.0288C348.95 13.113 346.584 12.2453 344.171 11.3294C343.398 11.0402 340.357 8.53358 339.006 7.71412C338.958 7.66591 338.909 7.61771 338.861 7.5695C338.813 7.5695 338.813 7.5213 338.764 7.5213C333.406 3.13475 326.455 6.46082 326.504 11.715C326.504 12.1007 326.938 12.3417 327.276 12.1489L329.593 10.9438C329.593 10.9438 330.124 11.4258 330.896 12.1489C330.8 12.5827 330.848 13.0165 330.945 13.4504C331.331 15.3303 332.586 16.7764 333.793 18.0779C334.517 18.8974 334.999 20.1025 335.723 20.922C336.013 21.2594 336.303 21.5968 336.641 21.8861L336.737 22.2235C336.737 22.2235 336.785 22.1753 336.882 22.1271C339.44 24.8265 342.24 27.1885 345.426 28.731C349.481 30.6592 354.308 30.5146 358.024 27.9597C359.328 27.0921 360.438 25.9352 361.596 24.7783C362.224 24.1516 362.803 23.525 363.189 22.6573C363.576 21.8379 363.672 20.7774 363.238 19.9579C362.61 20.681 361.886 21.2594 361.017 21.5968C362.321 21.0184 363.286 19.6205 363.527 17.9815Z" fill="url(#paint20_linear)"/>
<path d="M311.491 71.3914C310.767 70.0899 316.608 86.7685 326.6 81.7553C333.986 78.0436 328.821 63.1968 328.821 63.1968L311.491 71.3914Z" fill="#222147"/>
<path d="M326.117 59.9189L308.306 69.0294C305.844 70.2827 304.782 73.2232 305.892 75.778L318.105 103.688L321.194 102.531C318.442 91.1068 316.85 82.2373 312.312 77.2723L331.282 64.7393L326.117 59.9189Z" fill="url(#paint21_linear)"/>
<path d="M340.261 68.2099L322.98 92.6011L307.002 114.245L304.396 112.461L320.084 83.9726L334.517 57.7979L340.261 68.2099Z" fill="url(#paint22_linear)"/>
<path d="M321.677 54.038C321.677 53.9898 321.677 53.9898 321.677 53.9416C321.677 53.9416 322.449 46.0362 328.048 47.8197C329.496 48.3017 334.13 48.7838 335.192 49.9889C337.558 52.5437 341.419 51.6278 342.385 58.28C342.819 61.3168 341.999 66.3782 340.937 67.7761L330.365 83.587C330.365 83.587 324.235 69.7043 308.016 68.9812L319.987 58.8102C321.29 57.6051 321.966 55.7733 321.677 54.038Z" fill="#3F3E5F"/>
<path d="M308.933 112.075L309.078 114.486C309.126 115.161 308.788 115.835 308.209 116.221L301.403 120.897C301.017 121.138 300.534 121.234 300.1 121.041L299.279 120.704C298.603 120.415 298.362 119.595 298.796 119.017L302.851 113.377L304.83 111.208L309.223 111.256L308.933 112.075Z" fill="#222147"/>
<path d="M321.29 100.844L322.304 102.628C322.497 103.013 322.594 103.447 322.594 103.833C322.401 106.05 321.725 113.232 321.387 113.425L320.566 113.763C319.89 114.052 319.118 113.618 319.022 112.895L317.911 106.05L317.767 103.158L320.615 100.41L321.29 100.844Z" fill="#222147"/>
<path d="M358.604 64.9803C357.445 64.9803 356.48 64.0644 356.48 62.9075C356.239 53.315 352.908 44.9757 346.246 37.5041C345.474 36.6364 345.522 35.2867 346.44 34.5155C347.308 33.7442 348.66 33.7924 349.432 34.7083C356.673 42.8547 360.486 52.3509 360.776 62.8593C360.824 64.0162 359.859 65.0285 358.7 65.0285C358.652 64.9803 358.604 64.9803 358.604 64.9803Z" fill="url(#paint23_linear)"/>
<path d="M311.057 43.5296C310.574 43.5296 310.092 43.4814 309.609 43.385C302.948 41.8907 299.906 30.2735 299.617 28.972C299.327 27.8152 300.051 26.6583 301.162 26.4172C302.32 26.128 303.478 26.8511 303.72 27.9598C304.54 31.334 307.292 38.5164 310.526 39.2395C312.312 39.6251 314.339 37.6969 315.739 35.9616C316.463 35.0457 317.815 34.9011 318.732 35.6242C319.649 36.3472 319.794 37.6969 319.07 38.6128C316.415 41.8907 313.712 43.5296 311.057 43.5296Z" fill="url(#paint24_linear)"/>
<path d="M328.434 41.264C328.772 41.4568 329.159 41.6496 329.545 41.6978C330.462 41.8425 331.427 41.264 332.344 40.7338C332.441 40.6856 332.538 40.6374 332.586 40.541C332.731 40.3481 332.682 40.1553 332.634 39.9625C332.296 38.8538 331.765 38.8538 330.993 38.2272C330.655 37.9379 330.317 37.6005 329.979 37.3113C329.448 36.8293 328.821 36.4918 328.193 36.1544C327.469 35.7206 324.718 34.3226 324.187 36.3472C323.945 37.2149 324.042 37.7933 324.476 38.3718C325.007 39.0466 325.297 39.3841 325.973 39.8661C326.793 40.3963 327.614 40.8302 328.434 41.264Z" fill="#F9B384"/>
<path d="M332.296 39.3359C332.007 38.6128 331.91 38.179 331.524 37.5041C331.186 37.0221 330.751 36.6365 330.172 36.3954C329.11 35.9616 327.324 35.3832 326.697 35.7688C325.924 36.299 326.697 37.1667 327.179 37.7451C328.145 38.8538 329.738 39.5769 331.041 40.0589C331.282 40.1553 331.427 40.1071 331.572 39.9625C331.62 40.0589 331.138 39.7697 331.186 39.8661C331.524 40.6374 332.586 40.0589 332.296 39.3359Z" fill="#F9B384"/>
<path d="M332.055 38.9503L333.31 40.3L330.848 43.144L329.4 41.6979L332.055 38.9503Z" fill="#E2E2E7"/>
<path d="M342.288 59.9189C341.709 67.6797 336.737 68.451 331.717 65.5588C326.697 62.6665 323.897 56.0626 323.897 50.2781C323.897 50.2781 326.697 41.6979 331.717 44.5901C336.737 47.4823 342.916 50.9048 342.288 59.9189Z" fill="#3F3E5F"/>
<path d="M341.661 56.7374C341.468 48.9284 335.772 45.7952 331.041 43.0958C329.641 42.2763 328.434 42.3727 327.421 42.9029C327.566 42.9511 327.662 43.0475 327.807 43.0958C332.489 45.7952 338.185 48.9284 338.378 56.6892V56.7374C338.813 59.7743 337.992 64.8357 336.93 66.2336L328.145 79.4415C329.158 80.984 329.641 82.0927 329.641 82.0927L340.213 66.2818C341.275 64.8839 342.095 59.7743 341.661 56.7374Z" fill="#363558"/>
<path d="M331.234 23.1394C331.234 23.1394 327.035 27.4777 330.655 30.5628C334.323 33.6478 340.502 26.7547 340.502 26.7547C337.316 24.7301 334.179 23.3322 331.234 23.1394Z" fill="#FBCAA9"/>
<path d="M355.514 41.8425C352.28 36.4436 348.756 31.1894 343.398 28.0562C343.157 27.9115 342.916 27.8151 342.626 27.8151C337.654 24.4409 333.937 23.8624 330.51 23.2358C328.821 22.9465 325.876 21.8861 323.994 22.1753C323.076 22.0789 322.256 22.3681 321.821 23.1876C319.553 28.008 316.994 32.5391 313.808 36.7811C312.167 38.9502 316.656 42.2281 318.298 40.0589C320.325 37.3113 321.001 35.5278 322.69 32.5391C322.69 32.6355 322.449 33.7924 322.497 33.8888L321.821 35.6724C321.821 35.6724 323.994 48.3982 324.138 49.8443C324.138 49.8443 330.462 54.5201 338.62 49.6997L341.999 39.7215L343.785 36.8775C344.074 36.6846 344.798 36.7811 345.281 36.8775C347.598 39.3841 349.481 42.3727 351.315 45.4095C352.763 47.8679 356.963 44.2527 355.514 41.8425Z" fill="url(#paint25_linear)"/>
<path d="M333.165 25.6459L331.138 17.9333L336.013 19.4758L337.654 25.7906C337.992 26.8028 334.613 29.5987 333.165 25.6459Z" fill="url(#paint26_linear)"/>
<path d="M332.441 23.525C333.551 23.525 334.758 22.6091 335.579 21.3558C335.579 21.3558 334.468 24.7301 332.924 24.8747L332.441 23.525Z" fill="url(#paint27_linear)"/>
<path d="M338.089 17.8851C337.944 17.0657 337.268 16.7282 336.544 17.1139L329.69 11.0402L327.228 12.2935L326.311 18.3672C325.973 20.681 327.566 22.8019 329.883 23.1876L331.379 23.4286C333.503 23.766 335.53 22.3681 336.11 20.3435C336.399 20.3917 336.689 20.3917 337.027 20.1989C337.702 19.7651 338.233 18.7046 338.089 17.8851Z" fill="url(#paint28_linear)"/>
<path d="M307.919 68.9331C307.919 68.9331 317.911 69.4633 324.525 75.8744C324.525 75.8744 321.677 68.451 310.092 67.1013L307.919 68.9331Z" fill="#F8F8F9"/>
<path d="M332.055 22.7537L330.558 22.5127C328.241 22.1753 326.648 20.0061 326.986 17.6923L327.855 11.9078L327.179 12.2453L326.262 18.3672C325.924 20.6809 327.517 22.8019 329.834 23.1875L331.331 23.4286C332.875 23.6696 334.372 22.9947 335.289 21.8378C334.42 22.6091 333.213 22.9465 332.055 22.7537Z" fill="#F8F8F9"/>
<path d="M318.539 59.9189L310.092 67.1013L312.167 67.4388L318.539 59.9189Z" fill="#F8F8F9"/>
<path opacity="0.25" d="M330.027 41.0712C330.027 41.0712 334.71 44.5419 338.137 41.0712C341.564 37.6005 343.785 36.8774 343.785 36.8774L341.999 39.7215L338.62 49.6997C338.62 49.6997 337.123 50.5673 336.254 50.9048C336.254 50.9048 339.875 44.4454 338.958 43.0475C337.992 41.505 335.337 47.0003 330.027 41.0712Z" fill="#3F3E5F"/>
<path opacity="0.25" d="M321.677 38.5164C321.677 38.5164 322.497 40.8784 324.621 41.1676C326.793 41.4568 327.952 39.7697 327.952 39.7697C327.952 39.7697 324.814 42.2281 321.821 37.3113L321.677 38.5164Z" fill="#3F3E5F"/>
<path d="M324.862 28.0562C324.669 27.5741 324.235 27.7187 323.994 28.1526C323.028 30.2253 321.146 34.4673 321.001 36.058C320.856 38.179 323.27 41.0712 323.463 48.9767L324.09 49.7479C324.09 49.7479 324.525 42.4691 322.304 37.8898C322.304 37.8898 321.339 34.9975 324.718 28.5864C324.959 28.2972 324.862 28.0562 324.862 28.0562Z" fill="#F8F8F9"/>
<path d="M67.0481 174.258L62.8968 178.163C63.3795 180.573 64.1036 182.55 66.4689 181.585L70.5236 177.295L67.0481 174.258Z" fill="url(#paint29_linear)"/>
<path d="M67.6756 179.416L65.069 174.644C64.7793 174.162 64.8759 173.535 65.2138 173.102C77.1367 158.833 76.654 158.399 79.164 153.675L79.2606 153.483C84.0877 144.372 85.8737 135.985 86.4529 132.851C86.5977 132.128 87.2735 131.598 87.9976 131.694L93.1626 132.321C93.9349 132.417 99.9205 131.453 99.8239 132.225C99.2447 135.744 91.811 146.927 86.3564 157.242L86.2598 157.435C83.5567 162.593 81.9155 165.437 69.9926 179.705C69.3651 180.38 68.1583 180.284 67.6756 179.416Z" fill="#3F3E5F"/>
<path d="M66.4689 175.849C79.7434 160.038 79.2124 159.556 81.9638 154.302L82.1086 154.061C87.1771 144.517 89.2044 135.695 89.9768 131.791L88.0942 131.55C87.3701 131.453 86.6944 131.984 86.5495 132.707C86.0186 135.84 84.1843 144.227 79.3572 153.338L79.2607 153.531C76.7506 158.255 77.2333 158.689 65.3104 172.957C64.9242 173.391 64.876 174.017 65.1656 174.5L66.2275 176.476C66.2275 176.283 66.3241 176.042 66.4689 175.849Z" fill="#343356"/>
<path d="M97.7483 131.887C98.0862 131.935 98.2793 132.032 98.231 132.176C97.6517 135.695 90.7973 147.312 85.3427 157.628L79.695 167.655C83.3153 162.931 84.5704 160.569 86.2598 157.387L86.3564 157.194C91.811 146.879 99.1964 135.695 99.8239 132.176C99.9205 131.839 98.9551 131.791 97.7483 131.887Z" fill="#F8F8F9"/>
<path d="M93.404 165.967L89.2527 169.872C89.7354 172.282 90.4594 174.258 92.8247 173.294L96.8795 169.004L93.404 165.967Z" fill="url(#paint30_linear)"/>
<path d="M94.1763 170.884L92.3903 165.341C92.2455 164.859 92.342 164.328 92.6799 163.991C95.0452 161.243 95.2865 161.388 98.6172 158.303C102.141 155.122 106.244 150.446 106.872 148.277C101.996 138.298 96.976 134.779 96.9277 134.731L104.361 127.838C104.941 128.32 110.202 132.707 115.898 144.517C118.843 150.639 111.988 156.905 104.024 164.184C101.32 166.642 98.8103 169.052 96.5898 171.414C95.8175 172.234 94.5142 171.945 94.1763 170.884Z" fill="#3F3E5F"/>
<path d="M92.873 166.787C95.6727 163.509 95.9623 163.654 100.017 159.99C103.106 157.146 106.63 153.386 108.561 150.542C109.526 149.144 109.623 147.361 108.802 145.866C104.844 138.347 100.934 134.346 99.0999 132.707L96.9277 134.731C96.976 134.779 101.996 138.298 106.872 148.277C106.244 150.446 102.141 155.073 98.6172 158.303C95.2865 161.34 94.9969 161.243 92.6799 163.991C92.342 164.377 92.2455 164.907 92.3903 165.341L92.873 166.787Z" fill="#343356"/>
<path d="M116.091 144.517C110.395 132.707 105.134 128.32 104.554 127.838L103.83 128.465C105.568 130.104 109.961 134.779 114.595 144.468C115.802 147.023 115.995 149.578 114.402 152.277C112.23 155.989 104.072 163.991 104.072 163.991C112.133 156.809 119.036 150.687 116.091 144.517Z" fill="#F8F8F9"/>
<path d="M91.0387 177.247L92.8247 173.294C91.1352 173.15 90.6042 171.414 91.0869 168.185L86.9839 169.824C86.3081 170.113 85.8254 170.691 85.7289 171.414L84.9565 177.295L84.6186 180.814C84.5221 181.826 85.1979 183.899 86.2598 184.237C86.3081 184.285 88.7699 185.394 91.0387 177.247Z" fill="#222147"/>
<path d="M64.1036 185.924L65.8896 181.971C64.2001 181.826 63.6692 180.091 64.1519 176.861L60.0489 178.5C59.3731 178.79 58.8904 179.368 58.7938 180.091L58.0215 185.972L57.6836 189.491C57.587 190.503 58.2628 192.576 59.3248 192.913C59.4213 192.962 61.8349 194.07 64.1036 185.924Z" fill="#222147"/>
<path d="M102.865 121.861C109.044 126.585 107.306 131.791 102.479 135.021C98.762 137.527 95.5279 139.793 90.7008 138.395C88.1907 137.624 84.136 133.478 84.8118 129.574C85.2462 127.067 91.6179 115.691 94.2728 113.955C99.0516 110.678 95.721 116.317 102.865 121.861Z" fill="#3F3E5F"/>
<path d="M124.587 109.714C121.304 109.714 119.374 107.255 118.022 105.616C117.732 105.231 117.298 104.7 117.105 104.507C115.946 104.122 115.271 102.917 115.56 101.712C115.85 100.41 117.153 99.6389 118.456 99.9281C119.905 100.266 120.87 101.471 121.787 102.628C122.897 104.025 123.718 104.99 124.683 104.941C125.842 104.893 129.221 103.495 136.027 92.2637C136.703 91.155 138.199 90.7694 139.309 91.4442C140.42 92.1191 140.806 93.6134 140.13 94.7221C134 104.797 129.317 109.376 125.021 109.665C124.876 109.713 124.732 109.714 124.587 109.714Z" fill="url(#paint31_linear)"/>
<path d="M93.4523 103.833C90.7009 106.484 88.0942 107.882 85.1497 110.388C78.6331 115.884 76.5575 122.439 76.1713 129.525C76.0265 132.032 71.827 131.646 71.9718 129.14C72.4062 121.572 74.4819 114.1 80.033 108.605C81.8673 106.821 83.9429 105.279 86.1151 103.977C87.5632 103.061 89.301 102.29 90.556 101.133C92.4386 99.3497 95.2866 102.097 93.4523 103.833Z" fill="url(#paint32_linear)"/>
<path d="M121.884 101.615L115.367 92.6975C115.078 92.2637 114.691 91.9745 114.257 91.7334C111.747 89.6607 107.74 90.1909 104.506 91.8298C102.189 92.9867 97.0725 94.24 93.2109 96.602C92.6316 96.9395 91.9558 97.4697 91.5696 97.7589L83.5567 104.797C81.4811 106.436 85.6323 112.365 88.3355 110.629L90.9421 107.93C88.6251 115.546 86.0668 123.789 84.86 129.573C86.115 134.635 96.6864 132.418 106.92 127.886C106.292 128.368 109.864 114.293 113.726 102.628L115.319 105.279C116.526 107.641 123.139 104.604 121.884 101.615Z" fill="url(#paint33_linear)"/>
<path d="M107.016 94.24L109.768 86.4792L104.217 87.5879L101.996 93.9026C101.513 94.9631 105.134 98.1927 107.016 94.24Z" fill="url(#paint34_linear)"/>
<path d="M107.885 91.8299C107.885 91.8299 105.52 91.4443 105.472 91.3961C105.472 91.3961 106.099 93.0832 107.161 93.8063L107.885 91.8299Z" fill="url(#paint35_linear)"/>
<path d="M105.23 82.0445C107.016 82.1409 109.044 81.7552 110.444 80.4055C111.94 78.9594 112.181 75.9226 110.202 75.1995C109.14 74.8139 106.92 75.0067 104.989 75.0067C99.5826 75.0549 95.5761 79.5379 97.6035 84.8403C97.6035 84.8403 99.7274 90.8176 103.493 91.4924C104.168 91.637 104.748 91.0104 104.651 90.3355C104.651 90.3355 102.237 88.8412 104.168 86.19C104.603 85.5634 104.41 84.6957 103.975 83.8762C103.589 83.0567 104.265 81.9963 105.23 82.0445Z" fill="url(#paint36_linear)"/>
<path d="M113.195 85.8043L110.975 79.9717L106.872 81.948C101.224 80.9358 105.52 87.1059 102.624 86.8166C101.803 86.6238 101.176 87.1059 101.224 87.9253C101.272 88.793 102.044 89.7089 102.865 89.9981C103.251 90.0945 103.541 90.0945 103.83 89.9499C104.844 91.878 107.161 92.7939 109.237 92.0227L110.685 91.4924C112.905 90.5765 114.016 88.0699 113.195 85.8043Z" fill="url(#paint37_linear)"/>
<path d="M106.872 127.886C106.872 127.886 111.312 109.665 113.823 102.338C113.823 102.338 113.002 97.6143 112.471 96.843C112.471 96.843 112.761 100.94 112.23 103.254C111.94 104.604 105.472 128.513 105.472 128.513L106.872 127.886Z" fill="#F8F8F9"/>
<path d="M113.292 85.8044L110.878 79.4415L110.299 80.3091L112.374 85.8044C113.243 88.0218 112.085 90.5766 109.864 91.396L108.416 91.9263C108.078 92.0709 107.692 92.1191 107.354 92.1673C108.03 92.2155 108.706 92.1673 109.333 91.9263L110.781 91.396C113.002 90.5284 114.112 88.0218 113.292 85.8044Z" fill="#F8F8F9"/>
<path d="M110.781 75.5369C111.506 76.7902 110.975 78.9112 109.864 80.0199C108.464 81.3696 106.437 81.8516 104.651 81.6588C104.168 81.6106 103.879 82.2855 104.844 82.3337C106.63 82.4301 109.189 82.0444 110.588 80.7429C111.94 79.345 112.374 76.4528 110.781 75.5369Z" fill="#F8F8F9"/>
<path d="M85.198 110.051C85.198 110.051 86.5013 111.401 87.8046 110.822C89.1079 110.244 89.4458 109.376 90.1698 108.653C90.1698 108.653 88.2873 110.533 87.1771 110.485C86.1151 110.388 85.198 110.051 85.198 110.051Z" fill="#F8F8F9"/>
<path d="M96.9278 138.588C97.6035 137.238 99.7757 138.588 100.741 134.924C102.044 131.839 101.707 131.694 101.32 131.839C101.32 131.839 100.258 136.37 98.8586 136.659C97.4587 136.949 96.0106 137.623 95.5762 138.588H96.9278Z" fill="#F8F8F9"/>
<path opacity="0.25" d="M90.9421 107.882C90.9421 107.882 85.1496 126.296 84.86 129.525C84.86 129.525 85.1014 131.839 88.3838 132.273C88.3838 132.273 86.5495 130.827 87.5149 127.838C88.4803 124.85 92.2937 109.328 90.9421 107.882Z" fill="#3F3E5F"/>
<path d="M148.722 145.674V74.6211H158.521L171.603 112.22H171.796L184.781 74.6211H194.676V145.674H184.491V102.483H184.298L174.209 132.996H169.093L159.149 102.483H158.956V145.674H148.722Z" fill="#222147"/>
<path d="M238.844 74.6211L224.266 145.674H215.288L200.807 74.6211H211.619L219.729 124.223H219.922L228.128 74.6211H238.844Z" fill="#222147"/>
<path d="M244.974 145.674V74.6211H260.276C263.076 74.6211 265.538 75.0067 267.662 75.7298C269.785 76.4528 271.716 77.7544 273.454 79.6343C275.192 81.5143 276.399 83.6834 277.074 86.19C277.75 88.6966 278.088 92.0709 278.088 96.3128C278.088 99.4943 277.895 102.194 277.557 104.411C277.171 106.628 276.399 108.653 275.192 110.581C273.792 112.895 271.909 114.727 269.592 116.028C267.275 117.33 264.186 117.956 260.421 117.956H255.208V145.674H244.974ZM255.159 84.2137V108.364H260.035C262.11 108.364 263.703 108.075 264.814 107.448C265.924 106.869 266.793 106.002 267.324 104.941C267.855 103.929 268.193 102.724 268.289 101.23C268.386 99.7835 268.434 98.1446 268.434 96.361C268.434 94.7221 268.386 93.1314 268.337 91.6371C268.289 90.1427 267.951 88.8412 267.42 87.6843C266.889 86.5757 266.069 85.708 265.007 85.0813C263.945 84.5029 262.4 84.1655 260.421 84.1655H255.159V84.2137Z" fill="#222147"/>
</g>
<path d="M333.724 291.95H80.4897L41.5991 52.1616H380.424L333.724 291.95Z" fill="url(#paint38_linear)"/>
<defs>
<linearGradient id="paint0_linear" x1="156.249" y1="105.791" x2="147.823" y2="127.306" gradientUnits="userSpaceOnUse">
<stop stop-color="#FFE89E"/>
<stop offset="1" stop-color="#FFBF1A"/>
</linearGradient>
<linearGradient id="paint1_linear" x1="140.081" y1="67.7429" x2="134.472" y2="82.064" gradientUnits="userSpaceOnUse">
<stop stop-color="#FFE89E"/>
<stop offset="1" stop-color="#FFBF1A"/>
</linearGradient>
<linearGradient id="paint2_linear" x1="102.187" y1="25.7745" x2="93.7615" y2="47.2896" gradientUnits="userSpaceOnUse">
<stop stop-color="#FFE89E"/>
<stop offset="1" stop-color="#FFBF1A"/>
</linearGradient>
<linearGradient id="paint3_linear" x1="98.1626" y1="112.651" x2="85.7663" y2="144.305" gradientUnits="userSpaceOnUse">
<stop stop-color="#FFE89E"/>
<stop offset="1" stop-color="#FFBF1A"/>
</linearGradient>
<linearGradient id="paint4_linear" x1="264.645" y1="105.791" x2="273.071" y2="127.306" gradientUnits="userSpaceOnUse">
<stop stop-color="#FFE89E"/>
<stop offset="1" stop-color="#FFBF1A"/>
</linearGradient>
<linearGradient id="paint5_linear" x1="280.813" y1="67.7429" x2="286.421" y2="82.064" gradientUnits="userSpaceOnUse">
<stop stop-color="#FFE89E"/>
<stop offset="1" stop-color="#FFBF1A"/>
</linearGradient>
<linearGradient id="paint6_linear" x1="318.706" y1="25.7745" x2="327.132" y2="47.2896" gradientUnits="userSpaceOnUse">
<stop stop-color="#FFE89E"/>
<stop offset="1" stop-color="#FFBF1A"/>
</linearGradient>
<linearGradient id="paint7_linear" x1="322.731" y1="112.651" x2="335.127" y2="144.305" gradientUnits="userSpaceOnUse">
<stop stop-color="#FFE89E"/>
<stop offset="1" stop-color="#FFBF1A"/>
</linearGradient>
<linearGradient id="paint8_linear" x1="165.016" y1="258.817" x2="64.4055" y2="535.927" gradientUnits="userSpaceOnUse">
<stop stop-color="#FFD481"/>
<stop offset="1" stop-color="#FA620C"/>
</linearGradient>
<linearGradient id="paint9_linear" x1="123.759" y1="280.056" x2="429.1" y2="606.355" gradientUnits="userSpaceOnUse">
<stop stop-color="#FFD481"/>
<stop offset="0.83311" stop-color="#FA620C"/>
</linearGradient>
<linearGradient id="paint10_linear" x1="84.0038" y1="271.32" x2="75.8346" y2="389.384" gradientUnits="userSpaceOnUse">
<stop stop-color="#FFD481"/>
<stop offset="1" stop-color="#FA620C"/>
</linearGradient>
<linearGradient id="paint11_linear" x1="346.019" y1="271.32" x2="360.549" y2="388.142" gradientUnits="userSpaceOnUse">
<stop stop-color="#FFD481"/>
<stop offset="1" stop-color="#FA620C"/>
</linearGradient>
<linearGradient id="paint12_linear" x1="307.761" y1="247.541" x2="314.34" y2="247.541" gradientUnits="userSpaceOnUse">
<stop stop-color="#F4731C"/>
<stop offset="0.1239" stop-color="#F47825"/>
<stop offset="0.3242" stop-color="#F5873D"/>
<stop offset="0.5759" stop-color="#F79F64"/>
<stop offset="0.8663" stop-color="#FAC099"/>
<stop offset="1" stop-color="#FBD1B4"/>
</linearGradient>
<linearGradient id="paint13_linear" x1="328.397" y1="222.425" x2="335.941" y2="222.425" gradientUnits="userSpaceOnUse">
<stop stop-color="#F4731C"/>
<stop offset="0.1239" stop-color="#F47825"/>
<stop offset="0.3242" stop-color="#F5873D"/>
<stop offset="0.5759" stop-color="#F79F64"/>
<stop offset="0.8663" stop-color="#FAC099"/>
<stop offset="1" stop-color="#FBD1B4"/>
</linearGradient>
<linearGradient id="paint14_linear" x1="249.847" y1="152.061" x2="296.744" y2="152.061" gradientUnits="userSpaceOnUse">
<stop stop-color="#FBD1B4"/>
<stop offset="0.1275" stop-color="#FBCAA9"/>
<stop offset="0.3483" stop-color="#F9B98D"/>
<stop offset="0.636" stop-color="#F79D5F"/>
<stop offset="0.9763" stop-color="#F47621"/>
<stop offset="1" stop-color="#F4731C"/>
</linearGradient>
<linearGradient id="paint15_linear" x1="298.799" y1="171.255" x2="328.449" y2="171.255" gradientUnits="userSpaceOnUse">
<stop stop-color="#F4731C"/>
<stop offset="0.1239" stop-color="#F47825"/>
<stop offset="0.3242" stop-color="#F5873D"/>
<stop offset="0.5759" stop-color="#F79F64"/>
<stop offset="0.8663" stop-color="#FAC099"/>
<stop offset="1" stop-color="#FBD1B4"/>
</linearGradient>
<linearGradient id="paint16_linear" x1="288.316" y1="153.066" x2="294.936" y2="153.066" gradientUnits="userSpaceOnUse">
<stop stop-color="#FBD1B4"/>
<stop offset="0.1275" stop-color="#FBCAA9"/>
<stop offset="0.3483" stop-color="#F9B98D"/>
<stop offset="0.636" stop-color="#F79D5F"/>
<stop offset="0.9763" stop-color="#F47621"/>
<stop offset="1" stop-color="#F4731C"/>
</linearGradient>
<linearGradient id="paint17_linear" x1="269.409" y1="177.446" x2="319.04" y2="177.446" gradientUnits="userSpaceOnUse">
<stop stop-color="#B8B8C4"/>
<stop offset="0.4511" stop-color="#9D9CAD"/>
<stop offset="0.871" stop-color="#88879C"/>
</linearGradient>
<linearGradient id="paint18_linear" x1="281.072" y1="144.408" x2="301.417" y2="144.408" gradientUnits="userSpaceOnUse">
<stop stop-color="#414061"/>
<stop offset="0.0369616" stop-color="#3E3D5E"/>
<stop offset="0.2693" stop-color="#2E2D51"/>
<stop offset="0.5356" stop-color="#252449"/>
<stop offset="0.9086" stop-color="#222147"/>
</linearGradient>
<linearGradient id="paint19_linear" x1="281.583" y1="148.012" x2="290.796" y2="148.012" gradientUnits="userSpaceOnUse">
<stop stop-color="#FBD1B4"/>
<stop offset="0.1275" stop-color="#FBCAA9"/>
<stop offset="0.3483" stop-color="#F9B98D"/>
<stop offset="0.636" stop-color="#F79D5F"/>
<stop offset="0.9763" stop-color="#F47621"/>
<stop offset="1" stop-color="#F4731C"/>
</linearGradient>
<linearGradient id="paint20_linear" x1="326.576" y1="17.8655" x2="363.568" y2="17.8655" gradientUnits="userSpaceOnUse">
<stop stop-color="#434263"/>
<stop offset="0.9086" stop-color="#222147"/>
</linearGradient>
<linearGradient id="paint21_linear" x1="305.477" y1="81.7943" x2="331.258" y2="81.7943" gradientUnits="userSpaceOnUse">
<stop stop-color="#FBD1B4"/>
<stop offset="0.0241833" stop-color="#FBCEB0"/>
<stop offset="0.4978" stop-color="#F79D61"/>
<stop offset="0.8343" stop-color="#F57F2F"/>
<stop offset="1" stop-color="#F4731C"/>
</linearGradient>
<linearGradient id="paint22_linear" x1="304.38" y1="86.0133" x2="340.284" y2="86.0133" gradientUnits="userSpaceOnUse">
<stop stop-color="#FBD1B4"/>
<stop offset="0.1239" stop-color="#FBCCAB"/>
<stop offset="0.3242" stop-color="#F9BD93"/>
<stop offset="0.5759" stop-color="#F8A56C"/>
<stop offset="0.8663" stop-color="#F58437"/>
<stop offset="1" stop-color="#F4731C"/>
</linearGradient>
<linearGradient id="paint23_linear" x1="345.684" y1="49.4792" x2="360.731" y2="49.4792" gradientUnits="userSpaceOnUse">
<stop stop-color="#F4731C"/>
<stop offset="0.1337" stop-color="#F58437"/>
<stop offset="0.4241" stop-color="#F8A56C"/>
<stop offset="0.6758" stop-color="#F9BD93"/>
<stop offset="0.8761" stop-color="#FBCCAB"/>
<stop offset="1" stop-color="#FBD1B4"/>
</linearGradient>
<linearGradient id="paint24_linear" x1="299.522" y1="34.9439" x2="319.498" y2="34.9439" gradientUnits="userSpaceOnUse">
<stop stop-color="#FBD1B4"/>
<stop offset="0.2448" stop-color="#FBCFB1"/>
<stop offset="0.4061" stop-color="#FACAA8"/>
<stop offset="0.5434" stop-color="#FAC199"/>
<stop offset="0.6673" stop-color="#F9B384"/>
<stop offset="0.7821" stop-color="#F8A269"/>
<stop offset="0.8902" stop-color="#F68E47"/>
<stop offset="0.9913" stop-color="#F47520"/>
<stop offset="1" stop-color="#F4731C"/>
</linearGradient>
<linearGradient id="paint25_linear" x1="313.451" y1="36.9734" x2="355.807" y2="36.9734" gradientUnits="userSpaceOnUse">
<stop stop-color="#B8B8C4"/>
<stop offset="0.4511" stop-color="#9D9CAD"/>
<stop offset="0.871" stop-color="#88879C"/>
</linearGradient>
<linearGradient id="paint26_linear" x1="331.15" y1="22.8181" x2="337.66" y2="22.8181" gradientUnits="userSpaceOnUse">
<stop stop-color="#FBD1B4"/>
<stop offset="0.2448" stop-color="#FBCFB1"/>
<stop offset="0.4061" stop-color="#FACAA8"/>
<stop offset="0.5434" stop-color="#FAC199"/>
<stop offset="0.6673" stop-color="#F9B384"/>
<stop offset="0.7821" stop-color="#F8A269"/>
<stop offset="0.8902" stop-color="#F68E47"/>
<stop offset="0.9913" stop-color="#F47520"/>
<stop offset="1" stop-color="#F4731C"/>
</linearGradient>
<linearGradient id="paint27_linear" x1="332.443" y1="23.1205" x2="335.586" y2="23.1205" gradientUnits="userSpaceOnUse">
<stop offset="0.1505" stop-color="#F47621"/>
<stop offset="1" stop-color="#FBCAA9"/>
</linearGradient>
<linearGradient id="paint28_linear" x1="326.221" y1="17.2455" x2="338.103" y2="17.2455" gradientUnits="userSpaceOnUse">
<stop stop-color="#FBD1B4"/>
<stop offset="0.2448" stop-color="#FBCFB1"/>
<stop offset="0.4061" stop-color="#FACAA8"/>
<stop offset="0.5434" stop-color="#FAC199"/>
<stop offset="0.6673" stop-color="#F9B384"/>
<stop offset="0.7821" stop-color="#F8A269"/>
<stop offset="0.8902" stop-color="#F68E47"/>
<stop offset="0.9913" stop-color="#F47520"/>
<stop offset="1" stop-color="#F4731C"/>
</linearGradient>
<linearGradient id="paint29_linear" x1="62.8878" y1="178.028" x2="70.5329" y2="178.028" gradientUnits="userSpaceOnUse">
<stop stop-color="#FBCAA9"/>
<stop offset="0.1451" stop-color="#FAC29C"/>
<stop offset="0.4143" stop-color="#F9AD79"/>
<stop offset="0.7752" stop-color="#F68A42"/>
<stop offset="1" stop-color="#F4731C"/>
</linearGradient>
<linearGradient id="paint30_linear" x1="89.2514" y1="169.772" x2="96.8965" y2="169.772" gradientUnits="userSpaceOnUse">
<stop stop-color="#FBCAA9"/>
<stop offset="0.1451" stop-color="#FAC29C"/>
<stop offset="0.4143" stop-color="#F9AD79"/>
<stop offset="0.7752" stop-color="#F68A42"/>
<stop offset="1" stop-color="#F4731C"/>
</linearGradient>
<linearGradient id="paint31_linear" x1="115.508" y1="100.411" x2="140.492" y2="100.411" gradientUnits="userSpaceOnUse">
<stop stop-color="#F4731C"/>
<stop offset="0.00872934" stop-color="#F47520"/>
<stop offset="0.1098" stop-color="#F68E47"/>
<stop offset="0.2179" stop-color="#F8A269"/>
<stop offset="0.3327" stop-color="#F9B384"/>
<stop offset="0.4566" stop-color="#FAC199"/>
<stop offset="0.5939" stop-color="#FACAA8"/>
<stop offset="0.7552" stop-color="#FBCFB1"/>
<stop offset="1" stop-color="#FBD1B4"/>
</linearGradient>
<linearGradient id="paint32_linear" x1="71.9828" y1="115.896" x2="94.0524" y2="115.896" gradientUnits="userSpaceOnUse">
<stop stop-color="#FBD1B4"/>
<stop offset="0.1247" stop-color="#FBCBAB"/>
<stop offset="0.3309" stop-color="#F9BC92"/>
<stop offset="0.5932" stop-color="#F8A269"/>
<stop offset="0.8982" stop-color="#F58030"/>
<stop offset="1" stop-color="#F4731C"/>
</linearGradient>
<linearGradient id="paint33_linear" x1="82.9911" y1="111.406" x2="122.036" y2="111.406" gradientUnits="userSpaceOnUse">
<stop stop-color="#9E9DAE"/>
<stop offset="0.2594" stop-color="#ACACBA"/>
<stop offset="0.5736" stop-color="#B5B5C2"/>
<stop offset="1" stop-color="#B8B8C4"/>
</linearGradient>
<linearGradient id="paint34_linear" x1="101.923" y1="91.331" x2="109.765" y2="91.331" gradientUnits="userSpaceOnUse">
<stop stop-color="#F4731C"/>
<stop offset="0.0877025" stop-color="#F6873D"/>
<stop offset="0.1971" stop-color="#F79C5E"/>
<stop offset="0.315" stop-color="#F9AD79"/>
<stop offset="0.4421" stop-color="#FABA8E"/>
<stop offset="0.583" stop-color="#FAC39D"/>
<stop offset="0.7487" stop-color="#FBC8A6"/>
<stop offset="1" stop-color="#FBCAA9"/>
</linearGradient>
<linearGradient id="paint35_linear" x1="105.483" y1="92.5927" x2="107.877" y2="92.5927" gradientUnits="userSpaceOnUse">
<stop offset="0.1505" stop-color="#F47621"/>
<stop offset="1" stop-color="#FBCAA9"/>
</linearGradient>
<linearGradient id="paint36_linear" x1="97.0695" y1="83.2447" x2="111.603" y2="83.2447" gradientUnits="userSpaceOnUse">
<stop offset="0.0913978" stop-color="#222147"/>
<stop offset="1" stop-color="#454564"/>
</linearGradient>
<linearGradient id="paint37_linear" x1="101.199" y1="86.1153" x2="113.466" y2="86.1153" gradientUnits="userSpaceOnUse">
<stop stop-color="#F4731C"/>
<stop offset="0.00872934" stop-color="#F47520"/>
<stop offset="0.1098" stop-color="#F68E47"/>
<stop offset="0.2179" stop-color="#F8A269"/>
<stop offset="0.3327" stop-color="#F9B384"/>
<stop offset="0.4566" stop-color="#FAC199"/>
<stop offset="0.5939" stop-color="#FACAA8"/>
<stop offset="0.7552" stop-color="#FBCFB1"/>
<stop offset="1" stop-color="#FBD1B4"/>
</linearGradient>
<linearGradient id="paint38_linear" x1="208.227" y1="52.1616" x2="208.227" y2="561.598" gradientUnits="userSpaceOnUse">
<stop stop-color="white" stop-opacity="0"/>
<stop offset="1" stop-color="#FE9277"/>
</linearGradient>
<clipPath id="clip0">
<rect width="396.158" height="257.216" fill="white" transform="translate(0 5.59314)"/>
</clipPath>
</defs>
</svg>
