<svg width="392" height="402" viewBox="0 0 392 402" fill="none" xmlns="http://www.w3.org/2000/svg">
<path d="M15.8973 340.029C15.759 343.554 13.098 346.422 9.46926 346.457C5.97877 346.492 3.00666 343.519 3.04121 340.029C3.11033 331.7 15.5517 331.735 15.8973 340.029C15.9664 341.964 19.0076 341.999 18.9385 340.029C18.7311 334.88 14.7914 330.594 9.46926 330.56C4.35448 330.525 0 334.88 0 340.029C0.0345593 345.178 4.28536 349.498 9.46926 349.498C14.7914 349.498 18.6966 345.178 18.9385 340.029C19.0422 338.059 16.001 338.059 15.8973 340.029Z" fill="#222147"/>
<path d="M360.142 117.467C360.661 117.018 361.283 117.813 360.799 118.262C322.715 151.784 298.903 224.635 293.305 276.163C293.236 276.889 292.579 277.408 291.888 277.338C291.197 277.269 290.678 276.613 290.747 275.887C295.828 228.817 319.915 152.165 360.142 117.467Z" fill="white"/>
<path d="M262.167 264.932L263.618 267.765C263.618 267.765 264.62 297.59 271.878 297.59H298.385C305.573 297.59 306.645 268.146 306.645 268.146L308.096 264.932C308.096 264.275 307.578 263.722 306.921 263.722H263.342C262.685 263.722 262.167 264.275 262.167 264.932Z" fill="#EF4373"/>
<path d="M205.732 172.52C205.732 172.52 200.582 149.78 180.192 146.497C159.802 143.179 126.936 137.926 124.794 127.489C124.137 132.984 140 143.317 155.69 144.078C171.345 144.803 198.82 148.916 205.732 172.52Z" fill="white"/>
<path d="M205.213 156.45C205.213 156.45 213.991 134.85 199.165 120.508C184.339 106.132 160.39 83.0114 164.606 73.2312C160.943 77.3783 168.027 94.8998 180.469 104.507C192.876 114.08 213.024 133.157 205.213 156.45Z" fill="white"/>
<path d="M210.535 171.621C210.535 171.621 204.729 136.025 182.369 124.932C160.01 113.838 123.895 96.0057 121.476 79.7629C120.819 87.7806 138.272 108.067 155.448 113.907C172.658 119.748 202.794 134.228 210.535 171.621Z" fill="white"/>
<path d="M23.8114 400.404H180.227C180.469 400.404 180.642 400.197 180.642 399.989V397.708C180.642 397.466 180.434 397.294 180.227 397.294H23.8114C23.5695 397.294 23.3967 397.501 23.3967 397.708V399.989C23.3967 400.197 23.5695 400.404 23.8114 400.404Z" fill="#222147"/>
<path d="M150.437 380.221H68.3583C67.4943 380.221 66.8031 380.913 66.8031 381.777C66.8031 382.641 67.4943 383.332 68.3583 383.332H150.437C151.301 383.332 151.992 382.641 151.992 381.777C152.026 380.913 151.301 380.221 150.437 380.221Z" fill="#222147"/>
<path d="M28.4078 155.897C27.0946 154.376 25.8504 152.787 24.6408 151.128L25.6085 150.402C26.7835 152.026 28.0276 153.582 29.3063 155.102L28.4078 155.897ZM21.254 146.082C20.1827 144.389 19.1805 142.592 18.2474 140.829L19.3187 140.276C20.2518 142.039 21.2195 143.767 22.2908 145.46L21.254 146.082ZM15.69 135.334C14.8951 133.468 14.1694 131.567 13.5473 129.666L14.6878 129.286C15.3098 131.153 16.001 133.019 16.7959 134.885L15.69 135.334ZM11.8885 123.826C11.4046 121.822 11.0245 119.817 10.748 117.847L11.9576 117.674C12.234 119.61 12.6142 121.58 13.0635 123.515L11.8885 123.826ZM10.2296 111.799C10.1605 110.382 10.195 108.931 10.2296 107.514C10.2642 106.926 10.2987 106.304 10.3333 105.717L11.5429 105.821C11.5083 106.408 11.4737 106.996 11.4392 107.583C11.3701 108.965 11.3701 110.382 11.4392 111.765L10.2296 111.799ZM45.7566 107.79C43.7176 107.341 41.8168 106.477 40.0888 105.199L40.8146 104.231C42.4043 105.406 44.1323 106.201 45.9985 106.615L45.7566 107.79ZM52.0464 107.272L51.4934 106.201C51.5971 106.132 51.7008 106.097 51.8045 106.028C52.703 105.51 53.4979 104.646 54.3618 103.401C54.6729 102.952 54.9493 102.503 55.1913 102.054L56.228 102.641C55.9516 103.125 55.6751 103.609 55.3295 104.093C54.7074 104.991 53.7398 106.27 52.3919 107.099C52.3228 107.134 52.1846 107.203 52.0464 107.272ZM12.3032 99.9109L11.1282 99.669C11.5083 97.6646 12.0267 95.6947 12.6833 93.7594L13.8238 94.1395C13.2017 96.0403 12.6833 97.9756 12.3032 99.9109ZM35.9072 100.637C34.8013 98.9433 33.9373 97.0425 33.3498 95.0381L34.4902 94.6925C35.0777 96.6278 35.8726 98.3903 36.9094 99.98L35.9072 100.637ZM58.4398 96.8352L57.2648 96.5932C57.5067 95.4528 57.645 94.2778 57.7141 93.1027C57.7486 92.3424 57.7487 91.5476 57.6795 90.7873L58.8891 90.7182C58.9582 91.513 58.9582 92.3424 58.9237 93.1719C58.8545 94.3814 58.6817 95.6256 58.4398 96.8352ZM16.0356 88.6792L14.9642 88.1608L15.2062 87.6424C16.0356 85.949 17.0032 84.3247 18.0054 82.8732L19.0077 83.5644C18.04 85.0159 17.1069 86.571 16.3121 88.1953L16.0356 88.6792ZM32.3476 88.9556C32.313 88.3681 32.313 87.7806 32.3476 87.1931C32.4167 85.7071 32.624 84.221 32.9696 82.8386L34.1446 83.1151C33.8336 84.4284 33.6262 85.8107 33.5571 87.2277C33.5226 87.7806 33.5226 88.3336 33.5571 88.9211L32.3476 88.9556ZM56.4354 85.085C55.7442 83.2533 54.8457 81.5599 53.6706 80.0739L54.0854 79.6246L54.5692 79.2445C55.8479 80.9033 56.8155 82.7004 57.5413 84.6703L56.4354 85.085ZM22.7401 78.968L21.8761 78.104C23.3967 76.5834 24.9864 75.3047 26.6798 74.2679L27.3019 75.3047C25.7122 76.3069 24.1916 77.5165 22.7401 78.968ZM36.2182 77.6202L35.1469 77.0672C35.9763 75.4775 36.944 73.8878 38.0844 72.3672C36.2873 72.3326 34.4211 72.54 32.6586 73.0238L32.3476 71.8488C34.3174 71.3304 36.3564 71.0885 38.4646 71.1922L38.43 71.9525L39.3631 72.6782C38.119 74.2679 37.0822 75.9268 36.2182 77.6202ZM49.4199 75.9959C47.8301 74.89 46.0676 74.026 44.2014 73.4039L44.5816 72.2635C46.5514 72.9201 48.4176 73.8532 50.111 74.9937L49.4199 75.9959ZM43.3374 68.2201L42.508 67.3561C43.8904 66.0083 45.411 64.6604 47.1044 63.3472L47.8647 64.2803C46.1713 65.5935 44.6852 66.9068 43.3374 68.2201ZM52.6684 60.8244L52.0118 59.8221C52.9103 59.2346 53.8435 58.6471 54.742 58.0596C55.5369 57.5758 56.3317 57.092 57.1611 56.6081L57.7832 57.6449C56.9883 58.1287 56.1935 58.6126 55.3986 59.0964C54.4655 59.6493 53.567 60.2369 52.6684 60.8244ZM63.0017 54.7419L62.4487 53.6706C64.2458 52.7375 66.0774 51.8389 67.9091 51.0441L68.3929 52.15C66.5958 52.9448 64.7642 53.8088 63.0017 54.7419ZM73.9224 49.8691L73.5077 48.7286C75.4085 48.0029 77.3438 47.3462 79.2445 46.7933L79.5901 47.9337C77.6894 48.5213 75.7886 49.1433 73.9224 49.8691ZM85.3615 46.4823L85.1196 45.3072C87.124 44.858 89.1285 44.5469 91.0984 44.2705L91.2366 45.48C89.3013 45.722 87.3314 46.033 85.3615 46.4823ZM114.771 47.4499C112.905 46.8279 110.97 46.344 109.035 45.9639L109.277 44.7889C111.281 45.169 113.251 45.6874 115.186 46.3095L114.771 47.4499ZM97.1808 44.9962L97.1462 43.7866C98.5286 43.7521 99.8764 43.7521 101.224 43.8212C101.881 43.8558 102.538 43.8903 103.229 43.9249L103.125 45.1344C102.434 45.0653 101.777 45.0308 101.086 45.0308C99.8073 44.9616 98.4941 44.9616 97.1808 44.9962Z" fill="#3F61ED"/>
<path d="M148.501 45.4454L106.788 50.422L109.899 41.6439L148.501 45.4454Z" fill="#BE6466"/>
<path d="M148.501 45.4455L106.616 29.3063L113.216 53.9816L148.501 45.4455Z" fill="#EF4373"/>
<path d="M148.501 45.4455L110.694 44.5469L106.788 50.422L109 38.1535L148.501 45.4455Z" fill="#E58D8F"/>
<path fill-rule="evenodd" clip-rule="evenodd" d="M183.959 350.811L310.999 350.017L311.829 233.966L184.789 234.761L183.959 350.811Z" fill="#3F61ED"/>
<path d="M104.231 242.917C100.775 247.445 99.0469 253.147 99.98 259.229C101.501 269.286 110.555 277.235 121.614 278.271C136.613 279.688 149.4 268.94 149.503 255.531C149.538 250.797 147.983 246.408 145.287 242.779C142.834 239.496 145.356 234.761 149.745 234.761H187.484V268.629C187.45 272.396 192.461 274.712 196.055 272.88C200.548 270.565 205.904 269.493 211.537 270.15C222.666 271.429 231.513 279.723 232.688 289.883C234.277 303.603 222.493 315.319 207.805 315.388C203.451 315.423 199.373 314.42 195.813 312.623C192.219 310.792 187.484 313.142 187.484 316.943V351.606H61.2045V234.761H99.7727C104.058 234.727 106.685 239.669 104.231 242.917Z" fill="#E5E5E5"/>
<path d="M158.42 155.69C164.917 154.791 171 156.173 175.838 159.111C179.57 161.357 184.858 158.869 184.858 154.757V119.195H311.068V236.04H272.984C268.491 236.075 265.727 240.118 268.215 243.505C271.429 247.928 272.949 253.492 271.982 259.402C270.323 269.459 261.13 277.546 250.071 278.721C235.038 280.345 222.424 269.701 222.493 256.326C222.527 251.765 224.048 247.479 226.605 243.92C229.128 240.395 226.64 236.005 222.044 236.04H184.892V201.273C184.927 197.092 179.294 194.776 175.423 197.126C171.518 199.476 166.852 200.859 161.841 200.893C147.154 200.997 135.542 189.454 137.304 175.734C138.583 165.608 147.43 157.245 158.42 155.69Z" fill="#EF4373"/>
<path d="M245.267 75.201C244.334 74.4753 241.155 74.3025 239.807 76.929C236.04 84.1519 233.033 99.4617 231.928 101.432C229.197 106.304 215.754 120.819 214.821 120.543C213.162 120.094 212.851 122.513 212.851 122.513H218.933C218.933 122.513 233.414 116.638 240.498 106.926C243.954 102.123 250.279 79.0717 245.267 75.201Z" fill="#FFD8BD"/>
<path d="M260.612 107.583C250.106 106.028 221.525 112.179 219.21 117.571C217.171 122.305 221.214 128.63 225.569 136.509C229.923 144.389 234.589 153.754 235.764 156.208C237.526 159.94 241.155 156.104 240.947 154.445C240.291 149.434 240.636 135.369 239.634 131.083C239.185 129.148 232.308 123.688 232.308 123.688L259.54 124.275L260.612 107.583Z" fill="#3B597E"/>
<path d="M276.267 113.838C280.414 123.273 271.463 124.206 270.427 126.487C269.424 128.768 257.018 156.623 257.018 158.385C257.018 160.148 262.996 165.332 264.413 168.995C266.521 174.421 266.902 194.154 266.902 204.522C266.902 214.855 261.337 207.84 261.821 204.522C262.34 201.204 244.127 163.12 244.127 158.523C244.127 152.199 249.138 127.005 252.179 118.158C255.186 109.311 272.984 106.374 276.267 113.838Z" fill="#3B597E"/>
<path d="M264.31 72.4363C272.673 79.9702 275.749 105.717 276.233 113.804C276.751 121.925 246.961 122.374 250.002 113.493C253.043 104.646 239.738 95.4528 238.563 82.5276C237.423 69.637 259.126 67.7708 264.31 72.4363Z" fill="#E5E5E5"/>
<path d="M215.961 120.923C212.574 118.4 211.227 118.573 209.257 118.573C207.321 118.573 202.103 122.513 203.9 122.513C207.114 122.513 217.205 122.513 218.864 122.513C220.281 122.513 215.961 120.923 215.961 120.923Z" fill="#FFD8BD"/>
<path d="M253.251 91.2365C252.076 97.0771 249.173 104.646 247.099 108.067C245.337 110.97 228.23 125.208 226.087 126.902C223.979 128.595 227.193 128.457 228.541 128.353C229.889 128.25 245.544 125.727 254.633 115.048C258.227 110.832 262.651 102.33 265.174 94.2086C266.729 89.3703 253.976 87.6078 253.251 91.2365Z" fill="#FFD8BD"/>
<path d="M235.764 156.208C235.764 156.208 233.517 170.619 234.485 172.313C234.9 173.073 237.353 170.377 239.116 166.783C239.634 165.712 240.256 163.431 240.878 162.36C242.503 159.56 243.954 158.212 243.747 157.487C243.436 156.208 240.775 154.445 240.775 154.445L235.764 156.208Z" fill="#222147"/>
<path d="M261.787 203.865C261.787 203.865 257.018 216.272 257.847 217.966C258.262 218.76 261.649 217.413 264.102 213.991C264.932 212.816 265.519 211.088 266.314 209.948C267.869 207.805 269.459 207.425 269.459 205.697C269.459 203.485 266.867 202.621 266.867 202.621L261.787 203.865Z" fill="#222147"/>
<path d="M226.122 126.936C223.703 127.835 215.305 136.336 216.48 137.304C217.136 137.822 219.555 134.505 220.696 134.297C219.313 135.576 217.585 139.101 218.277 139.792C218.83 140.311 221.767 140.656 223.599 139.481C224.843 138.686 225.223 137.511 225.569 136.164C226.156 134.056 229.716 130.911 228.541 128.388C228.264 127.731 226.122 126.936 226.122 126.936Z" fill="#FFD8BD"/>
<path d="M250.831 49.2816C247.894 46.6896 234.243 47.8301 233.241 53.9471C232.722 57.092 239.012 58.0942 239.012 58.0942C239.012 58.0942 247.652 64.7296 249.518 64.6605C251.419 64.5913 253.907 52.0117 250.831 49.2816Z" fill="#292F54"/>
<path d="M247.859 59.5802C248.067 62.5523 250.278 66.1119 252.248 68.2892C253.389 69.5679 254.944 70.1208 254.598 70.4319C253.631 71.2958 251.281 72.4709 249.933 75.6849C248.481 79.1408 246.926 79.9357 245.717 79.9357C244.507 79.9357 242.468 77.7584 243.125 75.6503C243.954 73.0238 243.539 70.9848 242.537 68.3929C241.293 65.1097 247.859 59.5802 247.859 59.5802Z" fill="#DF9C82"/>
<path d="M235.314 55.0184C233.448 60.4096 237.664 71.0885 240.982 70.9157C243.298 70.7774 248.447 66.1119 247.237 60.928C249.968 60.8244 248.931 54.5346 247.099 58.5089C246.512 53.9125 239.531 55.8478 235.314 55.0184Z" fill="#FFD8BD"/>
<path d="M239.773 76.929C235.936 81.8364 235.038 90.1306 234.761 91.202C237.63 91.202 243.505 94.3469 245.129 96.9043C246.131 95.591 247.134 95.0726 247.134 95.0726L239.773 76.929Z" fill="#E5E5E5"/>
<path d="M263.584 207.218C263.515 207.218 263.446 207.183 263.411 207.148C262.789 206.596 261.856 206.043 260.992 206.665C260.854 206.768 260.681 206.734 260.612 206.595C260.508 206.457 260.543 206.284 260.681 206.215C261.579 205.593 262.72 205.766 263.791 206.768C263.895 206.872 263.929 207.045 263.826 207.148C263.757 207.183 263.687 207.218 263.584 207.218Z" fill="#263E5E"/>
<path d="M262.927 208.946C262.858 208.946 262.789 208.911 262.754 208.876C261.89 208.116 260.957 208.012 260.266 208.6C260.162 208.704 259.955 208.669 259.886 208.565C259.782 208.462 259.817 208.254 259.92 208.185C260.853 207.39 262.063 207.494 263.169 208.462C263.273 208.565 263.307 208.738 263.204 208.842C263.065 208.911 262.996 208.946 262.927 208.946Z" fill="#263E5E"/>
<path d="M262.167 210.673C262.098 210.673 262.029 210.639 261.994 210.604C261.13 209.844 260.197 209.74 259.506 210.328C259.402 210.432 259.195 210.397 259.126 210.293C259.022 210.19 259.057 209.982 259.16 209.913C260.093 209.118 261.303 209.222 262.409 210.19C262.513 210.293 262.547 210.466 262.443 210.57C262.305 210.639 262.236 210.673 262.167 210.673Z" fill="#263E5E"/>
<path d="M269.908 205.351C269.908 205.351 269.908 205.42 269.874 205.559C269.839 205.732 269.805 205.939 269.735 206.215C269.666 206.492 269.528 206.803 269.321 207.114C269.113 207.425 268.871 207.771 268.56 208.082C268.249 208.393 267.904 208.738 267.558 209.049C267.385 209.222 267.213 209.395 267.074 209.568C266.936 209.74 266.798 209.948 266.66 210.155C266.383 210.604 266.107 211.054 265.83 211.537C265.554 212.021 265.243 212.505 264.932 212.989C264.31 213.957 263.688 214.89 262.962 215.685C262.789 215.892 262.582 216.065 262.409 216.238C262.236 216.41 262.029 216.583 261.856 216.721C261.476 217.032 261.13 217.343 260.75 217.585C260.404 217.827 260.024 218.035 259.679 218.138C259.333 218.277 259.022 218.346 258.78 218.346C258.504 218.38 258.296 218.346 258.158 218.346C258.02 218.346 257.951 218.311 257.951 218.311C257.847 218.277 257.778 218.207 257.812 218.104C257.847 218 257.916 217.931 258.02 217.966C258.02 217.966 258.089 217.965 258.193 218C258.331 218 258.504 218.035 258.711 218C258.953 217.965 259.195 217.896 259.506 217.793C259.817 217.654 260.128 217.482 260.474 217.24C260.819 216.998 261.165 216.721 261.51 216.41C261.683 216.238 261.856 216.065 262.029 215.892C262.201 215.719 262.374 215.546 262.547 215.339C263.204 214.544 263.826 213.611 264.379 212.678C264.655 212.194 264.932 211.71 265.208 211.226C265.485 210.743 265.727 210.259 266.003 209.81C266.141 209.568 266.279 209.36 266.452 209.118C266.625 208.911 266.798 208.704 266.971 208.531C267.316 208.185 267.627 207.874 267.904 207.563C268.18 207.252 268.388 206.976 268.526 206.699C268.664 206.423 268.768 206.181 268.837 205.973C268.906 205.766 268.906 205.593 268.941 205.49C268.941 205.351 268.941 205.282 268.941 205.282C268.975 205.006 269.182 204.833 269.424 204.833C269.735 204.868 269.943 205.075 269.908 205.351Z" fill="#263E5E"/>
<path d="M234.416 172.105C234.416 172.105 234.485 172.105 234.589 172.036C234.658 172.002 234.83 171.933 235.038 171.794C235.245 171.656 235.453 171.483 235.694 171.276C235.936 171.069 236.213 170.792 236.455 170.481C236.731 170.17 237.008 169.824 237.25 169.444C237.526 169.064 237.768 168.649 237.975 168.166C238.079 167.958 238.183 167.682 238.286 167.44C238.39 167.198 238.494 166.956 238.597 166.714C238.805 166.196 238.978 165.677 239.185 165.159C239.392 164.641 239.565 164.122 239.772 163.604C239.98 163.085 240.187 162.567 240.498 162.083C240.636 161.876 240.775 161.634 240.913 161.426C241.051 161.219 241.189 161.012 241.328 160.804C241.604 160.424 241.846 160.044 242.088 159.699C242.33 159.353 242.503 159.042 242.675 158.765C242.745 158.627 242.814 158.489 242.883 158.385C242.952 158.247 242.986 158.143 243.021 158.04C243.09 157.832 243.125 157.694 243.159 157.59C243.159 157.487 243.159 157.452 243.159 157.452V157.348C243.194 157.107 243.436 156.934 243.678 156.968C243.92 157.003 244.092 157.21 244.058 157.452C244.058 157.452 244.058 157.556 244.023 157.729C243.989 157.901 243.92 158.109 243.816 158.351C243.747 158.489 243.712 158.593 243.643 158.731C243.574 158.869 243.505 159.007 243.401 159.18C243.228 159.491 242.986 159.802 242.745 160.148C242.503 160.493 242.226 160.874 241.95 161.254C241.811 161.461 241.673 161.634 241.5 161.841C241.362 162.049 241.224 162.221 241.051 162.463C240.775 162.878 240.567 163.327 240.325 163.846C240.118 164.329 239.911 164.848 239.703 165.366C239.496 165.885 239.289 166.403 239.047 166.921C238.943 167.163 238.805 167.44 238.701 167.682C238.597 167.924 238.459 168.166 238.356 168.407C238.114 168.891 237.837 169.306 237.526 169.721C237.25 170.101 236.939 170.481 236.662 170.792C236.386 171.103 236.075 171.38 235.833 171.587C235.556 171.829 235.314 172.002 235.107 172.14C234.9 172.278 234.692 172.347 234.554 172.416C234.485 172.451 234.45 172.451 234.416 172.451C234.381 172.451 234.381 172.451 234.381 172.451C234.278 172.485 234.174 172.416 234.139 172.313C234.278 172.244 234.312 172.14 234.416 172.105Z" fill="#263E5E"/>
<path d="M235.314 159.56C235.28 159.56 235.245 159.56 235.211 159.526C235.072 159.457 235.003 159.284 235.072 159.146C235.142 158.973 235.383 158.8 235.729 158.696C236.351 158.524 237.25 158.524 237.768 158.869C237.906 158.938 237.941 159.111 237.837 159.249C237.768 159.387 237.595 159.422 237.457 159.318C236.904 158.973 235.729 159.18 235.591 159.353C235.522 159.491 235.418 159.56 235.314 159.56Z" fill="#263E5E"/>
<path d="M235.072 161.357C235.003 161.357 234.934 161.323 234.9 161.288C234.796 161.185 234.761 161.012 234.865 160.908C235.142 160.563 235.798 160.493 235.971 160.493C236.628 160.424 237.215 160.597 237.561 160.874C237.664 160.977 237.699 161.15 237.595 161.254C237.492 161.357 237.319 161.392 237.215 161.288C237.008 161.081 236.559 160.977 236.04 161.046C235.591 161.081 235.349 161.219 235.314 161.254C235.245 161.323 235.176 161.357 235.072 161.357Z" fill="#263E5E"/>
<path d="M237.008 163.5C236.904 163.5 236.835 163.465 236.766 163.362C236.558 163.051 235.522 163.016 234.969 163.293C234.83 163.362 234.658 163.293 234.589 163.154C234.519 163.016 234.588 162.843 234.727 162.774C235.418 162.429 236.835 162.394 237.25 163.016C237.319 163.154 237.284 163.327 237.18 163.396C237.111 163.5 237.042 163.5 237.008 163.5Z" fill="#263E5E"/>
<path d="M289.089 359.278C290.989 360.177 292.959 361.006 294.929 361.732L294.48 362.942C292.475 362.181 290.471 361.352 288.536 360.453L289.089 359.278ZM300.942 363.737C302.947 364.324 305.02 364.843 307.094 365.292L306.818 366.536C304.709 366.087 302.636 365.568 300.562 364.946L300.942 363.737ZM313.349 366.398C315.457 366.674 317.565 366.882 319.674 366.985L319.604 368.264C317.496 368.16 315.319 367.953 313.176 367.676L313.349 366.398ZM325.998 367.02C328.141 366.951 330.249 366.778 332.288 366.501L332.461 367.78C330.387 368.057 328.21 368.229 326.032 368.333L325.998 367.02ZM338.508 365.361C339.96 365.015 341.411 364.635 342.794 364.186C343.381 363.979 343.969 363.806 344.556 363.598L344.971 364.808C344.383 365.015 343.761 365.223 343.174 365.43C341.757 365.879 340.271 366.294 338.785 366.64L338.508 365.361ZM334.016 328.486C334.983 330.283 336.297 331.838 337.921 333.117L337.126 334.119C335.329 332.737 333.912 331.044 332.875 329.074L334.016 328.486ZM331.735 322.024C332.184 320.399 333.221 319.051 333.981 318.153C334.361 317.704 334.776 317.254 335.191 316.84L336.089 317.738C335.675 318.118 335.294 318.533 334.949 318.982C333.877 320.226 333.255 321.298 332.979 322.369C332.944 322.507 332.91 322.611 332.875 322.749L331.631 322.473C331.631 322.335 331.666 322.196 331.735 322.024ZM355.823 357.931L356.548 359.002C354.786 360.177 352.885 361.283 350.95 362.251L350.362 361.11C352.263 360.142 354.095 359.071 355.823 357.931ZM343.381 335.916C345.317 336.538 347.356 336.85 349.498 336.919L349.464 338.197C347.217 338.163 345.04 337.783 343.001 337.161L343.381 335.916ZM344.142 311.483C344.971 311.206 345.835 310.999 346.664 310.826L346.906 312.07C346.111 312.243 345.317 312.451 344.522 312.693C343.347 313.073 342.172 313.557 341.066 314.109L340.478 312.969C341.653 312.416 342.897 311.898 344.142 311.483ZM361.283 353.714C362.734 352.401 364.082 351.053 365.257 349.636L366.225 350.466C364.981 351.917 363.598 353.334 362.112 354.682L361.663 355.097L360.834 354.129L361.283 353.714ZM355.65 336.262C356.237 336.124 356.79 335.951 357.378 335.778C358.829 335.329 360.177 334.741 361.456 334.016L362.078 335.122C360.73 335.882 359.313 336.504 357.792 336.988C357.205 337.195 356.583 337.333 355.995 337.506L355.65 336.262ZM353.196 310.446C355.408 310.619 357.516 311.137 359.59 311.967L359.348 312.554L359.037 313.107C357.17 312.347 355.201 311.898 353.127 311.725L353.196 310.446ZM371.305 338.785L372.549 339.13C371.962 341.135 371.098 343.174 369.992 345.144L368.886 344.522C369.923 342.621 370.752 340.686 371.305 338.785ZM370.649 325.687L371.651 326.447L372.411 326.205C373.102 328.348 373.448 330.491 373.482 332.668H372.204C372.169 330.732 371.893 328.763 371.34 326.931C370.096 328.521 368.748 330.007 367.365 331.285L366.501 330.352C367.953 328.97 369.335 327.415 370.649 325.687ZM365.188 315.388C366.847 316.805 368.333 318.429 369.543 320.261L368.471 320.987C367.296 319.259 365.914 317.704 364.359 316.356L365.188 315.388ZM376.766 314.662L377.941 315.146C377.077 317.22 376.143 319.19 375.141 320.987L374.035 320.365C375.003 318.637 375.936 316.701 376.766 314.662ZM379.98 305.47C380.256 304.537 380.533 303.569 380.774 302.636L382.019 302.981C381.742 303.949 381.5 304.917 381.224 305.85C380.913 306.956 380.567 308.027 380.187 309.133L378.977 308.718C379.323 307.647 379.669 306.576 379.98 305.47ZM383.435 290.194L384.714 290.402C384.403 292.475 384.023 294.618 383.574 296.726L382.33 296.45C382.71 294.376 383.124 292.268 383.435 290.194ZM384.541 277.58L385.82 277.615C385.786 279.723 385.647 281.866 385.474 284.043L384.196 283.939C384.369 281.762 384.507 279.619 384.541 277.58ZM383.781 264.932L385.06 264.759C385.371 266.832 385.578 269.01 385.716 271.187L384.438 271.256C384.299 269.079 384.092 266.971 383.781 264.932ZM376.178 240.706C377.353 242.468 378.459 244.369 379.427 246.304L378.286 246.892C377.353 244.991 376.282 243.159 375.141 241.431L376.178 240.706ZM381.466 254.702C381.258 254.011 381.016 253.32 380.774 252.663L381.984 252.214C382.226 252.87 382.468 253.562 382.675 254.218C383.124 255.566 383.505 256.983 383.85 258.4L382.606 258.711C382.26 257.363 381.88 256.015 381.466 254.702Z" fill="#3F61ED"/>
<path d="M356.825 212.816L373.586 251.35L379.565 244.231L356.825 212.816Z" fill="#BE6466"/>
<path d="M356.825 212.816L391.903 240.844L367.262 247.617L356.825 212.816Z" fill="#EF4373"/>
<path d="M356.825 212.816L376.662 245.025L373.586 251.35L383.055 243.263L356.825 212.816Z" fill="#E58D8F"/>
<path d="M375.832 196.124C368.091 196.124 361.767 189.834 361.767 182.058C361.767 174.317 368.057 167.993 375.832 167.993C383.574 167.993 389.898 174.283 389.898 182.058C389.898 189.834 383.574 196.124 375.832 196.124ZM375.832 169.755C369.059 169.755 363.529 175.285 363.529 182.058C363.529 188.832 369.059 194.362 375.832 194.362C382.606 194.362 388.136 188.832 388.136 182.058C388.136 175.285 382.606 169.755 375.832 169.755Z" fill="#222147"/>
<path d="M375.832 196.124C371.374 196.124 367.884 189.938 367.884 182.058C367.884 174.179 371.374 167.993 375.832 167.993C380.29 167.993 383.781 174.179 383.781 182.058C383.781 189.938 380.29 196.124 375.832 196.124ZM375.832 169.755C372.48 169.755 369.646 175.388 369.646 182.058C369.646 188.728 372.48 194.362 375.832 194.362C379.185 194.362 382.018 188.728 382.018 182.058C382.018 175.388 379.185 169.755 375.832 169.755Z" fill="#222147"/>
<path d="M375.832 177.047C372.204 177.047 368.782 175.665 366.156 173.177C365.81 172.831 365.776 172.278 366.121 171.933C366.467 171.587 367.02 171.552 367.365 171.898C369.646 174.075 372.687 175.285 375.832 175.285C379.012 175.285 382.018 174.075 384.299 171.898C384.645 171.552 385.198 171.587 385.543 171.933C385.889 172.278 385.854 172.831 385.509 173.177C382.882 175.665 379.461 177.047 375.832 177.047Z" fill="#222147"/>
<path d="M384.921 192.495C384.714 192.495 384.472 192.426 384.299 192.253C382.018 190.076 378.977 188.867 375.832 188.867C372.653 188.867 369.646 190.076 367.365 192.253C367.02 192.599 366.467 192.564 366.121 192.219C365.776 191.873 365.81 191.32 366.156 190.975C368.782 188.486 372.204 187.104 375.832 187.104C379.461 187.104 382.882 188.486 385.509 190.975C385.854 191.32 385.889 191.873 385.543 192.219C385.371 192.392 385.163 192.495 384.921 192.495Z" fill="#222147"/>
<path d="M388.999 182.957H362.631C362.147 182.957 361.767 182.577 361.767 182.093C361.767 181.609 362.147 181.229 362.631 181.229H388.999C389.483 181.229 389.863 181.609 389.863 182.093C389.898 182.542 389.483 182.957 388.999 182.957Z" fill="#222147"/>
<path d="M375.832 196.124C375.349 196.124 374.968 195.744 374.968 195.26V168.891C374.968 168.407 375.349 168.027 375.832 168.027C376.316 168.027 376.696 168.407 376.696 168.891V195.26C376.731 195.744 376.316 196.124 375.832 196.124Z" fill="#222147"/>
<path d="M380.152 380.602C378.977 380.602 378.01 379.634 378.01 378.459V367.711C378.01 366.536 378.977 365.568 380.152 365.568C381.327 365.568 382.295 366.536 382.295 367.711V378.459C382.33 379.634 381.362 380.602 380.152 380.602Z" fill="#222147"/>
<path d="M385.544 375.245H374.796C373.621 375.245 372.653 374.277 372.653 373.102C372.653 371.927 373.621 370.96 374.796 370.96H385.544C386.719 370.96 387.686 371.927 387.686 373.102C387.686 374.277 386.719 375.245 385.544 375.245Z" fill="#222147"/>
<path d="M289.227 41.1947H276.751C275.576 41.1947 274.608 40.227 274.608 39.052C274.608 37.877 275.576 36.9093 276.751 36.9093H289.227C290.402 36.9093 291.37 37.877 291.37 39.052C291.404 40.227 290.436 41.1947 289.227 41.1947Z" fill="#222147"/>
<path d="M289.227 46.6205H276.751C275.576 46.6205 274.608 45.6528 274.608 44.4778C274.608 43.3028 275.576 42.3351 276.751 42.3351H289.227C290.402 42.3351 291.37 43.3028 291.37 44.4778C291.404 45.6874 290.436 46.6205 289.227 46.6205Z" fill="#222147"/>
<path d="M286.6 49.8691H279.412C278.824 49.8691 278.341 49.3852 278.341 48.7977C278.341 48.2102 278.824 47.7264 279.412 47.7264H286.6C287.188 47.7264 287.672 48.2102 287.672 48.7977C287.672 49.3852 287.188 49.8691 286.6 49.8691Z" fill="#222147"/>
<path d="M299.111 17.176C299.111 8.32879 291.957 1.14045 283.11 1.07134C274.228 1.03678 266.902 8.29423 266.902 17.176C266.902 23.1547 270.185 28.4077 275.023 31.1725C275.611 31.5181 275.991 32.1401 275.991 32.8313C275.991 33.9027 276.855 34.7667 277.926 34.7667H288.086C289.158 34.7667 290.022 33.9027 290.022 32.8313C290.022 32.1401 290.402 31.5181 290.989 31.1725C295.828 28.3732 299.111 23.1547 299.111 17.176Z" fill="white"/>
<path d="M288.086 35.838H277.926C276.267 35.838 274.919 34.4902 274.919 32.8313C274.919 32.5203 274.747 32.2438 274.505 32.1056C269.148 29.0644 265.83 23.3275 265.83 17.176C265.83 12.5796 267.627 8.25967 270.91 5.0111C274.159 1.76252 278.444 0 283.006 0C283.041 0 283.075 0 283.11 0C292.51 0.0691186 300.182 7.74128 300.182 17.176C300.182 23.3275 296.864 29.0298 291.508 32.1056C291.231 32.2438 291.093 32.5549 291.093 32.8313C291.093 34.4902 289.745 35.838 288.086 35.838ZM283.006 2.14268C279.032 2.14268 275.265 3.69784 272.431 6.53171C269.563 9.40013 267.973 13.1671 267.973 17.176C267.973 22.5672 270.876 27.5783 275.576 30.2394C276.509 30.7578 277.062 31.76 277.062 32.8313C277.062 33.3152 277.442 33.6953 277.926 33.6953H288.086C288.57 33.6953 288.95 33.3152 288.95 32.8313C288.95 31.76 289.538 30.7578 290.471 30.2394C295.137 27.5783 298.039 22.5672 298.039 17.176C298.039 8.95086 291.335 2.2118 283.11 2.14268C283.075 2.14268 283.041 2.14268 283.006 2.14268Z" fill="#222147"/>
<path d="M284.665 33.2115C283.559 26.5415 285.84 21.1503 286.842 19.4915C290.125 14.1693 294.065 13.962 294.445 15.3789C294.964 17.3142 289.365 19.4915 286.186 17.9363C282.972 16.3466 282.004 9.81485 284.7 9.74573C287.119 9.67661 287.257 17.4179 282.626 18.7311C278.514 19.9062 273.883 13.2017 276.786 11.7502C279.274 10.506 281.209 18.4547 277.58 20.7701L284.665 33.2115Z" fill="white"/>
<path d="M284.665 34.2828C284.147 34.2828 283.697 33.9027 283.594 33.3843C282.246 25.332 285.564 19.5605 285.909 18.973C285.84 18.9385 285.771 18.9039 285.736 18.9039C285.529 18.8002 285.322 18.6966 285.149 18.5583C284.561 19.0767 283.836 19.526 282.972 19.7679C281.935 20.0444 280.933 19.9753 280 19.6642C279.585 20.4591 278.997 21.1848 278.202 21.6687C277.719 21.9797 277.027 21.8415 276.716 21.3231C276.405 20.8392 276.544 20.1481 277.062 19.837C277.511 19.5605 277.857 19.1113 278.099 18.6274C276.751 17.6252 275.714 16.2429 275.23 14.9987C274.505 13.1325 274.954 11.5082 276.371 10.7825C277.338 10.2987 278.755 10.4023 279.758 12.234C280.518 13.6163 280.933 15.6899 280.622 17.5907C281.209 17.798 281.797 17.8671 282.384 17.6943C282.868 17.5561 283.283 17.3142 283.663 17.0032C282.419 15.2061 281.866 12.7524 282.246 10.9898C282.557 9.57291 283.49 8.70893 284.734 8.67437C285.806 8.63981 287.05 9.40011 287.43 11.681C287.672 13.2016 287.43 15.2061 286.531 16.8649C286.6 16.8995 286.67 16.9686 286.773 17.0032C286.946 17.0723 287.084 17.1414 287.292 17.2105C289.676 14.273 292.164 13.409 293.754 13.6509C294.722 13.7891 295.413 14.3421 295.62 15.1715C295.759 15.6899 295.793 16.7612 294.514 17.8326C293.098 19.0076 290.575 19.7679 288.259 19.5951C288.156 19.7679 288.017 19.9407 287.914 20.1481C286.773 22.0143 284.872 27.0945 285.875 33.1078C285.978 33.6953 285.564 34.2483 284.976 34.3519C284.769 34.2828 284.734 34.2828 284.665 34.2828ZM293.098 15.6899C292.959 15.6899 292.821 15.6899 292.648 15.759C292.268 15.8281 291.231 16.1392 289.987 17.2796C290.851 17.1414 291.681 16.8649 292.337 16.5193C292.994 16.1737 293.27 15.8627 293.374 15.6899C293.305 15.6899 293.236 15.6899 293.098 15.6899ZM277.304 12.6487C277.304 12.6487 277.269 12.6487 277.269 12.6832C276.751 12.9252 276.993 13.7546 277.166 14.2039C277.408 14.8605 277.891 15.5862 278.514 16.2083C278.514 15.7245 278.444 15.2061 278.375 14.7568C278.064 13.3399 277.511 12.6832 277.304 12.6487ZM284.734 10.7825C284.665 10.7825 284.423 10.7825 284.285 11.4391C284.078 12.3377 284.319 13.7891 284.907 14.9987C285.114 14.3767 285.253 13.72 285.253 13.098C285.356 11.6465 284.907 10.8516 284.734 10.7825Z" fill="#222147"/>
<path d="M266.003 400.335H236.386C233.586 400.335 231.34 398.054 231.34 395.289V375.798C231.34 372.999 233.621 370.752 236.386 370.752H266.003C268.802 370.752 271.049 373.033 271.049 375.798V395.289C271.049 398.089 268.768 400.335 266.003 400.335ZM236.386 372.895C234.796 372.895 233.483 374.208 233.483 375.798V395.289C233.483 396.879 234.796 398.192 236.386 398.192H266.003C267.593 398.192 268.906 396.879 268.906 395.289V375.798C268.906 374.208 267.593 372.895 266.003 372.895H236.386Z" fill="#222147"/>
<path d="M245.302 372.964C244.127 372.964 243.159 371.996 243.159 370.821V367.089C243.159 365.914 244.127 364.946 245.302 364.946H257.052C258.227 364.946 259.195 365.914 259.195 367.089V370.648C259.195 371.823 258.227 372.791 257.052 372.791C255.877 372.791 254.909 371.823 254.909 370.648V369.232H247.445V370.821C247.445 371.996 246.512 372.964 245.302 372.964Z" fill="#222147"/>
<path d="M251.315 386.615C251.246 386.615 251.142 386.615 251.073 386.58L234.243 382.848C233.655 382.71 233.31 382.157 233.414 381.569C233.552 380.982 234.105 380.636 234.692 380.74L251.281 384.438L267.627 380.74C268.215 380.602 268.768 380.982 268.906 381.535C269.044 382.122 268.664 382.675 268.111 382.813L251.557 386.546C251.453 386.615 251.384 386.615 251.315 386.615Z" fill="#222147"/>
<path d="M251.177 387.928C249.76 387.928 248.585 386.753 248.585 385.336V385.094C248.585 383.677 249.76 382.502 251.177 382.502C252.594 382.502 253.769 383.677 253.769 385.094V385.336C253.769 386.753 252.629 387.928 251.177 387.928Z" fill="#222147"/>
<path d="M80.9378 125.83C89.355 125.83 96.1785 119.316 96.1785 111.281C96.1785 103.246 89.355 96.7315 80.9378 96.7315C72.5206 96.7315 65.6971 103.246 65.6971 111.281C65.6971 119.316 72.5206 125.83 80.9378 125.83Z" fill="white"/>
<path opacity="0.45" d="M96.4895 111.938H81.629V97.0771C89.8541 97.0771 96.4895 103.747 96.4895 111.938Z" fill="#222147"/>
<path d="M81.6636 127.766C72.9201 127.766 65.8354 120.647 65.8354 111.938C65.8354 103.194 72.9547 96.1094 81.6636 96.1094C90.4071 96.1094 97.4918 103.229 97.4918 111.938C97.4918 120.647 90.3725 127.766 81.6636 127.766ZM81.6636 98.0793C74.026 98.0793 67.8053 104.3 67.8053 111.938C67.8053 119.575 74.026 125.796 81.6636 125.796C89.3012 125.796 95.5219 119.575 95.5219 111.938C95.5219 104.3 89.3012 98.0793 81.6636 98.0793Z" fill="#222147"/>
<path d="M89.7506 112.905H79.2445C78.6916 112.905 78.2423 112.456 78.2423 111.903C78.2423 111.35 78.6916 110.901 79.2445 110.901H89.7506C90.3035 110.901 90.7528 111.35 90.7528 111.903C90.7528 112.491 90.3035 112.905 89.7506 112.905Z" fill="#222147"/>
<path d="M81.6636 115.394C81.1106 115.394 80.6614 114.944 80.6614 114.391V99.8764C80.6614 99.3234 81.1106 98.8742 81.6636 98.8742C82.2165 98.8742 82.6658 99.3234 82.6658 99.8764V114.426C82.6313 114.944 82.182 115.394 81.6636 115.394Z" fill="#222147"/>
<path d="M81.6636 125.001C81.1106 125.001 80.6614 124.552 80.6614 123.999V122.824C80.6614 122.271 81.1106 121.822 81.6636 121.822C82.2165 121.822 82.6658 122.271 82.6658 122.824V123.999C82.6313 124.552 82.182 125.001 81.6636 125.001Z" fill="#222147"/>
<path d="M93.7248 112.905H92.5498C91.9969 112.905 91.5476 112.456 91.5476 111.903C91.5476 111.35 91.9969 110.901 92.5498 110.901H93.7248C94.2778 110.901 94.727 111.35 94.727 111.903C94.727 112.491 94.2778 112.905 93.7248 112.905Z" fill="#222147"/>
<path d="M70.7429 112.905H69.5679C69.0149 112.905 68.5657 112.456 68.5657 111.903C68.5657 111.35 69.0149 110.901 69.5679 110.901H70.7429C71.2959 110.901 71.7451 111.35 71.7451 111.903C71.7451 112.491 71.2959 112.905 70.7429 112.905Z" fill="#222147"/>
<path d="M56.85 150.402H155.309V177.808C155.275 181.022 151.128 182.957 148.19 181.194C144.354 178.913 139.55 177.842 134.436 178.533C125.761 179.743 118.884 186.24 117.985 194.05C116.776 204.591 125.934 213.369 137.339 213.3C141.244 213.265 144.873 212.229 147.914 210.432C150.92 208.669 155.309 210.397 155.309 213.611V240.36H120.301C118.504 240.36 117.605 241.915 118.918 243.021C123.238 246.581 125.658 251.868 124.724 257.64C123.549 265.001 116.638 270.876 108.24 271.74C96.8351 272.915 87.0202 265.174 86.8475 255.359C86.7438 250.589 88.9556 246.235 92.5843 243.159C93.863 242.053 92.8608 240.36 91.0982 240.36H56.8154V150.402H56.85Z" fill="#F3D378"/>
<path d="M44.5815 303.396C42.0587 305.09 41.8167 312.209 43.0954 319.604C43.7521 323.233 38.3262 349.567 37.3586 350.846C34.1791 354.924 28.1313 355.892 25.643 359.866C21.3922 366.674 18.2473 387.79 16.3465 391.522C14.4458 395.255 19.7333 397.743 19.8716 396.291C20.8738 386.58 39.916 365.015 44.7197 361.387C51.1823 356.514 64.5567 312.658 68.8767 300.113C68.8767 300.113 54.0162 297.072 44.5815 303.396Z" fill="url(#paint0_radial)"/>
<path d="M85.4307 355.511C85.7071 354.302 78.1386 310.723 69.7753 297.072L47.3809 302.394C54.3273 323.302 55.9861 314.179 60.2024 323.302C67.1142 338.301 74.5099 355.477 74.3371 357.343C73.8878 361.87 71.9525 367.676 73.3003 372.791C74.7518 378.321 86.1564 391.626 87.5733 395.704C89.0248 399.747 93.0337 395.877 92.2388 394.805C87.2277 387.963 84.7395 358.622 85.4307 355.511Z" fill="#243D5D"/>
<path d="M99.7727 271.74C99.7727 270.738 91.7895 270.427 89.0939 270.565C76.1341 271.221 68.0473 275.023 64.2112 275.161C63.209 274.885 58.7162 272.638 54.0162 270.012C49.3161 267.42 46.344 264.828 44.1668 263.549C42.6462 262.651 40.1925 262.201 38.9829 263.446C37.7387 264.69 37.1512 267.8 40.1925 270.841C44.0285 274.677 58.6817 281.693 62.2413 281.693C67.5634 281.693 81.871 275.161 87.0549 274.09C88.9211 273.71 92.1005 273.882 93.5175 273.848C95.1763 273.813 99.7727 272.604 99.7727 271.74Z" fill="#E09E86"/>
<path d="M33.6607 263.895C27.9585 271.532 44.2359 281.866 45.9984 291.3C47.2425 298.039 43.7866 302.325 44.5815 303.396C45.3418 304.467 65.1788 302.463 69.7406 297.072C71.1576 295.378 59.7185 286.047 58.8199 282.522C58.1978 280.138 56.9883 279.758 57.3684 274.297C57.5412 271.671 59.6839 271.878 58.9927 267.282C58.6471 265.104 52.7029 260.784 46.9661 259.886C39.5704 258.711 34.2483 263.1 33.6607 263.895Z" fill="#EF4373"/>
<path d="M39.4668 247.721C41.644 252.767 45.9985 259.782 46.9316 261.096C47.8647 262.409 38.2226 266.003 37.1858 264.275C36.1491 262.547 35.3888 251.004 35.527 248.343C35.6307 245.682 39.4668 247.721 39.4668 247.721Z" fill="#E3B38E"/>
<path d="M46.4131 235.453C50.4911 242.33 48.9705 250.313 47.0006 251.35C45.0653 252.387 36.2181 250.935 33.5571 243.332C31.7945 238.286 43.441 230.407 46.4131 235.453Z" fill="#E3B38E"/>
<path d="M12.8906 244.991C15.2406 239.358 23.0165 240.291 23.9842 238.77C24.5717 237.872 24.6062 233.655 25.4011 232.964C28.6497 230.13 33.0732 231.789 34.4902 231.029C35.838 230.338 35.7343 228.23 38.188 228.679C40.78 229.163 41.4712 231.686 42.6462 231.858C43.2682 232.066 44.3396 231.34 45.6874 232.653C47.7955 234.727 45.2727 238.563 44.8925 243.574C44.6506 246.684 45.6183 249.829 47.1043 252.559C48.1757 254.46 48.383 258.331 44.9271 261.234C43.0263 262.824 41.8513 261.407 40.227 262.996C38.7755 264.379 39.363 266.279 36.8402 268.18C35.4924 269.217 33.3152 267.835 32.6931 269.113C30.7923 272.915 33.3152 278.721 28.4077 279.619C24.9864 280.241 23.7768 275.334 23.0511 274.366C20.5973 271.118 18.0399 273.917 16.6921 270.738C14.1347 264.759 19.9753 261.13 18.1782 257.57C16.934 254.909 9.98763 251.972 12.8906 244.991Z" fill="#292C50"/>
<path d="M108.62 271.74C108.62 270.738 100.637 270.427 97.941 270.565C84.9813 271.221 76.8944 275.023 73.0583 275.161C72.0561 274.885 67.5634 272.638 62.8633 270.012C58.1633 267.42 55.1912 264.828 53.0139 263.549C51.4933 262.651 49.0396 262.201 47.83 263.446C46.5859 264.69 45.9984 267.8 49.0396 270.841C52.8757 274.677 64.4876 280.863 71.0885 281.693C76.376 282.384 90.7181 275.161 95.902 274.09C97.7682 273.71 100.948 273.882 102.365 273.848C104.023 273.813 108.62 272.604 108.62 271.74Z" fill="#E3B38E"/>
<path d="M91.4785 393.527C94.3124 393.527 102.987 391.246 103.505 391.799C104.093 392.386 91.1675 400.715 89.3358 400.197C87.5042 399.678 87.8498 397.605 87.677 395.98C88.1263 396.844 91.3748 396.153 91.4785 393.527Z" fill="#486C99"/>
<path d="M20.9084 392.421C22.429 394.805 28.9261 401.095 28.7188 401.856C28.5114 402.65 14.6186 396.119 14.1002 394.287C13.5818 392.455 15.4135 391.591 16.7267 390.555C16.4502 391.799 18.6275 393.734 20.9084 392.421Z" fill="#486C99"/>
<path d="M85.3961 247.859C74.7172 247.859 66.0428 239.185 66.0428 228.506C66.0428 217.827 74.7172 209.153 85.3961 209.153C87.8498 209.153 90.2689 209.602 92.5153 210.501C93.1373 210.743 93.4484 211.434 93.2065 212.056C92.9646 212.678 92.2734 212.989 91.6513 212.747C89.6814 211.952 87.5733 211.572 85.4306 211.572C76.0996 211.572 68.4966 219.175 68.4966 228.506C68.4966 237.837 76.0996 245.44 85.4306 245.44C94.7616 245.44 102.365 237.837 102.365 228.506C102.365 224.843 101.224 221.352 99.047 218.449C98.6323 217.896 98.7705 217.171 99.2889 216.756C99.8418 216.341 100.568 216.479 100.982 216.998C103.471 220.35 104.784 224.324 104.784 228.506C104.749 239.185 96.0749 247.859 85.3961 247.859Z" fill="#222147"/>
<path d="M84.1519 239.392C83.357 239.392 82.6312 239.012 82.182 238.355L74.0951 226.847C73.3348 225.741 73.5767 224.255 74.6826 223.46C75.7885 222.7 77.2746 222.942 78.0694 224.048L83.9099 232.342L95.7638 209.913C96.3858 208.738 97.8373 208.289 99.0469 208.911C100.222 209.533 100.671 210.985 100.049 212.194L86.3291 238.114C85.9489 238.874 85.1886 239.358 84.3592 239.392C84.2555 239.392 84.1864 239.392 84.1519 239.392Z" fill="#222147"/>
<defs>
<radialGradient id="paint0_radial" cx="0" cy="0" r="1" gradientUnits="userSpaceOnUse" gradientTransform="translate(58.2206 329.668) rotate(180) scale(19.5257)">
<stop offset="0.0599883" stop-color="#1E334B"/>
<stop offset="1" stop-color="#243D5D"/>
</radialGradient>
</defs>
</svg>
