<svg width="60" height="60" viewBox="0 0 60 60" fill="none" xmlns="http://www.w3.org/2000/svg">
<g filter="url(#filter0_d)">
  <circle cx="30" cy="30" r="29" stroke="#F53838" stroke-width="2"/>
</g>
<path d="M65.25 58.7499H80.075L75.5375 53.2999C75.3253 53.0446 75.2232 52.7155 75.2537 52.385C75.2842 52.0544 75.4447 51.7495 75.7 51.5374C75.9553 51.3252 76.2844 51.2231 76.6149 51.2536C76.9454 51.2841 77.2503 51.4446 77.4625 51.6999L83.7125 59.1999C83.7545 59.2595 83.7922 59.3222 83.825 59.3874C83.825 59.4499 83.825 59.4874 83.9125 59.5499C83.9692 59.6932 83.9988 59.8457 84 59.9999C83.9988 60.154 83.9692 60.3065 83.9125 60.4499C83.9125 60.5124 83.9125 60.5499 83.825 60.6124C83.7922 60.6775 83.7545 60.7402 83.7125 60.7999L77.4625 68.2999C77.345 68.441 77.1978 68.5544 77.0314 68.6322C76.8651 68.71 76.6836 68.7502 76.5 68.7499C76.2079 68.7504 75.9249 68.6487 75.7 68.4624C75.5734 68.3574 75.4688 68.2285 75.3921 68.0831C75.3154 67.9377 75.2682 67.7785 75.2531 67.6148C75.238 67.4511 75.2553 67.286 75.3041 67.129C75.3529 66.972 75.4322 66.8262 75.5375 66.6999L80.075 61.2499H65.25C64.9185 61.2499 64.6005 61.1182 64.3661 60.8837C64.1317 60.6493 64 60.3314 64 59.9999C64 59.6683 64.1317 59.3504 64.3661 59.116C64.6005 58.8816 64.9185 58.7499 65.25 58.7499Z" fill="white"/>
<defs>
<filter id="filter0_d" x="0" y="0" width="148" height="148" filterUnits="userSpaceOnUse" color-interpolation-filters="sRGB">
<feFlood flood-opacity="0" result="BackgroundImageFix"/>
<feColorMatrix in="SourceAlpha" type="matrix" values="0 0 0 0 0 0 0 0 0 0 0 0 0 0 0 0 0 0 127 0"/>
<feOffset dy="14"/>
<feGaussianBlur stdDeviation="22"/>
<feColorMatrix type="matrix" values="0 0 0 0 0.0561111 0 0 0 0 0.0777333 0 0 0 0 0.133333 0 0 0 0.08 0"/>
<feBlend mode="normal" in2="BackgroundImageFix" result="effect1_dropShadow"/>
<feBlend mode="normal" in="SourceGraphic" in2="effect1_dropShadow" result="shape"/>
</filter>
</defs>
</svg>
