<svg width="34" height="34" viewBox="0 0 34 34" fill="none" xmlns="http://www.w3.org/2000/svg">
<path d="M32.1366 16.564C32.1366 25.1915 25.3435 32.1411 17.0177 32.1411C8.69187 32.1411 1.89872 25.1915 1.89872 16.564C1.89872 7.93646 8.69187 0.986857 17.0177 0.986857C25.3435 0.986857 32.1366 7.93646 32.1366 16.564Z" stroke="#6a67b8" stroke-width="1.8326"/>
<path fill-rule="evenodd" clip-rule="evenodd" d="M22.9711 12.3229C23.6312 11.894 24.1377 11.214 24.3755 10.404C23.7574 10.8021 23.0744 11.09 22.3457 11.2458C21.7642 10.5708 20.9331 10.1499 20.0133 10.1499C18.2487 10.1499 16.8187 11.7034 16.8187 13.6193C16.8187 13.8913 16.8452 14.1563 16.9001 14.4094C14.2449 14.2645 11.8906 12.8847 10.3134 10.7842C10.0382 11.2984 9.88091 11.894 9.88091 12.5293C9.88091 13.7324 10.445 14.7946 11.3027 15.418C10.7788 15.4001 10.2859 15.2423 9.85439 14.9842V15.0269C9.85439 16.7085 10.9552 18.1111 12.419 18.4288C12.1502 18.5102 11.8686 18.5509 11.576 18.5509C11.3703 18.5509 11.1692 18.53 10.9753 18.4893C11.3813 19.8671 12.5617 20.8717 13.9606 20.8985C12.8661 21.8296 11.4883 22.3836 9.99154 22.3836C9.7337 22.3836 9.47861 22.3687 9.229 22.3359C10.6434 23.3196 12.323 23.8944 14.1279 23.8944C20.0069 23.8944 23.2198 18.6074 23.2198 14.0223C23.2198 13.8714 23.2179 13.7215 23.2115 13.5736C23.836 13.0842 24.3791 12.4727 24.8061 11.7769C24.2328 12.0528 23.6166 12.2395 22.9711 12.3229Z" fill="#6a67b8"/>
</svg>
